<svg width="31" height="32" viewBox="0 0 31 32" fill="none" xmlns="http://www.w3.org/2000/svg">
<path d="M1.16992 18.6245V21.6551C1.16992 27.4552 2.61996 30.3553 9.87013 30.3553H18.5703C25.8205 30.3553 27.2706 27.4552 27.2706 21.6551V17.356" stroke="black" stroke-width="2" stroke-miterlimit="10" stroke-linecap="round" stroke-linejoin="round"/>
<path d="M1.16992 12.9549C1.16992 6.34274 3.59148 4.5447 8.4201 4.28369" stroke="black" stroke-width="2" stroke-miterlimit="10" stroke-linecap="round" stroke-linejoin="round"/>
<path d="M12.712 1.35596H11.32C9.86996 1.35596 8.41992 1.35596 8.41992 4.25603C8.41992 7.1561 9.86996 7.1561 11.32 7.1561H17.1201C20.0202 7.1561 20.0202 5.70606 20.0202 4.25603C20.0202 1.35596 18.5702 1.35596 17.1201 1.35596" stroke="black" stroke-width="2" stroke-miterlimit="10" stroke-linecap="round" stroke-linejoin="round"/>
<path d="M8.41992 21.9458H14.7711" stroke="black" stroke-width="2" stroke-miterlimit="10" stroke-linecap="round" stroke-linejoin="round"/>
<path d="M8.41992 16.145H18.5702" stroke="black" stroke-width="2" stroke-miterlimit="10" stroke-linecap="round" stroke-linejoin="round"/>
<path d="M27.0945 6.52896C28.8618 5.93987 29.8219 6.90468 29.2375 8.67196L27.9248 12.6101C27.0435 15.2587 25.5962 15.2587 24.7149 12.6101L24.3253 11.4411L23.1564 11.0515C20.5078 10.1702 20.5078 8.72762 23.1564 7.84166L27.0945 6.52896Z" stroke="black" stroke-width="1.5" stroke-linecap="round" stroke-linejoin="round"/>
<path d="M24.4121 11.2414L26.0727 9.57617" stroke="black" stroke-width="1.5" stroke-linecap="round" stroke-linejoin="round"/>
</svg>
