<svg width="33" height="34" viewBox="0 0 33 34" fill="none" xmlns="http://www.w3.org/2000/svg">
<path d="M31.2891 7.41846V11.0485C31.2891 13.4185 29.7891 14.9185 27.4191 14.9185H22.2891V4.43346C22.2891 2.76846 23.6541 1.41846 25.3191 1.41846C26.9541 1.43346 28.4541 2.09346 29.5341 3.17346C30.6141 4.26846 31.2891 5.76846 31.2891 7.41846Z" stroke="black" stroke-width="2" stroke-miterlimit="10" stroke-linecap="round" stroke-linejoin="round"/>
<path d="M11.7891 17.9331H16.2891" stroke="black" stroke-width="2" stroke-linecap="round" stroke-linejoin="round"/>
<path d="M11.7891 11.9331H16.2891" stroke="black" stroke-width="2" stroke-linecap="round" stroke-linejoin="round"/>
<path d="M1.28906 14.9185V29.9185C1.28906 31.1635 2.69906 31.8685 3.68906 31.1185L6.25406 29.1985C6.85406 28.7485 7.69406 28.8085 8.23406 29.3485L10.7241 31.8535C11.3091 32.4385 12.2691 32.4385 12.8541 31.8535L15.3741 29.3335C15.8991 28.8085 16.7391 28.7485 17.3241 29.1985L19.8891 31.1185C20.8791 31.8535 22.2891 31.1485 22.2891 29.9185V4.41846C22.2891 2.76846 23.6391 1.41846 25.2891 1.41846H8.78906H7.28906C2.78906 1.41846 1.28906 4.10346 1.28906 7.41846V8.91846" stroke="black" stroke-width="2" stroke-miterlimit="10" stroke-linecap="round" stroke-linejoin="round"/>
<path d="M7.2832 17.9185H7.29669" stroke="black" stroke-width="2" stroke-linecap="round" stroke-linejoin="round"/>
<path d="M7.28125 11.9185H7.29472" stroke="black" stroke-width="2" stroke-linecap="round" stroke-linejoin="round"/>
</svg>
