<svg width="33" height="34" viewBox="0 0 33 34" fill="none" xmlns="http://www.w3.org/2000/svg">
<path d="M31.5938 7.33691V10.9669C31.5938 13.3369 30.0938 14.8369 27.7238 14.8369H22.5938V4.35191C22.5938 2.68691 23.9588 1.33691 25.6238 1.33691C27.2588 1.35191 28.7587 2.01191 29.8387 3.09191C30.9187 4.18691 31.5938 5.68691 31.5938 7.33691Z" stroke="black" stroke-width="2" stroke-miterlimit="10" stroke-linecap="round" stroke-linejoin="round"/>
<path d="M12.0938 17.8516H16.5938" stroke="black" stroke-width="2" stroke-linecap="round" stroke-linejoin="round"/>
<path d="M12.0938 11.8516H16.5938" stroke="black" stroke-width="2" stroke-linecap="round" stroke-linejoin="round"/>
<path d="M1.59375 14.8369V29.8369C1.59375 31.0819 3.00375 31.7869 3.99375 31.0369L6.55875 29.1169C7.15875 28.6669 7.99875 28.7269 8.53875 29.2669L11.0287 31.7719C11.6137 32.3569 12.5738 32.3569 13.1588 31.7719L15.6788 29.2519C16.2038 28.7269 17.0437 28.6669 17.6287 29.1169L20.1937 31.0369C21.1837 31.7719 22.5938 31.0669 22.5938 29.8369V4.33691C22.5938 2.68691 23.9437 1.33691 25.5938 1.33691H9.09375H7.59375C3.09375 1.33691 1.59375 4.02191 1.59375 7.33691V8.83691" stroke="black" stroke-width="2" stroke-miterlimit="10" stroke-linecap="round" stroke-linejoin="round"/>
<path d="M7.58789 17.8369H7.60138" stroke="black" stroke-width="2" stroke-linecap="round" stroke-linejoin="round"/>
<path d="M7.58594 11.8369H7.59941" stroke="black" stroke-width="2" stroke-linecap="round" stroke-linejoin="round"/>
</svg>
