<svg width="33" height="34" viewBox="0 0 33 34" fill="none" xmlns="http://www.w3.org/2000/svg">
<path d="M16.282 26.3898C19.6792 26.3898 22.4332 23.6357 22.4332 20.2386C22.4332 16.8413 19.6792 14.0874 16.282 14.0874C12.8848 14.0874 10.1309 16.8413 10.1309 20.2386C10.1309 23.6357 12.8848 26.3898 16.282 26.3898Z" stroke="black" stroke-width="2" stroke-miterlimit="10" stroke-linecap="round" stroke-linejoin="round"/>
<path d="M13.8828 20.3928L14.8824 21.3923C15.1746 21.6845 15.6513 21.6845 15.9435 21.4077L18.6807 18.8857" stroke="black" stroke-width="2" stroke-linecap="round" stroke-linejoin="round"/>
<path d="M30.6929 19.9313L31.2158 14.4413C31.6156 10.6891 30.5391 7.62891 23.9728 7.62891H8.59482C2.02844 7.62891 0.951983 10.6891 1.36719 14.4413L2.52053 26.7437C2.84347 29.7578 3.95068 32.2336 10.1326 32.2336H22.435C28.6169 32.2336 29.7241 29.7578 30.0471 26.7437" stroke="black" stroke-width="2" stroke-miterlimit="10" stroke-linecap="round" stroke-linejoin="round"/>
<path d="M10.1309 7.62872V6.39848C10.1309 3.67658 10.1309 1.47754 15.0518 1.47754H17.5123C22.4332 1.47754 22.4332 3.67658 22.4332 6.39848V7.62872" stroke="black" stroke-width="2" stroke-miterlimit="10" stroke-linecap="round" stroke-linejoin="round"/>
<path d="M31.1224 15.3179C28.462 17.2555 25.5094 18.6088 22.4492 19.3776" stroke="black" stroke-width="2" stroke-miterlimit="10" stroke-linecap="round" stroke-linejoin="round"/>
<path d="M1.85742 15.7334C4.42554 17.4865 7.22432 18.7321 10.1308 19.4395" stroke="black" stroke-width="2" stroke-miterlimit="10" stroke-linecap="round" stroke-linejoin="round"/>
</svg>
