<svg width="33" height="27" viewBox="0 0 33 27" fill="none" xmlns="http://www.w3.org/2000/svg">
<path d="M30.2704 13.7236C32.0255 11.9685 31.4555 10.1983 29.0103 9.7783L25.185 9.14826C24.54 9.04325 23.7749 8.47323 23.4899 7.88819L21.3748 3.65789C20.2347 1.36273 18.3596 1.36273 17.2195 3.65789L15.1044 7.88819C14.8193 8.47323 14.0543 9.02825 13.4092 9.14826L9.58402 9.7783C7.13886 10.1833 6.56882 11.9535 8.32394 13.7236L11.3091 16.7088C11.8042 17.2038 12.0892 18.1789 11.9242 18.8839L11.0691 22.5742C10.3941 25.4844 11.9542 26.6244 14.5193 25.0943L18.1046 22.9642C18.7496 22.5742 19.8297 22.5742 20.4747 22.9642L24.06 25.0943C26.6251 26.6094 28.1852 25.4844 27.5102 22.5742L26.6551 18.8839" stroke="black" stroke-width="2" stroke-linecap="round" stroke-linejoin="round"/>
<path d="M10.2897 3.35742H1.28906" stroke="black" stroke-width="2" stroke-linecap="round" stroke-linejoin="round"/>
<path d="M5.78937 24.3589H1.28906" stroke="black" stroke-width="2" stroke-linecap="round" stroke-linejoin="round"/>
<path d="M2.78916 13.8584H1.28906" stroke="black" stroke-width="2" stroke-linecap="round" stroke-linejoin="round"/>
</svg>
