<svg width="31" height="32" viewBox="0 0 31 32" fill="none" xmlns="http://www.w3.org/2000/svg">
<path d="M1.47461 18.542V21.5726C1.47461 27.3727 2.92464 30.2728 10.1748 30.2728H18.875C26.1252 30.2728 27.5752 27.3727 27.5752 21.5726V17.2734" stroke="black" stroke-width="2" stroke-miterlimit="10" stroke-linecap="round" stroke-linejoin="round"/>
<path d="M1.47461 12.8724C1.47461 6.26022 3.89617 4.46218 8.72479 4.20117" stroke="black" stroke-width="2" stroke-miterlimit="10" stroke-linecap="round" stroke-linejoin="round"/>
<path d="M13.0167 1.27344H11.6247C10.1746 1.27344 8.72461 1.27344 8.72461 4.17351C8.72461 7.07358 10.1746 7.07358 11.6247 7.07358H17.4248C20.3249 7.07358 20.3249 5.62354 20.3249 4.17351C20.3249 1.27344 18.8749 1.27344 17.4248 1.27344" stroke="black" stroke-width="2" stroke-miterlimit="10" stroke-linecap="round" stroke-linejoin="round"/>
<path d="M8.72461 21.8633H15.0758" stroke="black" stroke-width="2" stroke-miterlimit="10" stroke-linecap="round" stroke-linejoin="round"/>
<path d="M8.72461 16.0625H18.8749" stroke="black" stroke-width="2" stroke-miterlimit="10" stroke-linecap="round" stroke-linejoin="round"/>
<path d="M27.3992 6.44644C29.1664 5.85735 30.1266 6.82216 29.5422 8.58944L28.2295 12.5275C27.3481 15.1761 25.9009 15.1761 25.0196 12.5275L24.63 11.3586L23.4611 10.969C20.8125 10.0877 20.8125 8.6451 23.4611 7.75914L27.3992 6.44644Z" stroke="black" stroke-width="1.5" stroke-linecap="round" stroke-linejoin="round"/>
<path d="M24.7168 11.1594L26.3774 9.49414" stroke="black" stroke-width="1.5" stroke-linecap="round" stroke-linejoin="round"/>
</svg>
