<svg width="33" height="33" viewBox="0 0 33 33" fill="none" xmlns="http://www.w3.org/2000/svg">
<path d="M1.59375 4.9984C1.59375 2.85345 2.67376 1.77344 4.81872 1.77344H11.2686C13.4135 1.77344 14.4935 2.85345 14.4935 4.9984V7.77332" stroke="#292D32" stroke-width="2" stroke-miterlimit="10" stroke-linecap="round" stroke-linejoin="round"/>
<path d="M8.64363 25.7748H4.81872C2.67376 25.7748 1.59375 24.6946 1.59375 22.5497V10.835" stroke="#292D32" stroke-width="2" stroke-miterlimit="10" stroke-linecap="round" stroke-linejoin="round"/>
<path d="M24.6472 11.4033V28.143C24.6472 30.558 23.4473 31.773 21.0323 31.773H12.2725C9.85752 31.773 8.64258 30.558 8.64258 28.143V11.4033C8.64258 8.98838 9.85752 7.77344 12.2725 7.77344H21.0323C23.4473 7.77344 24.6472 8.98838 24.6472 11.4033Z" stroke="#292D32" stroke-width="2" stroke-miterlimit="10" stroke-linecap="round" stroke-linejoin="round"/>
<path d="M18.6934 7.77332V4.9984C18.6934 2.85345 19.7733 1.77344 21.9183 1.77344H28.368C30.513 1.77344 31.5931 2.85345 31.5931 4.9984V22.548C31.5931 24.693 30.513 25.773 28.368 25.773H24.6482" stroke="#292D32" stroke-width="2" stroke-miterlimit="10" stroke-linecap="round" stroke-linejoin="round"/>
<path d="M13.5938 15.2734H19.5936" stroke="#292D32" stroke-width="2" stroke-miterlimit="10" stroke-linecap="round" stroke-linejoin="round"/>
<path d="M13.5938 19.7734H19.5936" stroke="#292D32" stroke-width="2" stroke-miterlimit="10" stroke-linecap="round" stroke-linejoin="round"/>
<path d="M16.5938 31.7724V27.2725" stroke="#292D32" stroke-width="2" stroke-miterlimit="10" stroke-linecap="round" stroke-linejoin="round"/>
</svg>
