<svg width="33" height="33" viewBox="0 0 33 33" fill="none" xmlns="http://www.w3.org/2000/svg">
<path d="M1.28906 5.08092C1.28906 2.93597 2.36907 1.85596 4.51403 1.85596H10.9639C13.1088 1.85596 14.1888 2.93597 14.1888 5.08092V7.85584" stroke="#292D32" stroke-width="2" stroke-miterlimit="10" stroke-linecap="round" stroke-linejoin="round"/>
<path d="M8.33894 25.8573H4.51403C2.36907 25.8573 1.28906 24.7771 1.28906 22.6322V10.9175" stroke="#292D32" stroke-width="2" stroke-miterlimit="10" stroke-linecap="round" stroke-linejoin="round"/>
<path d="M24.3425 11.4859V28.2256C24.3425 30.6405 23.1426 31.8555 20.7276 31.8555H11.9678C9.55284 31.8555 8.33789 30.6405 8.33789 28.2256V11.4859C8.33789 9.0709 9.55284 7.85596 11.9678 7.85596H20.7276C23.1426 7.85596 24.3425 9.0709 24.3425 11.4859Z" stroke="#292D32" stroke-width="2" stroke-miterlimit="10" stroke-linecap="round" stroke-linejoin="round"/>
<path d="M18.3887 7.85584V5.08092C18.3887 2.93597 19.4687 1.85596 21.6136 1.85596H28.0633C30.2083 1.85596 31.2884 2.93597 31.2884 5.08092V22.6306C31.2884 24.7755 30.2083 25.8555 28.0633 25.8555H24.3436" stroke="#292D32" stroke-width="2" stroke-miterlimit="10" stroke-linecap="round" stroke-linejoin="round"/>
<path d="M13.2891 15.3555H19.2889" stroke="#292D32" stroke-width="2" stroke-miterlimit="10" stroke-linecap="round" stroke-linejoin="round"/>
<path d="M13.2891 19.8555H19.2889" stroke="#292D32" stroke-width="2" stroke-miterlimit="10" stroke-linecap="round" stroke-linejoin="round"/>
<path d="M16.2891 31.8554V27.3555" stroke="#292D32" stroke-width="2" stroke-miterlimit="10" stroke-linecap="round" stroke-linejoin="round"/>
</svg>
