<svg width="34" height="32" viewBox="0 0 34 32" fill="none" xmlns="http://www.w3.org/2000/svg">
<path d="M1.78906 18.6245V21.6551C1.78906 27.4552 3.2391 30.3553 10.4893 30.3553H19.1895C26.4397 30.3553 27.8897 27.4552 27.8897 21.6551V17.356" stroke="black" stroke-width="2" stroke-miterlimit="10" stroke-linecap="round" stroke-linejoin="round"/>
<path d="M27.7891 14.356C30.5391 14.356 32.7891 12.106 32.7891 9.35596C32.7891 6.60596 30.5391 4.35596 27.7891 4.35596C25.0391 4.35596 22.7891 6.60596 22.7891 9.35596C22.7891 12.106 25.0391 14.356 27.7891 14.356Z" stroke="black" stroke-width="2" stroke-linecap="round" stroke-linejoin="round"/>
<path d="M25.6641 9.35688L27.0791 10.7719L29.9141 7.94189" stroke="black" stroke-width="2" stroke-linecap="round" stroke-linejoin="round"/>
<path d="M1.78906 12.9549C1.78906 6.34274 4.21062 4.5447 9.03924 4.28369" stroke="black" stroke-width="2" stroke-miterlimit="10" stroke-linecap="round" stroke-linejoin="round"/>
<path d="M13.3312 1.35596H11.9391C10.4891 1.35596 9.03906 1.35596 9.03906 4.25603C9.03906 7.1561 10.4891 7.1561 11.9391 7.1561H17.7393C20.6393 7.1561 20.6393 5.70606 20.6393 4.25603C20.6393 1.35596 19.1893 1.35596 17.7393 1.35596" stroke="black" stroke-width="2" stroke-miterlimit="10" stroke-linecap="round" stroke-linejoin="round"/>
<path d="M9.03906 21.9458H15.3902" stroke="black" stroke-width="2" stroke-miterlimit="10" stroke-linecap="round" stroke-linejoin="round"/>
<path d="M9.03906 16.145H19.1893" stroke="black" stroke-width="2" stroke-miterlimit="10" stroke-linecap="round" stroke-linejoin="round"/>
</svg>
