<svg width="33" height="31" viewBox="0 0 33 31" fill="none" xmlns="http://www.w3.org/2000/svg">
<path d="M21.083 15.7739C21.083 13.2853 19.0741 11.2764 16.5854 11.2764C14.0968 11.2764 12.0879 13.2853 12.0879 15.7739C12.0879 18.2626 14.0968 20.2715 16.5854 20.2715C17.2001 20.2715 17.7998 20.1515 18.3395 19.9117" stroke="black" stroke-width="2" stroke-miterlimit="10" stroke-linecap="round" stroke-linejoin="round"/>
<path d="M8.91016 28.6367L10.5443 29.5812C11.7286 30.2858 13.2578 29.866 13.9625 28.6817L14.1274 28.3968C15.4766 26.0431 17.6954 26.0431 19.0597 28.3968L19.2246 28.6817C19.9292 29.866 21.4584 30.2858 22.6427 29.5812L25.2363 28.097C26.6006 27.3174 27.0653 25.5634 26.2857 24.2141C24.9215 21.8604 26.0309 19.9414 28.7444 19.9414C30.3036 19.9414 31.5929 18.6671 31.5929 17.093V14.4544C31.5929 12.8953 30.3186 11.6059 28.7444 11.6059C27.2302 11.6059 26.2108 11.0062 25.851 10.0618C25.5661 9.32716 25.6861 8.36769 26.2857 7.33325C27.0653 5.96899 26.6006 4.22994 25.2363 3.45037L24.022 2.76074" stroke="black" stroke-width="2" stroke-miterlimit="10" stroke-linecap="round" stroke-linejoin="round"/>
<path d="M19.0442 3.14959C17.695 5.50331 15.4762 5.50331 14.1119 3.14959L13.947 2.86474C13.2574 1.68039 11.7282 1.26062 10.5439 1.96524L7.95028 3.44943C6.58603 4.229 6.12128 5.98305 6.90086 7.3473C8.26511 9.68603 7.15572 11.605 4.4422 11.605C2.88305 11.605 1.59375 12.8792 1.59375 14.4534V17.0919C1.59375 18.6511 2.86806 19.9404 4.4422 19.9404C7.15572 19.9404 8.26511 21.8593 6.90086 24.213" stroke="black" stroke-width="2" stroke-miterlimit="10" stroke-linecap="round" stroke-linejoin="round"/>
</svg>
