<svg width="126" height="127" viewBox="0 0 126 127" fill="none" xmlns="http://www.w3.org/2000/svg">
<path d="M124 115.917L113 127L113 104L124 115.917Z" fill="#BB3B5A"/>
<path d="M12 3L22.3923 13.5H1.6077L12 3Z" fill="#BB3B5A"/>
<path d="M11 3H56.8108L124 71.6452V117L11 3Z" fill="#EC4B72"/>
<path d="M38.0117 19.2501C37.2571 18.4832 36.8309 17.6566 36.7331 16.7703C36.605 15.5756 37.0105 14.5032 37.9495 13.5532C38.343 13.153 38.8198 12.7912 39.3799 12.4678C39.805 12.2187 40.2643 11.9978 40.7577 11.805C40.8992 11.7504 41.0385 11.7532 41.1758 11.8133C41.3163 11.8767 41.4139 11.9792 41.4685 12.1207C41.5231 12.2621 41.5203 12.4015 41.4602 12.5387C41.3967 12.6792 41.2943 12.7768 41.1528 12.8314C40.8008 12.9696 40.465 13.1243 40.1455 13.2955C39.7042 13.5346 39.3216 13.7971 38.9979 14.0831C38.1162 14.8467 37.7255 15.7027 37.8261 16.6513C37.8994 17.3209 38.2549 17.9632 38.8927 18.5784C39.5338 19.1903 40.218 19.545 40.9453 19.6427C41.6528 19.7403 42.3795 19.5002 43.1254 18.9225C43.4223 18.6953 43.7395 18.4027 44.0769 18.0447C44.2126 17.8983 44.3615 17.7322 44.5237 17.5466L44.7421 17.3024L44.9556 17.0532C45.2205 16.7406 45.4158 16.5126 45.5416 16.3693C46.2265 15.6173 47.2343 14.4825 48.5649 12.9651C48.982 12.4896 49.4073 12.0028 49.8409 11.5046C49.9766 11.3515 50.1057 11.205 50.2282 11.065C50.2679 11.0194 50.3043 10.977 50.3374 10.9379L50.3672 10.9087L50.3722 10.894L50.3772 10.8891C50.4798 10.7751 50.6049 10.7138 50.7525 10.7052C50.9067 10.6966 51.0408 10.7403 51.1548 10.8363C51.2688 10.9389 51.3317 11.0657 51.3436 11.2166C51.3555 11.3676 51.3102 11.5 51.2076 11.614L51.1927 11.6286C51.1828 11.6384 51.1745 11.6498 51.1678 11.6629C51.1347 11.7019 51.0983 11.7443 51.0586 11.7899C50.9361 11.9299 50.8054 12.0781 50.6664 12.2343C50.2327 12.7326 49.8074 13.2194 49.3903 13.6949C48.0532 15.2123 47.0421 16.3503 46.3571 17.1088C46.238 17.2456 46.0493 17.4638 45.7911 17.7634L45.3243 18.3008C45.1456 18.5092 44.9785 18.6931 44.823 18.8526C44.4361 19.2594 44.0693 19.5942 43.7229 19.857C42.7594 20.5773 41.7847 20.8695 40.7987 20.7336C39.8454 20.6046 38.9603 20.1547 38.1434 19.384L38.0117 19.2501ZM47.8628 22.7949C47.775 22.6991 47.6971 22.6066 47.6289 22.5175C47.4471 22.293 47.3095 22.0706 47.2162 21.8501C46.9459 21.2051 47.0201 20.5531 47.4386 19.8941C47.6413 19.571 48.407 18.759 49.7359 17.458L50.2119 16.9896L50.6879 16.5212C51.045 16.1633 51.3575 15.8461 51.6253 15.5695C52.3066 14.8601 52.818 14.2789 53.1594 13.8258C53.249 13.7052 53.3692 13.6356 53.5202 13.6172C53.6713 13.5922 53.8071 13.6244 53.9277 13.7139C54.0483 13.81 54.1195 13.9319 54.1412 14.0797C54.163 14.2274 54.1275 14.3632 54.0346 14.4871C53.6766 14.9696 53.1453 15.5769 52.4409 16.3091C52.1664 16.5922 51.8456 16.9175 51.4786 17.2851L49.8126 18.9245C49.5613 19.1717 49.3481 19.3848 49.1728 19.5637C48.7429 20.0063 48.4748 20.3124 48.3685 20.482C48.1592 20.8116 48.1092 21.1178 48.2184 21.4007C48.2987 21.608 48.5178 21.8934 48.8756 22.257C48.9797 22.3628 49.0311 22.4911 49.0299 22.642C49.0319 22.7961 48.9784 22.9269 48.8693 23.0342C48.7602 23.1416 48.6286 23.193 48.4745 23.1884C48.3237 23.1872 48.1962 23.1337 48.0921 23.0279L47.8628 22.7949ZM52.7023 21.3357C52.5021 22.5737 52.482 23.641 52.642 24.5376C53.4146 24.7078 54.1325 24.7431 54.7958 24.6435C55.3014 24.5689 55.6078 24.3976 55.7149 24.1295C55.7717 23.9955 55.7599 23.8347 55.6794 23.6472C55.6505 23.5715 55.6118 23.4958 55.5632 23.4199C55.5276 23.3573 55.4871 23.2963 55.4417 23.2369C54.7667 22.3592 53.8536 21.7254 52.7023 21.3357ZM53.7294 28.767C52.7308 27.7521 52.0593 26.6399 51.7149 25.4303C51.5448 25.3764 51.3764 25.3177 51.2097 25.254C50.18 24.8423 49.1252 24.0877 48.0453 22.9902C47.9379 22.8812 47.8849 22.7512 47.8861 22.6003C47.8873 22.4495 47.9425 22.3204 48.0516 22.2131C48.1606 22.1057 48.2906 22.0527 48.4415 22.0539C48.5923 22.0551 48.7214 22.1103 48.8287 22.2193C49.759 23.1648 50.6408 23.8163 51.4742 24.174C51.3643 23.163 51.4496 21.947 51.73 20.526C51.7607 20.3721 51.8437 20.2514 51.9789 20.164C52.1107 20.0798 52.2552 20.058 52.4123 20.0986C54.0845 20.5352 55.3847 21.3574 56.3129 22.5651C56.6179 22.9677 56.7934 23.3676 56.8394 23.7648C56.8546 23.919 56.8517 24.0682 56.8309 24.2123C56.8103 24.3237 56.7782 24.4333 56.7347 24.5411C56.4737 25.1949 55.8818 25.5919 54.9591 25.732C54.3385 25.8286 53.6778 25.8249 52.9768 25.7209C53.2983 26.5237 53.8103 27.2821 54.5129 27.9961C54.6202 28.1052 54.6733 28.2352 54.6721 28.386C54.6708 28.5369 54.6157 28.6659 54.5066 28.7733C54.3975 28.8806 54.2675 28.9337 54.1167 28.9325C53.9658 28.9312 53.8368 28.8761 53.7294 28.767ZM60.6143 26.5597C60.5655 26.5101 60.5117 26.4687 60.4529 26.4354C60.2439 26.3288 59.9768 26.3053 59.6517 26.365C59.3298 26.428 59.0171 26.5632 58.7138 26.7706C58.3213 27.0462 58.1416 27.3628 58.1748 27.7206C58.2049 28.0553 58.3923 28.4077 58.7369 28.7778C59.0489 29.1214 59.4026 29.385 59.798 29.5685C60.1054 29.2595 60.3559 28.9057 60.5493 28.5071C60.7495 28.089 60.851 27.6963 60.854 27.329C60.8568 26.9814 60.7769 26.725 60.6143 26.5597ZM53.7488 28.7867C53.6414 28.6776 53.5884 28.5476 53.5896 28.3968C53.5908 28.2459 53.646 28.1168 53.7551 28.0095C53.8641 27.9022 53.9941 27.8491 54.145 27.8503C54.2958 27.8515 54.4249 27.9067 54.5322 28.0158L54.8787 28.3678C55.0283 28.5134 55.1699 28.6473 55.3034 28.7697C55.6549 29.094 55.9889 29.3672 56.3052 29.5895C57.1759 30.1901 57.9398 30.4242 58.5967 30.2918C58.6526 30.2824 58.7101 30.2681 58.7693 30.2489C58.3159 29.9468 57.94 29.5912 57.6416 29.1822C57.3074 28.7302 57.1193 28.2745 57.0771 27.815C57.0469 27.4868 57.0954 27.1756 57.2223 26.8815C57.3829 26.4958 57.6709 26.1571 58.0865 25.8653C58.5647 25.538 59.0664 25.3371 59.5917 25.2626C60.1105 25.1881 60.569 25.2574 60.9674 25.4705C61.0785 25.5238 61.1828 25.5936 61.2805 25.6796C61.401 25.7822 61.5083 25.9012 61.6023 26.0364C61.8422 26.386 61.9584 26.8181 61.9509 27.333C61.9472 28.1954 61.6289 29.0389 60.9958 29.8635C60.3495 30.7077 59.6223 31.2117 58.8143 31.3758C57.8945 31.5585 56.9013 31.2996 55.8346 30.599C55.4758 30.36 55.1011 30.0651 54.7104 29.7143C54.4466 29.4794 54.1261 29.1701 53.7488 28.7867ZM63.6917 24.3611C63.5265 24.5237 63.3159 24.6073 63.0601 24.6118C62.8043 24.6097 62.6016 24.5326 62.452 24.3806C62.2958 24.2219 62.1927 23.9915 62.1427 23.6894C62.1546 23.4304 62.2433 23.2196 62.4085 23.057C62.554 22.9139 62.7628 22.8418 63.035 22.8407C63.3138 22.8397 63.5296 22.9168 63.6825 23.0722C63.8354 23.2276 63.9156 23.4381 63.9233 23.7038C63.9309 23.9826 63.8537 24.2017 63.6917 24.3611ZM62.3587 44.093C61.8577 43.5839 61.4508 43.0149 61.1377 42.386C60.7601 41.6385 60.5806 40.9205 60.5993 40.232C60.6269 39.2549 61.0437 38.4024 61.8497 37.6743C62.19 37.3655 62.6601 37.0299 63.2598 36.6674C63.4939 36.5217 63.7657 36.3649 64.0753 36.1968L64.8857 35.7508C65.1392 35.6184 65.3237 35.5215 65.4389 35.4601C65.5708 35.3825 65.7103 35.3656 65.8575 35.4094C66.0047 35.4532 66.1139 35.541 66.1849 35.6728C66.2593 35.8078 66.2762 35.9473 66.2357 36.0913C66.1918 36.2385 66.1024 36.3493 65.9673 36.4236C65.8521 36.485 65.6643 36.5852 65.4041 36.7241L65.2263 36.821L65.0386 36.9179L64.6531 37.1312C64.3665 37.2896 64.1128 37.4351 63.8921 37.5678C63.3154 37.914 62.88 38.2221 62.5859 38.4919C62.0144 39.0087 61.7178 39.5999 61.696 40.2654C61.6852 40.7901 61.838 41.3554 62.1545 41.9613C62.4161 42.4652 62.7453 42.9188 63.1421 43.3221C63.913 44.1055 64.753 44.6584 65.6621 44.9805C66.0315 45.118 66.3622 45.1862 66.6541 45.1853C66.9427 45.1876 67.1531 45.1238 67.2853 44.9936C67.3712 44.9091 67.3974 44.7142 67.3638 44.4089C67.3455 44.2382 67.3046 44.0247 67.2411 43.7684L67.1455 43.4233L67.045 43.0732L66.8538 42.383C66.787 42.1299 66.7412 41.9082 66.7165 41.7178C66.6854 41.5142 66.6736 41.3502 66.6812 41.2256C66.6925 41.0453 66.7461 40.8982 66.8422 40.7842C66.8753 40.7385 66.915 40.6995 66.9612 40.6671C67.0007 40.6412 67.0402 40.6218 67.0797 40.609C67.2837 40.5254 67.4868 40.55 67.6891 40.6828C67.7641 40.7326 67.8374 40.7971 67.9089 40.8764L68.0016 40.9706L68.0697 41.0597C68.1932 41.205 68.4154 41.5036 68.7364 41.9555L68.9504 42.2524C69.0348 42.3711 69.1126 42.48 69.1839 42.5789C69.3656 42.8231 69.5343 43.0474 69.6901 43.252C70.1055 43.7866 70.4938 44.2374 70.8548 44.6044C70.9622 44.7135 71.0152 44.8434 71.014 44.9943C71.0128 45.1451 70.9576 45.2742 70.8486 45.3815C70.7395 45.4889 70.6095 45.5419 70.4587 45.5407C70.3078 45.5395 70.1787 45.4844 70.0714 45.3753C69.7494 45.048 69.413 44.6665 69.0624 44.2308C68.8026 43.9073 68.4508 43.4142 68.0069 42.7514C68.3114 43.6164 68.4688 44.226 68.4791 44.5802C68.4881 45.0919 68.3471 45.4909 68.0562 45.7771C67.4678 46.3561 66.5848 46.4506 65.4074 46.0607C64.3052 45.6943 63.2889 45.0384 62.3587 44.093ZM76.2262 44.6577C76.1481 44.5784 76.0306 44.5151 75.8736 44.4679C75.2847 44.2926 74.567 44.4295 73.7206 44.8785C73.1541 45.1756 72.6691 45.539 72.2655 45.9686C72.5327 46.1872 72.787 46.3664 73.0286 46.506C73.8055 46.9518 74.5168 46.9936 75.1625 46.6315C75.482 46.4537 75.7646 46.1822 76.0102 45.8169C76.2526 45.4482 76.3601 45.1376 76.3326 44.8848L76.328 44.8405L76.3088 44.7813C76.2928 44.7386 76.2652 44.6974 76.2262 44.6577ZM70.3839 51.7531C70.3351 51.7035 70.2979 51.6491 70.2721 51.5899C69.9564 50.8921 69.852 50.0058 69.9591 48.931C70.0628 47.866 70.3442 46.9287 70.8033 46.1191C70.7122 46.0331 70.613 45.9356 70.5056 45.8265L70.2275 45.5439C70.1202 45.4282 70.0406 45.3439 69.9885 45.291C69.8812 45.182 69.8281 45.052 69.8293 44.9011C69.8305 44.7503 69.8857 44.6212 69.9948 44.5139C70.1006 44.4098 70.2305 44.3567 70.3847 44.3547C70.5355 44.3559 70.6646 44.4111 70.772 44.5201L70.8939 44.6441L71.0207 44.7829L71.455 45.2242C71.9478 44.7002 72.5302 44.2605 73.2021 43.9052C74.3153 43.3174 75.3103 43.1549 76.187 43.4177C76.6189 43.5393 76.9419 43.7518 77.1559 44.0552C77.2369 44.1707 77.3015 44.2958 77.3496 44.4306C77.3848 44.5392 77.4101 44.6509 77.4256 44.7658C77.4806 45.2712 77.3237 45.8094 76.9551 46.3804C76.6097 46.9154 76.1916 47.3203 75.7007 47.5951C74.6894 48.1543 73.6174 48.1095 72.4847 47.4609C72.2137 47.3046 71.9316 47.1104 71.6384 46.8785C71.1782 47.8193 70.9732 48.831 71.0235 49.9136C71.4865 49.432 72.0565 49.1119 72.7333 48.9534C73.3412 48.8042 73.9364 48.8106 74.5188 48.9728C75.098 49.1316 75.599 49.4259 76.0219 49.8556C76.126 49.9614 76.179 50.0913 76.181 50.2455C76.1765 50.3996 76.1214 50.5287 76.0156 50.6328C75.9065 50.7401 75.7765 50.7932 75.6257 50.792C75.4716 50.7874 75.3425 50.7323 75.2384 50.6265C74.9522 50.3356 74.6111 50.1377 74.2151 50.0328C73.8159 49.9247 73.4076 49.9197 72.9903 50.018C72.5796 50.1164 72.224 50.3004 71.9233 50.5702C71.626 50.8367 71.4185 51.158 71.3007 51.5342C71.2233 51.773 71.0583 51.8996 70.8057 51.9139C70.6384 51.9224 70.4978 51.8688 70.3839 51.7531ZM75.2173 50.605C75.1099 50.4959 75.0569 50.3659 75.0581 50.2151C75.0593 50.0642 75.1144 49.9352 75.2235 49.8278C75.3326 49.7205 75.4626 49.6674 75.6134 49.6686C75.7643 49.6699 75.8934 49.725 76.0007 49.8341L76.2008 50.0374L76.4302 50.2606C76.6025 50.4358 76.7653 50.5913 76.9183 50.727C77.3025 51.0711 77.6561 51.3413 77.9792 51.5374C78.7071 51.9663 79.3966 52.0686 80.0477 51.8443C80.7088 51.6102 81.1069 50.8379 81.2421 49.5272C81.3628 48.3869 81.2779 47.3319 80.9873 46.3621C80.9459 46.2142 80.9601 46.0733 81.0301 45.9394C81.1 45.8055 81.2089 45.7179 81.3568 45.6764C81.5015 45.6317 81.6408 45.6443 81.7747 45.7142C81.9085 45.7907 81.9978 45.9013 82.0425 46.046C82.1799 46.5029 82.2772 47.0448 82.3344 47.6717C82.4041 48.3773 82.4053 49.0463 82.3379 49.6787C82.1466 51.4284 81.5051 52.4956 80.4132 52.8803C79.4364 53.2233 78.4373 53.0906 77.4157 52.4822C77.0371 52.2561 76.6378 51.9528 76.2179 51.5723C76.0518 51.4234 75.8728 51.2547 75.6808 51.0662L75.4319 50.8232L75.2173 50.605ZM81.3002 44.7758C81.118 44.5906 81.0836 44.3805 81.1971 44.1453C81.2637 44.0081 81.3694 43.9171 81.5141 43.8724C81.6588 43.8211 81.7981 43.8304 81.932 43.9003C84.7574 45.2972 87.2303 46.0912 89.3505 46.2821C89.5013 46.2965 89.6253 46.3631 89.7228 46.4819C89.8169 46.5974 89.8585 46.7322 89.8474 46.8863C89.8331 47.037 89.7681 47.1595 89.6526 47.2536C89.5337 47.3511 89.3989 47.3926 89.2482 47.3783C87.8292 47.252 86.4395 46.9506 85.0791 46.4739C84.1242 46.1382 82.9135 45.6086 81.4469 44.8852C81.3914 44.8552 81.3425 44.8187 81.3002 44.7758ZM83.7079 43.285C83.5777 43.1528 83.5511 43.0001 83.6279 42.8269C83.6513 42.7779 83.6811 42.7355 83.7175 42.6997C83.7572 42.6607 83.805 42.6299 83.8609 42.6074C83.9662 42.5689 84.0711 42.573 84.1756 42.6198C85.2963 43.1372 86.7157 43.6143 88.4339 44.0513C88.5092 44.0683 88.5729 44.1032 88.6249 44.1561C88.6477 44.1792 88.6688 44.2073 88.6882 44.2402C88.7464 44.3391 88.7603 44.4425 88.7299 44.5505C88.7129 44.6258 88.678 44.6894 88.6251 44.7415C88.602 44.7643 88.5739 44.7853 88.541 44.8048C88.4421 44.863 88.3387 44.8769 88.2307 44.8465C86.4634 44.3993 84.9982 43.9087 83.835 43.3746C83.786 43.3512 83.7436 43.3214 83.7079 43.285ZM83.2437 59.2284C83.1495 59.1063 83.108 58.9747 83.119 58.8338C83.1267 58.6896 83.185 58.5769 83.2939 58.4958C84.4291 57.6195 85.5376 56.5971 86.6194 55.4285C87.2843 54.7157 88.256 53.5774 89.5345 52.0136C89.624 51.9061 89.7408 51.8497 89.8852 51.8443C90.0262 51.8421 90.1554 51.8907 90.2726 51.99C90.3866 52.0861 90.4529 52.2063 90.4714 52.3508C90.4965 52.4952 90.4643 52.6212 90.3749 52.7287C87.8577 55.7976 85.7279 58.0039 83.9855 59.3475C83.8832 59.4287 83.7649 59.4605 83.6305 59.443C83.4995 59.4288 83.3852 59.3722 83.2876 59.273L83.2437 59.2284ZM89.2568 49.8666C89.1787 49.7873 89.1286 49.6934 89.1065 49.585C89.0782 49.4372 89.1072 49.3013 89.1935 49.1774C89.2798 49.0469 89.3968 48.9675 89.5446 48.9392L89.6628 48.9205L89.786 48.8969C89.8846 48.878 89.9765 48.8656 90.0618 48.8598C90.2751 48.8385 90.4735 48.8418 90.6569 48.8695C91.145 48.9423 91.5397 49.198 91.8412 49.6366C91.9319 49.7685 92.029 49.93 92.1324 50.121L92.2729 50.3829L92.4036 50.6545L92.5633 50.9755C92.6247 51.0908 92.6796 51.1929 92.7281 51.2819C92.8509 51.4993 92.9627 51.6658 93.0635 51.7814C93.4177 52.1811 93.9051 52.3326 94.5257 52.2359C94.6768 52.2109 94.8142 52.2448 94.9381 52.3377C95.0587 52.4272 95.1315 52.5475 95.1565 52.6985C95.1783 52.8463 95.1428 52.9821 95.0499 53.106C94.9637 53.2299 94.845 53.3011 94.694 53.3195C93.6728 53.4785 92.8552 53.2096 92.241 52.5126C92.098 52.3475 91.9505 52.1348 91.7985 51.8745C91.7403 51.7691 91.6757 51.6472 91.6047 51.5089L91.4158 51.1384C91.2029 50.7038 91.0429 50.4123 90.9359 50.2639C90.8225 50.0957 90.6872 49.9946 90.5301 49.9605C90.3762 49.9298 90.1169 49.9506 89.7523 50.0231C89.5618 50.0609 89.3966 50.0087 89.2568 49.8666ZM89.9246 72.5643C89.261 71.89 88.8029 71.1566 88.5502 70.3642C88.0481 68.7893 88.3726 67.3867 89.5238 66.1563C90.0101 65.6323 90.6255 65.1699 91.3698 64.7693C91.9331 64.4623 92.5518 64.1984 93.2258 63.9776C93.3705 63.9328 93.5098 63.9454 93.6437 64.0154C93.7809 64.0821 93.8718 64.1877 93.9166 64.3324C93.9646 64.4804 93.9536 64.6213 93.8836 64.7552C93.8137 64.8891 93.708 64.98 93.5666 65.0281C92.1462 65.4888 91.0671 66.1147 90.3294 66.9056C89.4726 67.8202 89.2297 68.8628 89.6007 70.0333C89.9205 71.0328 90.6155 71.8812 91.6855 72.5786C92.7555 73.2759 93.8027 73.5598 94.8269 73.4304C95.0304 73.4058 95.1979 73.3711 95.3295 73.3262C95.3788 73.3102 95.4216 73.2942 95.4578 73.2781C95.4874 73.2685 95.5104 73.2555 95.527 73.2393C95.5238 73.2294 95.5206 73.2163 95.5174 73.1998C95.5077 73.1834 95.498 73.1636 95.4884 73.1406C95.4659 73.0846 95.4336 73.0221 95.3915 72.9529C95.3106 72.8177 95.1518 72.5935 94.9149 72.28L94.6569 71.9385C94.5629 71.8098 94.4802 71.6927 94.4089 71.5872C94.2339 71.3235 94.1064 71.0814 94.0262 70.861C93.8752 70.463 93.8503 70.0971 93.9514 69.7634C94.0322 69.5083 94.18 69.2783 94.3948 69.0734C94.8442 68.6507 95.3846 68.337 96.0159 68.1322C96.6505 67.9242 97.3185 67.8427 98.0199 67.8877C98.7247 67.9294 99.3809 68.0872 99.9887 68.3611C100.596 68.6415 101.087 69.0045 101.461 69.4503C101.561 69.5659 101.604 69.699 101.59 69.8498C101.579 70.0038 101.514 70.1295 101.395 70.227C101.28 70.3211 101.145 70.3627 100.991 70.3516C100.84 70.3373 100.718 70.2723 100.624 70.1568C100.347 69.8299 99.9708 69.5596 99.4937 69.3458C99.0134 69.1353 98.5011 69.0148 97.957 68.9841C96.7966 68.9157 95.8596 69.2132 95.1458 69.8764C94.9839 70.0292 94.956 70.2389 95.062 70.5054C95.1553 70.7324 95.3983 71.1017 95.791 71.6131C96.0992 72.019 96.305 72.3207 96.4084 72.5183L96.4327 72.553L96.4521 72.5925C96.4682 72.6287 96.4826 72.6632 96.4955 72.6961C96.5407 72.7883 96.5727 72.8804 96.5916 72.9724C96.6585 73.2254 96.6451 73.4598 96.5515 73.6755C96.4346 73.9468 96.2066 74.1548 95.8676 74.2996C95.634 74.3994 95.3317 74.4724 94.9607 74.5186C93.6607 74.6852 92.3664 74.3484 91.0779 73.5083C90.657 73.2327 90.2726 72.918 89.9246 72.5643ZM99.4842 75.6343C99.39 75.5122 99.3534 75.3758 99.3743 75.2251C99.3887 75.0744 99.4569 74.952 99.579 74.8579C100.823 73.8742 102.047 72.738 103.252 71.449C103.993 70.6614 105.082 69.4076 106.519 67.6877C106.615 67.5737 106.74 67.5091 106.894 67.494C107.045 67.4821 107.179 67.5258 107.297 67.6251C107.411 67.7211 107.474 67.8446 107.485 67.9956C107.504 68.1466 107.463 68.2807 107.364 68.398C104.543 71.7661 102.175 74.2066 100.261 75.7193C100.148 75.8102 100.022 75.8502 99.881 75.8392C99.7433 75.8315 99.6257 75.7781 99.5281 75.6789L99.4842 75.6343ZM97.2863 80.2245C97.1334 80.0692 97.089 79.8852 97.153 79.6725C97.2001 79.5286 97.2911 79.4228 97.4261 79.355C97.5579 79.2839 97.6974 79.2703 97.8446 79.3141C99.2185 79.745 100.472 79.8059 101.606 79.497C102.99 79.1179 104.474 78.1494 106.057 76.5913C106.166 76.484 106.296 76.4309 106.447 76.4321C106.601 76.4366 106.73 76.4918 106.834 76.5976C106.942 76.7067 106.995 76.8366 106.993 76.9875C106.992 77.1383 106.937 77.2674 106.828 77.3748C105.159 79.0174 103.561 80.0621 102.036 80.5089C100.639 80.9206 99.1307 80.8724 97.5114 80.3641C97.4264 80.3372 97.3513 80.2907 97.2863 80.2245ZM105.939 82.1943C105.845 82.0722 105.808 81.9358 105.829 81.7851C105.843 81.6344 105.912 81.5119 106.034 81.4178C107.278 80.4342 108.502 79.2979 109.706 78.009C110.447 77.2214 111.536 75.9676 112.974 74.2477C113.07 74.1337 113.195 74.0691 113.349 74.0539C113.5 74.042 113.634 74.0857 113.751 74.1851C113.865 74.2811 113.928 74.4046 113.94 74.5555C113.959 74.7065 113.918 74.8407 113.819 74.9579C110.998 78.3261 108.63 80.7665 106.715 82.2793C106.603 82.3702 106.477 82.4102 106.336 82.3992C106.198 82.3915 106.08 82.3381 105.983 82.2389L105.939 82.1943ZM109.893 85.8458C109.389 85.3335 108.951 84.7232 108.58 84.0151C108.512 83.8801 108.5 83.7423 108.544 83.6016C108.587 83.4544 108.679 83.3453 108.817 83.2743C108.949 83.2032 109.086 83.1912 109.23 83.2383C109.378 83.2821 109.485 83.3715 109.553 83.5065C110.066 84.4781 110.674 85.1946 111.375 85.6561C112.06 86.1011 112.707 86.1998 113.316 85.9522C113.424 85.9105 113.542 85.7556 113.669 85.4878C113.826 85.1644 113.952 84.7505 114.048 84.2463C114.261 83.1002 114.27 81.9262 114.076 80.7244C114.051 80.5733 114.082 80.4358 114.168 80.3119C114.258 80.1913 114.378 80.1185 114.529 80.0935C114.68 80.0684 114.816 80.1007 114.937 80.1902C115.061 80.2765 115.135 80.3951 115.16 80.5462C115.376 81.8761 115.365 83.1747 115.129 84.4419C115.019 85.0379 114.867 85.5384 114.674 85.9435C114.42 86.4793 114.104 86.8227 113.726 86.9738C112.762 87.3628 111.779 87.2303 110.778 86.5761C110.474 86.3802 110.179 86.1368 109.893 85.8458Z" fill="white"/>
</svg>
