<svg width="15" height="16" viewBox="0 0 15 16" fill="none" xmlns="http://www.w3.org/2000/svg">
<path fill-rule="evenodd" clip-rule="evenodd" d="M0 8.34552C0 14.6487 1.32375 15.9996 7.5 15.9996C13.6763 15.9996 15 14.6487 15 8.34552C15 2.04236 13.6763 0.691406 7.5 0.691406C1.32375 0.691406 0 2.04236 0 8.34552ZM10.4419 5.98096C10.686 6.23006 10.686 6.63392 10.4419 6.88301L7.31694 10.0722C7.07288 10.3213 6.67712 10.3213 6.43306 10.0722L4.87056 8.47761C4.62648 8.22854 4.62648 7.82465 4.87056 7.57558C5.11464 7.3265 5.51036 7.3265 5.75444 7.57558L6.875 8.71916L9.55806 5.98096C9.80212 5.73187 10.1979 5.73187 10.4419 5.98096Z" fill="#32AE3E"/>
</svg>
