<svg width="25" height="25" viewBox="0 0 25 25" fill="none" xmlns="http://www.w3.org/2000/svg">
<path d="M15.11 6.51C14.93 6.76 14.8 6.99 14.71 7.21C14.62 7.42 14.57 7.63 14.57 7.82C14.57 8.06 14.64 8.3 14.78 8.53C14.91 8.76 15.1 9 15.34 9.24L16.1 10.03C16.21 10.14 16.26 10.27 16.26 10.43C16.26 10.51 16.25 10.58 16.23 10.66C16.2 10.74 16.17 10.8 16.15 10.86C15.97 11.19 15.66 11.62 15.22 12.14C14.77 12.66 14.29 13.19 13.77 13.72C13.23 14.25 12.71 14.74 12.18 15.19C11.66 15.63 11.23 15.93 10.89 16.11C10.84 16.13 10.78 16.16 10.71 16.19C10.63 16.22 10.55 16.23 10.46 16.23C10.29 16.23 10.16 16.17 10.05 16.06L9.29 15.31C9.04 15.06 8.8 14.87 8.57 14.75C8.34 14.61 8.11 14.54 7.86 14.54C7.67 14.54 7.47 14.58 7.25 14.67C7.03 14.76 6.8 14.89 6.55 15.06L3.24 17.41C2.98 17.59 2.8 17.8 2.69 18.05C2.59 18.3 2.53 18.55 2.53 18.83C2.53 19.19 2.61 19.56 2.78 19.92C2.95 20.28 3.17 20.62 3.46 20.94C3.95 21.48 4.49 21.87 5.1 22.12C5.7 22.37 6.35 22.5 7.05 22.5C8.07 22.5 9.16 22.26 10.31 21.77C11.46 21.28 12.61 20.62 13.75 19.79C14.9 18.95 15.99 18.02 17.03 16.99C18.06 15.95 18.99 14.86 19.82 13.72C20.64 12.58 21.3 11.44 21.78 10.31C22.26 9.17 22.5 8.08 22.5 7.04C22.5 6.36 22.38 5.71 22.14 5.11C21.9 4.5 21.52 3.94 20.99 3.44C20.35 2.81 19.65 2.5 18.91 2.5C18.63 2.5 18.35 2.56 18.1 2.68C17.84 2.8 17.61 2.98 17.43 3.24" stroke="white" stroke-width="1.5" stroke-miterlimit="10" stroke-linecap="round" stroke-linejoin="round"/>
</svg>
