<svg width="24" height="25" viewBox="0 0 24 25" fill="none" xmlns="http://www.w3.org/2000/svg">
<path d="M13.1698 2.5C8.28985 2.5 4.33984 6.18999 4.33984 10.74C4.33984 11 4.34985 11.25 4.37985 11.5C5.26985 10.92 6.33985 10.59 7.49985 10.59C10.5398 10.59 12.9998 12.89 12.9998 15.73C12.9998 16.92 12.5599 18.02 11.8199 18.89C12.2599 18.95 12.7098 18.98 13.1698 18.98L17.3598 21.47C18.0698 21.9 18.9598 21.32 18.8598 20.49L18.4698 17.33C20.6098 15.83 21.9998 13.44 21.9998 10.74C21.9998 7.66999 20.1999 4.99001 17.5199 3.57001" stroke="white" stroke-width="1.5" stroke-linecap="round" stroke-linejoin="round"/>
<path d="M4.38 11.4998C5.27 10.9198 6.34 10.5898 7.5 10.5898C10.54 10.5898 13 12.8897 13 15.7297C13 16.9197 12.56 18.0198 11.82 18.8898C10.83 20.0898 9.26 20.8597 7.5 20.8597L4.89 22.4097C4.45 22.6797 3.89 22.3097 3.95 21.7997L4.2 19.8298C2.86 18.8998 2 17.4097 2 15.7297C2 15.4297 2.03 15.1397 2.08 14.8597" stroke="white" stroke-width="1.5" stroke-linecap="round" stroke-linejoin="round"/>
</svg>
