<svg width="15" height="15" viewBox="0 0 15 15" fill="none" xmlns="http://www.w3.org/2000/svg">
<path d="M7.5 0.5C3.643 0.5 0.5 3.643 0.5 7.5C0.5 11.357 3.643 14.5 7.5 14.5C11.357 14.5 14.5 11.357 14.5 7.5C14.5 3.643 11.357 0.5 7.5 0.5ZM10.846 5.89L6.877 9.859C6.779 9.957 6.646 10.013 6.506 10.013C6.366 10.013 6.233 9.957 6.135 9.859L4.154 7.878C3.951 7.675 3.951 7.339 4.154 7.136C4.357 6.933 4.693 6.933 4.896 7.136L6.506 8.746L10.104 5.148C10.307 4.945 10.643 4.945 10.846 5.148C11.049 5.351 11.049 5.68 10.846 5.89Z" fill="#4F4F4F"/>
</svg>
