<svg width="76" height="76" viewBox="0 0 76 76" fill="none" xmlns="http://www.w3.org/2000/svg">
<circle cx="38.2391" cy="38.0165" r="36.1076" stroke="#11999E" stroke-width="2.32952"/>
<path d="M49.3935 37.6467V32.2929C49.3935 26.1795 44.3917 21.1777 38.2784 21.1777C32.1465 21.1777 27.1632 26.161 27.1632 32.2929V37.6467C27.1632 38.7768 26.6816 40.4996 26.1073 41.4629L23.9769 45.0012C22.6616 47.1872 23.5694 49.614 25.9776 50.4291C33.962 53.0968 42.5763 53.0968 50.5606 50.4291C52.8022 49.6881 53.784 47.039 52.5614 45.0012" stroke="#11999E" stroke-width="2.9119" stroke-miterlimit="10" stroke-linecap="round"/>
<path d="M41.7 21.715C41.1258 21.5483 40.5329 21.4186 39.9216 21.3445C38.1432 21.1222 36.4389 21.2519 34.8457 21.715C35.3829 20.3442 36.7168 19.3809 38.2729 19.3809C39.829 19.3809 41.1628 20.3442 41.7 21.715Z" stroke="#11999E" stroke-width="2.9119" stroke-miterlimit="10" stroke-linecap="round" stroke-linejoin="round"/>
<path d="M43.8319 51.0957C43.8319 54.1524 41.331 56.6533 38.2743 56.6533C36.7552 56.6533 35.3473 56.0234 34.347 55.023C33.3467 54.0227 32.7168 52.6148 32.7168 51.0957" stroke="#11999E" stroke-width="2.9119" stroke-miterlimit="10"/>
</svg>
