<svg width="21" height="21" viewBox="0 0 21 21" fill="none" xmlns="http://www.w3.org/2000/svg">
<path opacity="0.4" d="M14.1527 2.37305H7.34261C4.38455 2.37305 2.62109 4.13651 2.62109 7.09457V13.8965C2.62109 16.8627 4.38455 18.6261 7.34261 18.6261H14.1445C17.1026 18.6261 18.8661 16.8627 18.8661 13.9046V7.09457C18.8742 4.13651 17.1107 2.37305 14.1527 2.37305Z" fill="#11999E"/>
<path d="M12.5842 10.501L11.3571 10.0703V7.31544H11.6497C12.3079 7.31544 12.8443 7.89242 12.8443 8.59943C12.8443 8.93262 13.1206 9.20892 13.4538 9.20892C13.7869 9.20892 14.0632 8.93262 14.0632 8.59943C14.0632 7.21792 12.9824 6.09645 11.6497 6.09645H11.3571V5.62512C11.3571 5.29193 11.0808 5.01562 10.7476 5.01562C10.4144 5.01562 10.1381 5.29193 10.1381 5.62512V6.09645H9.6099C8.40714 6.09645 7.42383 7.11227 7.42383 8.35563C7.42383 9.81028 8.26899 10.2735 8.91099 10.501L10.1381 10.9317V13.6785H9.84557C9.18732 13.6785 8.65094 13.1015 8.65094 12.3945C8.65094 12.0613 8.37463 11.785 8.04145 11.785C7.70826 11.785 7.43195 12.0613 7.43195 12.3945C7.43195 13.776 8.51278 14.8975 9.84557 14.8975H10.1381V15.377C10.1381 15.7102 10.4144 15.9865 10.7476 15.9865C11.0808 15.9865 11.3571 15.7102 11.3571 15.377V14.9056H11.8853C13.0881 14.9056 14.0714 13.8898 14.0714 12.6464C14.0632 11.1837 13.2181 10.7205 12.5842 10.501ZM9.31734 9.3552C8.90286 9.20892 8.65094 9.07077 8.65094 8.36376C8.65094 7.78678 9.08164 7.32356 9.61803 7.32356H10.1463V9.64775L9.31734 9.3552ZM11.8853 13.6866H11.3571V11.3625L12.1779 11.6469C12.5923 11.7932 12.8443 11.9313 12.8443 12.6383C12.8443 13.2153 12.4136 13.6866 11.8853 13.6866Z" fill="#11999E"/>
</svg>
