<svg width="322" height="258" viewBox="0 0 322 258" fill="none" xmlns="http://www.w3.org/2000/svg">
<g filter="url(#filter0_d_3181_16589)">
<path d="M291.244 55.7819C290.523 34.6577 279.384 18.216 268.013 17.3742C257.49 16.5951 49.7926 17.2579 18.8431 17.3611C17.0589 17.3671 16.1669 17.3701 15.5834 17.9554C15 18.5408 15 19.4806 15 21.3603V236.46C15 238.337 15 239.275 15.5823 239.86C16.1645 240.445 17.0552 240.45 18.8366 240.459C49.7911 240.613 257.864 241.607 268.013 240.439C278.978 239.178 291.894 221.077 291.244 197.217C290.598 173.474 288.097 147.868 297.347 135.444C300.549 131.142 302.15 128.992 302.174 128.372C302.198 127.752 300.808 125.55 298.029 121.146C288.83 106.567 291.972 77.0799 291.244 55.7819Z" fill="white"/>
</g>
<defs>
<filter id="filter0_d_3181_16589" x="0" y="0" width="321.174" height="258" filterUnits="userSpaceOnUse" color-interpolation-filters="sRGB">
<feFlood flood-opacity="0" result="BackgroundImageFix"/>
<feColorMatrix in="SourceAlpha" type="matrix" values="0 0 0 0 0 0 0 0 0 0 0 0 0 0 0 0 0 0 127 0" result="hardAlpha"/>
<feOffset dx="2"/>
<feGaussianBlur stdDeviation="8.5"/>
<feComposite in2="hardAlpha" operator="out"/>
<feColorMatrix type="matrix" values="0 0 0 0 0 0 0 0 0 0 0 0 0 0 0 0 0 0 0.15 0"/>
<feBlend mode="normal" in2="BackgroundImageFix" result="effect1_dropShadow_3181_16589"/>
<feBlend mode="normal" in="SourceGraphic" in2="effect1_dropShadow_3181_16589" result="shape"/>
</filter>
</defs>
</svg>
