<svg width="22" height="22" viewBox="0 0 22 22" fill="none" xmlns="http://www.w3.org/2000/svg">
<g clip-path="url(#clip0_3795_440783)">
<path d="M10.8075 21.4831C5.02966 21.4831 0.326172 16.7796 0.326172 11.0018C0.326172 5.224 5.02966 0.520508 10.8075 0.520508C16.5853 0.520508 21.2888 5.224 21.2888 11.0018C21.2888 16.7796 16.5853 21.4831 10.8075 21.4831ZM19.6467 12.436C19.341 12.3399 16.8779 11.6036 14.0707 12.0534C15.2411 15.2712 15.7188 17.8915 15.8106 18.4366C17.8195 17.0784 19.2484 14.9253 19.6493 12.436H19.6467ZM14.3056 19.2558C14.172 18.4698 13.6505 15.7341 12.3928 12.4692L12.3351 12.4867C7.2779 14.2467 5.46987 17.7492 5.31265 18.0767C6.82371 19.2628 8.73655 19.9686 10.8066 19.9686C12.0469 19.9686 13.226 19.7153 14.3004 19.2576L14.3056 19.2558ZM4.15622 17.0024C4.35886 16.653 6.81585 12.5871 11.4337 11.0935C11.5517 11.0542 11.6696 11.0202 11.7875 10.9887C11.5604 10.4778 11.3158 9.96941 11.0608 9.46893C6.58875 10.8053 2.25299 10.7485 1.85994 10.7398L1.85644 11.0123C1.85644 13.3121 2.72814 15.4118 4.15709 16.9997L4.15622 17.0024ZM2.04249 9.18069C2.44427 9.18768 6.13282 9.2034 10.3201 8.09063C8.837 5.45458 7.23685 3.23604 7.00102 2.91287C4.49599 4.09201 2.62507 6.3979 2.04336 9.17545L2.04249 9.18069ZM8.71122 2.31281C8.95753 2.64472 10.5848 4.85802 12.0495 7.55347C15.2332 6.36122 16.5827 4.54882 16.7425 4.31998C15.1616 2.91374 13.0828 2.06126 10.8075 2.06126C10.0869 2.06126 9.38377 2.1486 8.71122 2.31019V2.31281ZM17.7382 5.35501C17.5478 5.60831 16.0481 7.5325 12.7387 8.88372C12.9483 9.31171 13.1492 9.74406 13.3326 10.1817C13.4025 10.3389 13.4636 10.4961 13.5248 10.6446C16.5032 10.269 19.4642 10.8717 19.7611 10.9328C19.7437 8.81908 18.9925 6.88004 17.7435 5.36025L17.7382 5.35501Z" fill="white"/>
</g>
<defs>
<clipPath id="clip0_3795_440783">
<rect width="20.9626" height="20.9626" fill="white" transform="translate(0.326172 0.520508)"/>
</clipPath>
</defs>
</svg>
