<svg width="33" height="33" viewBox="0 0 33 33" fill="none" xmlns="http://www.w3.org/2000/svg">
<path d="M30.8897 18.25V21.139C30.8897 28.3614 28.0007 31.2504 20.7783 31.2504H12.1114C4.88897 31.2504 2 28.3614 2 21.139V18.9434" stroke="#EC4B72" stroke-width="3.5" stroke-linecap="round" stroke-linejoin="round"/>
<path d="M15.0004 2.36328H12.1114C4.88897 2.36328 2 5.25225 2 12.4747" stroke="#EC4B72" stroke-width="3.5" stroke-linecap="round" stroke-linejoin="round"/>
<path d="M27.8975 12.4887L29.4142 10.972C31.3787 9.00752 32.3032 6.72524 29.4142 3.83627C26.5253 0.947302 24.243 1.87177 22.2785 3.83627L10.8959 15.2188C10.4626 15.6521 10.0292 16.5044 9.94255 17.1255L9.32142 21.4734C9.09031 23.0479 10.2026 24.1457 11.777 23.929L16.125 23.3079C16.7317 23.2212 17.5839 22.7879 18.0317 22.3545L22.6252 17.7611L23.6796 16.7066" stroke="#EC4B72" stroke-width="3.5" stroke-miterlimit="10" stroke-linecap="round" stroke-linejoin="round"/>
<path d="M20.6465 5.46484C21.6143 8.91716 24.3155 11.6183 27.7822 12.6006" stroke="#EC4B72" stroke-width="3.5" stroke-miterlimit="10" stroke-linecap="round" stroke-linejoin="round"/>
</svg>
