<svg width="36" height="27" viewBox="0 0 36 27" fill="none" xmlns="http://www.w3.org/2000/svg">
<path d="M35.3996 4.02424V23.9544C35.3996 25.2497 34.3382 26.2986 33.0274 26.2986H27.4899V13.0128L17.9996 20.0483L8.50936 13.0128V26.3H2.97181C2.66017 26.3 2.35158 26.2393 2.06367 26.1214C1.77577 26.0035 1.5142 25.8307 1.2939 25.6129C1.0736 25.3951 0.898895 25.1365 0.779766 24.8519C0.660638 24.5673 0.599419 24.2623 0.59961 23.9544V4.02424C0.59961 1.1255 3.94766 -0.529489 6.29376 1.21004L8.50936 2.85357L17.9996 9.88621L27.4899 2.85071L29.7055 1.21004C32.0501 -0.528056 35.3996 1.1255 35.3996 4.02424Z" fill="white"/>
</svg>
