<svg width="21" height="24" viewBox="0 0 21 24" fill="none" xmlns="http://www.w3.org/2000/svg">
<path d="M3.18848 1H17.6401C18.8426 1 19.8285 1.98582 19.8285 3.18832V5.59332C19.8285 6.47082 19.276 7.565 18.7343 8.10667" stroke="white" stroke-width="2" stroke-miterlimit="10" stroke-linecap="round" stroke-linejoin="round"/>
<path d="M12.9276 19.4919C12.9276 20.1528 12.4941 21.0194 11.9416 21.3553L10.4141 22.3412C8.99495 23.2187 7.02332 22.2328 7.02332 20.4778V14.6819C7.02332 13.9128 6.59 12.9269 6.14583 12.3853L1.9858 8.00864C1.4333 7.45614 1 6.48115 1 5.82031" stroke="white" stroke-width="2" stroke-miterlimit="10" stroke-linecap="round" stroke-linejoin="round"/>
<path d="M14.8222 16.7302C16.7368 16.7302 18.2889 15.1781 18.2889 13.2635C18.2889 11.349 16.7368 9.79688 14.8222 9.79688C12.9076 9.79688 11.3555 11.349 11.3555 13.2635C11.3555 15.1781 12.9076 16.7302 14.8222 16.7302Z" stroke="white" stroke-width="2" stroke-linecap="round" stroke-linejoin="round"/>
<path d="M18.9388 17.3802L17.8555 16.2969" stroke="white" stroke-width="2" stroke-linecap="round" stroke-linejoin="round"/>
</svg>
