<svg width="17" height="17" viewBox="0 0 17 17" fill="none" xmlns="http://www.w3.org/2000/svg">
<path d="M15.7612 4.41948C15.0705 3.65558 13.9165 3.27363 12.2425 3.27363H12.0474V3.24113C12.0474 1.87587 12.0474 0.185547 8.99184 0.185547H7.75661C4.70099 0.185547 4.70099 1.88399 4.70099 3.24113V3.28176H4.50596C2.82376 3.28176 1.67792 3.66371 0.987165 4.4276C0.182637 5.32152 0.207017 6.52425 0.288282 7.34501L0.296409 7.4019L0.377674 8.25519C0.385801 8.26331 0.402054 8.27957 0.418307 8.28769C0.686483 8.46648 0.962785 8.64526 1.25534 8.80779C1.36911 8.88093 1.49101 8.94594 1.61291 9.01095C3.00255 9.77485 4.53034 10.2868 6.08251 10.5387C6.15565 11.3026 6.48883 12.1966 8.26858 12.1966C10.0483 12.1966 10.3977 11.3108 10.4546 10.5225C12.1124 10.2543 13.7134 9.67733 15.1599 8.83217C15.2086 8.80779 15.2411 8.78341 15.2818 8.75903C15.6556 8.54774 16.005 8.3202 16.3464 8.06828C16.3626 8.06015 16.3789 8.0439 16.387 8.02764L16.4195 7.73509L16.4601 7.35314C16.4683 7.30438 16.4683 7.26375 16.4764 7.20686C16.5414 6.3861 16.5251 5.26464 15.7612 4.41948ZM9.26002 9.98614C9.26002 10.8476 9.26002 10.9776 8.26045 10.9776C7.26089 10.9776 7.26089 10.8232 7.26089 9.99427V8.97032H9.26002V9.98614ZM5.86309 3.27363V3.24113C5.86309 1.85961 5.86309 1.34764 7.75661 1.34764H8.99184C10.8853 1.34764 10.8853 1.86774 10.8853 3.24113V3.28176H5.86309V3.27363Z" fill="#11999E"/>
<path opacity="0.4" d="M15.283 8.74311C15.2424 8.76749 15.2018 8.79187 15.1611 8.81625C13.7146 9.66141 12.1137 10.2303 10.4558 10.5066C10.3908 11.2867 10.0495 12.1806 8.26981 12.1806C6.49007 12.1806 6.14875 11.2948 6.08374 10.5228C4.53157 10.279 3.00378 9.76705 1.61414 8.99503C1.49224 8.93002 1.37034 8.86501 1.25657 8.79187C0.964017 8.62934 0.687715 8.45055 0.419539 8.27177C0.403286 8.26364 0.387033 8.24739 0.378906 8.23926L0.874625 13.5296C1.04528 15.1468 1.71166 16.8128 5.28734 16.8128H11.4798C15.0555 16.8128 15.7218 15.1468 15.8925 13.5215L16.4045 8.01172C16.3964 8.02797 16.3801 8.04422 16.3638 8.05235C16.0144 8.30427 15.6568 8.53994 15.283 8.74311Z" fill="#11999E"/>
</svg>
