<svg width="90" height="23" viewBox="0 0 90 23" fill="none" xmlns="http://www.w3.org/2000/svg">
<rect x="0.455078" y="1.25586" width="89.3391" height="20.0762" rx="10.0381" fill="white"/>
<rect x="14.5078" y="1.25586" width="75.2857" height="20.0762" rx="10.0381" fill="black"/>
<path d="M37.0918 14.377C36.7873 14.377 36.5045 14.3248 36.2436 14.2204C35.9913 14.116 35.7694 13.9115 35.578 13.607C35.4562 13.8071 35.3127 13.9855 35.1474 14.1421C34.9821 14.2987 34.8038 14.377 34.6124 14.377C34.4297 14.377 34.2209 14.3509 33.986 14.2987C33.7598 14.2378 33.5293 14.1638 33.2944 14.0768C33.0595 13.9811 32.8333 13.8811 32.6158 13.7767C32.3983 13.6636 32.2156 13.5592 32.0677 13.4635C32.0677 13.5592 32.0721 13.7158 32.0808 13.9333C32.0895 14.1508 32.0982 14.3987 32.1069 14.6771C32.1243 14.9555 32.1373 15.2556 32.146 15.5775C32.1634 15.8994 32.1808 16.2169 32.1982 16.5301L30.2147 17.5088L29.9798 17.3783C29.9624 16.9695 29.9493 16.5301 29.9406 16.0603C29.9319 15.5993 29.9232 15.1512 29.9145 14.7162C29.9145 14.29 29.9145 13.9028 29.9145 13.5548C29.9145 13.1981 29.9145 12.9285 29.9145 12.7458C29.9145 12.2673 30.0494 11.8279 30.3191 11.4278C30.5888 11.0276 30.9715 10.7492 31.4674 10.5926L32.1982 9.35289C32.3809 9.0397 32.5723 8.79176 32.7724 8.60906C32.9725 8.41767 33.1987 8.26978 33.451 8.16538C33.7119 8.06098 34.0034 7.98704 34.3253 7.94354C34.6559 7.90004 35.0343 7.86959 35.4606 7.85219L35.7216 8.04793C35.7825 8.29153 35.8477 8.56557 35.9173 8.87005C35.9956 9.17454 36.0652 9.47033 36.1261 9.75742C36.1957 10.0358 36.2566 10.2838 36.3088 10.5012C36.361 10.7187 36.4045 10.8579 36.4393 10.9188C36.535 11.0145 36.6437 11.0711 36.7655 11.0885C36.896 11.1059 37.0265 11.1146 37.157 11.1146V14.377H37.0918ZM34.3514 10.3316C34.16 10.349 33.9947 10.3664 33.8555 10.3838C33.7163 10.4012 33.5902 10.4316 33.4771 10.4751C33.3727 10.5099 33.277 10.5621 33.19 10.6317C33.103 10.7013 33.016 10.797 32.929 10.9188C33.2161 11.058 33.5032 11.1668 33.7902 11.2451C34.086 11.3147 34.3601 11.3582 34.6124 11.3756C34.6124 11.3408 34.6037 11.2799 34.5863 11.1929C34.5689 11.1059 34.5471 11.0102 34.521 10.9058C34.4949 10.8014 34.4645 10.697 34.4297 10.5926C34.4036 10.4882 34.3775 10.4012 34.3514 10.3316ZM37.419 14.377C37.2537 14.377 37.1493 14.2465 37.1058 13.9855C37.0536 13.7158 37.0275 13.3025 37.0275 12.7458C37.0275 12.189 37.0536 11.7801 37.1058 11.5191C37.1493 11.2494 37.2537 11.1146 37.419 11.1146H38.0715C38.5326 11.1146 38.9197 11.1102 39.2329 11.1015C39.5548 11.0928 39.8288 11.0667 40.055 11.0232C40.0202 10.9188 39.9724 10.7883 39.9115 10.6317C39.8506 10.4664 39.781 10.2968 39.7027 10.1228C39.6331 9.94882 39.5548 9.77917 39.4678 9.61388C39.3895 9.43988 39.3156 9.28764 39.246 9.15714L41.2034 7.85219L41.4644 7.95659C41.5601 8.20888 41.6427 8.46987 41.7123 8.73956C41.7906 9.00055 41.8515 9.26154 41.895 9.52253C41.9472 9.77482 41.9864 10.0141 42.0125 10.2403C42.0386 10.4664 42.0516 10.6709 42.0516 10.8536C42.0516 11.2103 42.0081 11.5626 41.9211 11.9106C41.8428 12.2499 41.7384 12.5587 41.6079 12.8371C41.4774 13.1155 41.3295 13.3591 41.1642 13.5679C40.999 13.768 40.838 13.9072 40.6814 13.9855C40.5683 14.0464 40.4378 14.1029 40.2899 14.1551C40.142 14.1986 39.9637 14.2378 39.7549 14.2726C39.5548 14.3074 39.3156 14.3335 39.0372 14.3509C38.7588 14.3683 38.4369 14.377 38.0715 14.377H37.419ZM42.3779 16.2039L41.3339 17.6393H41.0729L39.9506 16.6345L39.246 17.6393H38.985L37.68 16.5954L38.724 15.1599H38.985L40.0942 16.1517L40.8119 15.1599H41.0729L42.3779 16.2039ZM46.5522 14.377C46.3521 14.377 46.1868 14.3378 46.0563 14.2595C45.9606 14.8076 45.817 15.2817 45.6257 15.6819C45.443 16.0821 45.2429 16.4127 45.0254 16.6737C44.8166 16.9347 44.6078 17.1261 44.399 17.2478C44.1902 17.3783 44.0162 17.4436 43.877 17.4436C43.8248 17.4436 43.7596 17.4349 43.6813 17.4175C43.6117 17.4088 43.4942 17.387 43.3289 17.3522C43.1636 17.3174 42.9331 17.2652 42.6373 17.1957C42.3415 17.1261 41.95 17.0347 41.4629 16.9216V15.6819C42.1501 15.2904 42.7243 14.8946 43.1854 14.4944C43.6465 14.0942 44.0075 13.7288 44.2685 13.3982C44.1728 13.1024 44.0162 12.6979 43.7987 12.1846C43.5812 11.6714 43.3246 11.1189 43.0288 10.5273L44.9862 9.22239L45.3125 9.32679C45.443 9.77047 45.5517 10.1315 45.6387 10.4099C45.7344 10.6796 45.7996 10.8492 45.8344 10.9188C45.8692 10.971 45.9171 11.0102 45.978 11.0363C46.0389 11.0624 46.1041 11.0841 46.1737 11.1015C46.2433 11.1102 46.3086 11.1146 46.3695 11.1146C46.4391 11.1146 46.5 11.1146 46.5522 11.1146V14.377ZM46.8106 14.377C46.6453 14.377 46.5409 14.2465 46.4974 13.9855C46.4452 13.7158 46.4191 13.3025 46.4191 12.7458C46.4191 12.189 46.4452 11.7801 46.4974 11.5191C46.5409 11.2494 46.6453 11.1146 46.8106 11.1146H48.6506V14.377H46.8106ZM48.9067 14.377C48.7414 14.377 48.637 14.2465 48.5935 13.9855C48.5413 13.7158 48.5152 13.3025 48.5152 12.7458C48.5152 12.189 48.5413 11.7801 48.5935 11.5191C48.637 11.2494 48.7414 11.1146 48.9067 11.1146H50.7467V14.377H48.9067ZM51.0028 14.377C50.8375 14.377 50.7331 14.2465 50.6896 13.9855C50.6374 13.7158 50.6113 13.3025 50.6113 12.7458C50.6113 12.189 50.6374 11.7801 50.6896 11.5191C50.7331 11.2494 50.8375 11.1146 51.0028 11.1146C51.4639 11.1146 51.851 11.1102 52.1642 11.1015C52.4861 11.0928 52.7601 11.0667 52.9863 11.0232C52.9515 10.9188 52.9036 10.7883 52.8428 10.6317C52.7819 10.4664 52.7123 10.2968 52.634 10.1228C52.5644 9.94882 52.4861 9.77917 52.3991 9.61388C52.3208 9.43988 52.2468 9.28764 52.1772 9.15714L54.1347 7.85219L54.3956 7.95659C54.4913 8.20888 54.574 8.46987 54.6436 8.73956C54.7219 9.00055 54.7828 9.26154 54.8263 9.52253C54.8785 9.77482 54.9176 10.0141 54.9437 10.2403C54.9698 10.4664 54.9829 10.6709 54.9829 10.8536C54.9829 11.2103 54.9394 11.5626 54.8524 11.9106C54.7741 12.2499 54.6697 12.5587 54.5392 12.8371C54.4087 13.1155 54.2608 13.3591 54.0955 13.5679C53.9302 13.768 53.7693 13.9072 53.6127 13.9855C53.4996 14.0464 53.3691 14.1029 53.2212 14.1551C53.0733 14.1986 52.895 14.2378 52.6862 14.2726C52.4861 14.3074 52.2468 14.3335 51.9684 14.3509C51.69 14.3683 51.3682 14.377 51.0028 14.377ZM53.2212 16.2039L52.1772 17.6393H51.9162L50.6113 16.5954L51.6552 15.1599H51.9162L53.2212 16.2039ZM63.9203 15.2904C63.8072 15.4905 63.6158 15.6776 63.3461 15.8515C63.0764 16.0342 62.7589 16.1952 62.3935 16.3344C62.0281 16.4736 61.6323 16.5823 61.206 16.6606C60.7884 16.7476 60.3664 16.7911 59.9402 16.7911C58.8614 16.7911 58.0697 16.5562 57.5651 16.0864C57.0606 15.6254 56.8083 14.8815 56.8083 13.855C56.8083 13.5244 56.8387 13.0633 56.8996 12.4717C56.9692 11.8801 57.0693 11.1885 57.1998 10.3968L58.831 10.5273L58.6352 13.2677C58.7657 13.3634 58.9571 13.433 59.2094 13.4765C59.4617 13.5113 59.7053 13.5287 59.9402 13.5287C60.3316 13.5287 60.7492 13.507 61.1929 13.4635C61.6453 13.4113 62.0542 13.3025 62.4196 13.1372C62.3848 12.9459 62.3326 12.711 62.263 12.4326C62.1934 12.1455 62.1151 11.8497 62.0281 11.5452C61.9411 11.2407 61.8454 10.9362 61.741 10.6317C61.6366 10.3273 61.5366 10.0532 61.4409 9.80962L63.3983 8.56992L63.7245 8.67431C63.8376 8.9875 63.9333 9.32244 64.0116 9.67912C64.0986 10.0271 64.1682 10.3838 64.2204 10.7492C64.2726 11.1146 64.3118 11.48 64.3379 11.8453C64.364 12.2107 64.377 12.5544 64.377 12.8763C64.377 13.172 64.3596 13.4548 64.3248 13.7245C64.29 13.9942 64.2465 14.2334 64.1943 14.4422C64.1421 14.6597 64.0899 14.8424 64.0377 14.9903C63.9855 15.1382 63.9464 15.2382 63.9203 15.2904ZM59.9402 10.2011L58.6352 9.15714L59.6792 7.7217H59.9402L61.2451 8.76566L60.2012 10.2011H59.9402ZM68.8776 14.377C68.6775 14.377 68.5122 14.3378 68.3817 14.2595C68.286 14.8076 68.1424 15.2817 67.951 15.6819C67.7683 16.0821 67.5683 16.4127 67.3508 16.6737C67.142 16.9347 66.9332 17.1261 66.7244 17.2478C66.5156 17.3783 66.3416 17.4436 66.2024 17.4436C66.1502 17.4436 66.085 17.4349 66.0067 17.4175C65.9371 17.4088 65.8196 17.387 65.6543 17.3522C65.489 17.3174 65.2585 17.2652 64.9627 17.1957C64.6669 17.1261 64.2754 17.0347 63.7882 16.9216V15.6819C64.4755 15.2904 65.0497 14.8946 65.5108 14.4944C65.9719 14.0942 66.3329 13.7288 66.5939 13.3982C66.4982 13.1024 66.3416 12.6979 66.1241 12.1846C65.9066 11.6714 65.65 11.1189 65.3542 10.5273L67.3116 9.22239L67.6379 9.32679C67.7683 9.77047 67.8771 10.1315 67.9641 10.4099C68.0598 10.6796 68.125 10.8492 68.1598 10.9188C68.1946 10.971 68.2425 11.0102 68.3034 11.0363C68.3643 11.0624 68.4295 11.0841 68.4991 11.1015C68.5687 11.1102 68.634 11.1146 68.6949 11.1146C68.7645 11.1146 68.8254 11.1146 68.8776 11.1146V14.377ZM66.6591 8.63516L65.3542 7.5912L66.3981 6.15575H66.6591L67.9641 7.19972L66.9201 8.63516H66.6591ZM69.136 14.377C68.9707 14.377 68.8663 14.2465 68.8228 13.9855C68.7706 13.7158 68.7445 13.3025 68.7445 12.7458C68.7445 12.189 68.7706 11.7801 68.8228 11.5191C68.8663 11.2494 68.9707 11.1146 69.136 11.1146C69.5971 11.1146 69.9842 11.1102 70.2974 11.1015C70.6193 11.0928 70.8933 11.0667 71.1195 11.0232C71.0847 10.9188 71.0369 10.7883 70.976 10.6317C70.9151 10.4664 70.8455 10.2968 70.7672 10.1228C70.6976 9.94882 70.6193 9.77917 70.5323 9.61388C70.454 9.43988 70.3801 9.28764 70.3105 9.15714L72.2679 7.85219L72.5289 7.95659C72.6246 8.20888 72.7072 8.46987 72.7768 8.73956C72.8551 9.00055 72.916 9.26154 72.9595 9.52253C73.0117 9.77482 73.0509 10.0141 73.077 10.2403C73.1031 10.4664 73.1161 10.6709 73.1161 10.8536C73.1161 11.2103 73.0726 11.5626 72.9856 11.9106C72.9073 12.2499 72.8029 12.5587 72.6724 12.8371C72.5419 13.1155 72.394 13.3591 72.2287 13.5679C72.0634 13.768 71.9025 13.9072 71.7459 13.9855C71.6328 14.0464 71.5023 14.1029 71.3544 14.1551C71.2065 14.1986 71.0282 14.2378 70.8194 14.2726C70.6193 14.3074 70.3801 14.3335 70.1017 14.3509C69.8233 14.3683 69.5014 14.377 69.136 14.377ZM71.3544 16.2039L70.3105 17.6393H70.0495L68.7445 16.5954L69.7885 15.1599H70.0495L71.3544 16.2039Z" fill="white"/>
<path d="M8.80345 7.46033L6.96083 9.30295L5.82999 10.4281C5.35355 10.9045 5.35355 11.6794 5.82999 12.1559L8.80345 15.1293C9.19379 15.5197 9.85966 15.2384 9.85966 14.6931V11.4728V7.89659C9.85966 7.34552 9.19379 7.06999 8.80345 7.46033Z" fill="black"/>
</svg>
