<svg width="27" height="28" viewBox="0 0 27 28" fill="none" xmlns="http://www.w3.org/2000/svg">
<path d="M4.69288 16.2708C4.51545 18.3365 6.15031 20.1108 8.22873 20.1108H21.7257C23.5507 20.1108 25.1475 18.6153 25.2869 16.8031L25.9713 7.29807C26.1234 5.19431 24.5265 3.4834 22.4101 3.4834H6.04894" stroke="#292D32" stroke-width="2" stroke-miterlimit="10" stroke-linecap="round" stroke-linejoin="round"/>
<path d="M1.20703 1.10059H3.4122C4.78091 1.10059 5.85813 2.2792 5.74407 3.63525L5.11041 11.3026" stroke="#292D32" stroke-width="2" stroke-miterlimit="10" stroke-linecap="round" stroke-linejoin="round"/>
<path d="M19.2678 26.4466C20.1427 26.4466 20.8519 25.7374 20.8519 24.8625C20.8519 23.9875 20.1427 23.2783 19.2678 23.2783C18.3928 23.2783 17.6836 23.9875 17.6836 24.8625C17.6836 25.7374 18.3928 26.4466 19.2678 26.4466Z" stroke="#292D32" stroke-width="2" stroke-miterlimit="10" stroke-linecap="round" stroke-linejoin="round"/>
<path d="M9.12713 26.4466C10.002 26.4466 10.7113 25.7374 10.7113 24.8625C10.7113 23.9875 10.002 23.2783 9.12713 23.2783C8.25222 23.2783 7.54297 23.9875 7.54297 24.8625C7.54297 25.7374 8.25222 26.4466 9.12713 26.4466Z" stroke="#292D32" stroke-width="2" stroke-miterlimit="10" stroke-linecap="round" stroke-linejoin="round"/>
<path d="M10.0781 8.7041H25.2861" stroke="#292D32" stroke-width="2" stroke-miterlimit="10" stroke-linecap="round" stroke-linejoin="round"/>
</svg>
