<svg width="29" height="31" viewBox="0 0 29 31" fill="none" xmlns="http://www.w3.org/2000/svg">
<path d="M8.98633 16.0547H18.8" stroke="#292D32" stroke-width="2" stroke-miterlimit="10" stroke-linecap="round" stroke-linejoin="round"/>
<path d="M8.98633 21.6621H15.1269" stroke="#292D32" stroke-width="2" stroke-miterlimit="10" stroke-linecap="round" stroke-linejoin="round"/>
<path d="M13.1361 1.75391H11.7902C10.3883 1.75391 8.98633 1.75391 8.98633 4.5578C8.98633 7.3617 10.3883 7.3617 11.7902 7.3617H17.398C20.2019 7.3617 20.2019 5.95975 20.2019 4.5578C20.2019 1.75391 18.8 1.75391 17.398 1.75391" stroke="#292D32" stroke-width="2" stroke-miterlimit="10" stroke-linecap="round" stroke-linejoin="round"/>
<path d="M1.97656 12.9696C1.97656 6.5767 4.31782 4.83829 8.98631 4.58594" stroke="#292D32" stroke-width="2" stroke-miterlimit="10" stroke-linecap="round" stroke-linejoin="round"/>
<path d="M20.2019 4.58594C24.8704 4.83829 27.2116 6.56269 27.2116 12.9696V21.3813C27.2116 26.9891 25.8097 29.793 18.7999 29.793H10.3883C3.37851 29.793 1.97656 26.9891 1.97656 21.3813V18.4512" stroke="#292D32" stroke-width="2" stroke-miterlimit="10" stroke-linecap="round" stroke-linejoin="round"/>
</svg>
