<svg width="33" height="34" viewBox="0 0 33 34" fill="none" xmlns="http://www.w3.org/2000/svg">
<path d="M17.8008 4.37663C18.5497 5.48448 18.9866 6.81077 18.9866 8.24629C18.971 11.9911 16.022 15.0338 12.3084 15.1586C12.1524 15.143 11.9652 15.143 11.7935 15.1586C8.07991 15.0338 5.13086 11.9911 5.13086 8.24629C5.13086 4.42344 8.22034 1.31836 12.0588 1.31836" stroke="black" stroke-width="2" stroke-linecap="round" stroke-linejoin="round"/>
<path d="M23.6169 4.43945C26.644 4.43945 29.0781 6.88919 29.0781 9.90066C29.0781 12.8497 26.7376 15.2526 23.8198 15.3619C23.6949 15.3463 23.5545 15.3463 23.4141 15.3619" stroke="black" stroke-width="2" stroke-linecap="round" stroke-linejoin="round"/>
<path d="M4.50585 20.917C0.72982 23.4447 0.72982 27.564 4.50585 30.0762C8.7968 32.9472 15.834 32.9472 20.1249 30.0762C23.9009 27.5484 23.9009 23.4291 20.1249 20.917C15.8496 18.0615 8.8124 18.0615 4.50585 20.917Z" stroke="black" stroke-width="2" stroke-linecap="round" stroke-linejoin="round"/>
<path d="M26.6309 29.405C27.7543 29.171 28.8153 28.7185 29.6891 28.0475C32.1233 26.2219 32.1233 23.2105 29.6891 21.3849C28.8309 20.7295 27.7855 20.2926 26.6777 20.043" stroke="black" stroke-width="2" stroke-linecap="round" stroke-linejoin="round"/>
</svg>
