<svg width="31" height="31" viewBox="0 0 31 31" fill="none" xmlns="http://www.w3.org/2000/svg">
<path d="M29.7144 6.0439V22.0851C29.7144 24.1327 28.2459 24.994 26.4525 24.0056L21.242 21.0967V11.5228C21.242 9.10811 19.265 7.13122 16.8504 7.13122H9.94531V6.0439C9.94531 3.62924 11.9222 1.65234 14.3369 1.65234H25.3229C27.7375 1.65234 29.7144 3.62924 29.7144 6.0439Z" stroke="black" stroke-width="2" stroke-linecap="round" stroke-linejoin="round"/>
<path d="M1.47266 27.5637C1.47266 29.6112 2.94122 30.4726 4.73456 29.4841L10.284 26.3917C10.8771 26.0669 11.8373 26.0669 12.4304 26.3917L17.9799 29.4841C19.7732 30.4726 21.2418 29.6112 21.2418 27.5637V11.5224C21.2418 9.10776 19.2649 7.13086 16.8502 7.13086H5.86421C3.44955 7.13086 1.47266 9.10776 1.47266 11.5224V20.7292" stroke="black" stroke-width="2" stroke-linecap="round" stroke-linejoin="round"/>
</svg>
