<svg width="29" height="35" viewBox="0 0 29 35" fill="none" xmlns="http://www.w3.org/2000/svg">
<path d="M27.3438 22.6184V27.3359C27.3438 32.1172 24.4909 33.7109 20.9688 33.7109H8.21875C4.69656 33.7109 1.84375 32.1172 1.84375 27.3359V11.7969C1.84375 6.61719 4.69656 5.42188 8.21875 5.42188C8.21875 6.41 8.61714 7.3025 9.27058 7.95594C9.92402 8.60938 10.8166 9.00781 11.8047 9.00781H17.3828C19.3591 9.00781 20.9688 7.39813 20.9688 5.42188C24.4909 5.42188 27.3438 6.61719 27.3438 11.7969V14.6975" stroke="#292D32" stroke-width="2" stroke-linecap="round" stroke-linejoin="round"/>
<path d="M20.9688 5.42188C20.9688 7.39813 19.3591 9.00781 17.3828 9.00781H11.8047C10.8166 9.00781 9.92402 8.60938 9.27058 7.95594C8.61714 7.3025 8.21875 6.41 8.21875 5.42188C8.21875 3.44562 9.82844 1.83594 11.8047 1.83594H17.3828C18.3709 1.83594 19.2634 2.23438 19.9169 2.88781C20.5703 3.54125 20.9688 4.43375 20.9688 5.42188Z" stroke="#292D32" stroke-width="2" stroke-linecap="round" stroke-linejoin="round"/>
<path d="M8.21875 19.3672H14.5938" stroke="#292D32" stroke-width="2" stroke-linecap="round" stroke-linejoin="round"/>
<path d="M8.21875 25.7422H20.9688" stroke="#292D32" stroke-width="2" stroke-linecap="round" stroke-linejoin="round"/>
</svg>
