<svg width="65" height="64" viewBox="0 0 65 64" fill="none" xmlns="http://www.w3.org/2000/svg">
<g filter="url(#filter0_d_3181_16613)">
<rect x="8.80273" y="8" width="48" height="48" rx="24" fill="white"/>
</g>
<rect x="30.3535" y="40.8379" width="4.3613" height="1.16312" rx="0.581558" fill="#11999E"/>
<path d="M32.9687 23.6738C31.0524 23.6738 29.2989 24.3583 27.9229 25.5035C26.1624 26.961 25.0453 29.17 25.0453 31.6385C25.0453 31.787 25.0525 31.9364 25.0525 32.0769C25.1486 33.7652 25.7627 35.3122 26.7391 36.554C26.5317 38.101 25.6221 39.4171 24.3422 40.1758C24.1971 40.2957 24.1063 40.2975 23.874 40.4433C23.8518 40.488 23.8535 40.5176 23.8535 40.5694C23.8535 40.6884 23.9052 40.8003 23.9942 40.8674C24.2648 40.9425 24.4303 40.9569 24.5781 40.9712C24.8522 41.0007 24.9848 40.9712 25.2661 40.9712C27.1824 40.9712 28.9429 40.2867 30.3118 39.1415C31.1405 39.4385 32.0359 39.6023 32.9678 39.6023C37.3478 39.6023 40.8982 36.0404 40.8982 31.6376C40.8991 27.2428 37.3487 23.6738 32.9687 23.6738ZM30.2807 32.3292C29.8081 32.3292 29.4244 31.9436 29.4244 31.4685C29.4244 30.9934 29.8081 30.6078 30.2807 30.6078C30.7533 30.6078 31.1369 30.9934 31.1369 31.4685C31.1369 31.9436 30.7533 32.3292 30.2807 32.3292ZM33.1752 32.3292C32.7025 32.3292 32.3189 31.9436 32.3189 31.4685C32.3189 30.9934 32.7025 30.6078 33.1752 30.6078C33.6478 30.6078 34.0314 30.9934 34.0314 31.4685C34.0314 31.9436 33.6478 32.3292 33.1752 32.3292ZM36.0705 32.3292C35.5979 32.3292 35.2143 31.9436 35.2143 31.4685C35.2143 30.9934 35.5979 30.6078 36.0705 30.6078C36.5432 30.6078 36.9268 30.9934 36.9268 31.4685C36.9268 31.9436 36.5432 32.3292 36.0705 32.3292Z" fill="#11999E"/>
<path d="M43.8278 34.3908H42.4767C41.3445 34.3908 42.5977 33.1292 42.5977 31.9903L42.1029 28.2558C42.1029 27.1177 40.766 26.291 41.899 26.291H43.8278C44.96 26.291 45.8785 27.2135 45.8785 28.3524V32.3294C45.8785 33.4683 44.96 34.3908 43.8278 34.3908Z" fill="#11999E"/>
<path d="M22.0487 34.9045H23.3999C24.532 34.9045 23.2788 33.6429 23.2788 32.504L23.7737 28.7695C23.7737 27.6314 25.1106 26.8047 23.9775 26.8047H22.0487C20.9166 26.8047 19.998 27.7271 19.998 28.8661V32.8431C19.998 33.982 20.9157 34.9045 22.0487 34.9045Z" fill="#11999E"/>
<path d="M34.3137 41.7205C39.2713 40.6656 42.9944 36.1867 42.9944 31.3115C42.9944 25.6167 38.4017 21 32.7365 21C27.0712 21 22.4785 25.6167 22.4785 31.3115C22.4785 32.5721 22.7037 33.7791 23.1149 34.8957L23.9729 34.6908C23.6089 33.6896 23.5208 32.7385 23.5208 31.6112C23.5208 26.4452 27.6872 22.2571 32.8264 22.2571C37.9656 22.2571 42.132 26.4452 42.132 31.6112C42.132 36.0731 38.545 40.1315 34.3867 41.0664L34.3137 41.7205Z" fill="#11999E"/>
<defs>
<filter id="filter0_d_3181_16613" x="0.802734" y="0" width="64" height="64" filterUnits="userSpaceOnUse" color-interpolation-filters="sRGB">
<feFlood flood-opacity="0" result="BackgroundImageFix"/>
<feColorMatrix in="SourceAlpha" type="matrix" values="0 0 0 0 0 0 0 0 0 0 0 0 0 0 0 0 0 0 127 0" result="hardAlpha"/>
<feOffset/>
<feGaussianBlur stdDeviation="4"/>
<feComposite in2="hardAlpha" operator="out"/>
<feColorMatrix type="matrix" values="0 0 0 0 0.0666667 0 0 0 0 0.6 0 0 0 0 0.619608 0 0 0 0.7 0"/>
<feBlend mode="normal" in2="BackgroundImageFix" result="effect1_dropShadow_3181_16613"/>
<feBlend mode="normal" in="SourceGraphic" in2="effect1_dropShadow_3181_16613" result="shape"/>
</filter>
</defs>
</svg>
