<svg width="14" height="14" viewBox="0 0 14 14" fill="none" xmlns="http://www.w3.org/2000/svg">
<path d="M1.81759 11.2296C1.96153 12.0813 2.77719 12.771 3.64084 12.771H10.3581C11.2158 12.771 12.0375 12.0753 12.1814 11.2296L12.9791 6.45555C13.075 5.86779 12.7752 5.08209 12.3133 4.71024L8.15703 1.3876C7.51529 0.871808 6.47771 0.871802 5.84197 1.3816L1.68564 4.71024C1.21783 5.08209 0.91795 5.86779 1.01991 6.45555L1.42775 8.90856" stroke="white" stroke-linecap="round" stroke-linejoin="round"/>
<path d="M6.99939 5.98828C6.17173 5.98828 5.5 6.66001 5.5 7.48768C5.5 8.31534 6.17173 8.98707 6.99939 8.98707C7.82706 8.98707 8.49879 8.31534 8.49879 7.48768" stroke="white" stroke-linecap="round" stroke-linejoin="round"/>
</svg>
