<svg width="161" height="179" viewBox="0 0 161 179" fill="none" xmlns="http://www.w3.org/2000/svg">
<path d="M126.395 153.952C118.249 148.264 116.404 137.698 116.726 128.208C116.778 126.621 116.604 124.955 117.358 123.564C118.112 122.172 119.873 121.223 121.291 121.892C122.467 122.446 122.984 123.817 123.637 124.945C124.513 126.453 125.82 127.697 127.354 128.493C128.361 129.015 129.611 129.337 130.607 128.788C131.973 128.034 132.136 126.147 132.126 124.571C132.105 121.634 132.089 118.697 132.073 115.756C132.062 114.179 132.057 112.571 132.547 111.074C133.038 109.577 134.118 108.19 135.621 107.768C137.118 107.346 138.974 108.211 139.29 109.756C139.422 110.399 139.29 111.063 139.333 111.717C139.375 112.371 139.681 113.093 140.303 113.278C140.93 113.462 141.563 113.014 142.032 112.555C143.661 110.963 144.763 108.912 145.796 106.877C146.83 104.842 147.831 102.749 149.308 101.015C150.784 99.2801 152.824 97.904 155.081 97.7775C157.337 97.651 159.741 99.0428 160.316 101.257C160.885 103.477 159.594 105.733 158.181 107.531C156.088 110.199 153.61 112.561 150.858 114.511C150.362 114.865 149.824 115.244 149.634 115.829C149.292 116.878 150.288 117.922 151.327 118.27C152.502 118.66 153.778 118.539 155.007 118.687C156.235 118.829 157.569 119.372 158.033 120.537C158.676 122.151 157.332 123.838 156.003 124.945C153.346 127.159 150.315 128.91 147.083 130.096C145.923 130.518 144.705 130.892 143.767 131.709C142.833 132.526 142.269 133.939 142.833 135.052C143.397 136.164 144.847 136.517 146.065 136.291C147.278 136.064 148.369 135.405 149.524 134.967C151.691 134.15 154.485 134.298 155.877 136.169C156.789 137.398 156.868 139.111 156.409 140.582C155.95 142.048 155.012 143.313 154.021 144.478C150.552 148.554 146.107 151.833 141.078 153.573C136.043 155.307 131.388 155.782 126.395 153.952Z" fill="#11999E"/>
<path d="M158.037 99.0981C158.042 99.1034 157.989 99.1508 157.884 99.2457C157.768 99.3512 157.615 99.4882 157.415 99.6622C157.003 100.026 156.392 100.564 155.627 101.281C154.093 102.704 151.942 104.85 149.607 107.781C148.436 109.242 147.213 110.897 145.937 112.695C144.667 114.498 143.317 116.433 141.973 118.521C140.633 120.608 139.289 122.844 138.082 125.259C137.475 126.466 136.932 127.726 136.379 129.012C135.83 130.299 135.272 131.601 134.708 132.919C132.467 138.207 130.5 143.316 129.093 148.087C127.674 152.858 126.836 157.276 126.467 161.019C126.088 164.768 126.167 167.826 126.32 169.924C126.404 170.973 126.483 171.791 126.557 172.339C126.588 172.602 126.609 172.808 126.631 172.966C126.646 173.109 126.652 173.182 126.646 173.182C126.641 173.182 126.625 173.114 126.604 172.971C126.578 172.819 126.546 172.613 126.504 172.349C126.409 171.801 126.314 170.989 126.214 169.935C126.024 167.836 125.919 164.768 126.272 161.004C126.615 157.245 127.442 152.8 128.845 148.013C130.242 143.221 132.209 138.096 134.449 132.808C135.013 131.49 135.572 130.183 136.126 128.896C136.679 127.615 137.228 126.345 137.839 125.132C139.052 122.707 140.407 120.466 141.756 118.378C143.106 116.291 144.466 114.356 145.747 112.558C147.034 110.76 148.267 109.11 149.454 107.655C151.816 104.729 153.998 102.604 155.559 101.202C156.334 100.5 156.956 99.9733 157.383 99.6253C157.589 99.4566 157.747 99.3301 157.868 99.2299C157.979 99.135 158.037 99.0928 158.037 99.0981Z" fill="#263238"/>
<path d="M137.92 125.114C137.899 125.119 137.846 124.876 137.767 124.439C137.683 124.001 137.588 123.369 137.477 122.583C137.256 121.012 137.018 118.835 136.77 116.436C136.523 114.032 136.259 111.865 136.011 110.304C135.89 109.524 135.785 108.891 135.711 108.459C135.637 108.021 135.605 107.779 135.621 107.774C135.642 107.768 135.711 108.005 135.822 108.433C135.932 108.86 136.069 109.487 136.217 110.267C136.517 111.828 136.813 114 137.06 116.404C137.298 118.777 137.514 120.922 137.683 122.557C137.762 123.295 137.83 123.922 137.883 124.423C137.925 124.866 137.941 125.114 137.92 125.114Z" fill="#263238"/>
<path d="M158.183 121.32C158.183 121.341 157.893 121.373 157.376 121.415C156.854 121.462 156.106 121.525 155.178 121.631C153.322 121.831 150.765 122.2 147.965 122.728C145.166 123.26 142.651 123.85 140.848 124.33C139.941 124.562 139.214 124.773 138.713 124.915C138.212 125.058 137.927 125.126 137.922 125.111C137.917 125.089 138.186 124.984 138.681 124.805C139.177 124.631 139.894 124.388 140.795 124.13C142.593 123.597 145.108 122.975 147.918 122.438C150.728 121.91 153.296 121.573 155.162 121.425C156.095 121.346 156.854 121.315 157.376 121.299C157.893 121.294 158.183 121.299 158.183 121.32Z" fill="#263238"/>
<path d="M129.095 147.634C129.084 147.639 129.037 147.555 128.958 147.386C128.863 147.186 128.752 146.948 128.61 146.653C128.309 146.015 127.903 145.082 127.418 143.922C126.443 141.602 125.193 138.349 123.86 134.749C122.526 131.142 121.313 127.884 120.385 125.549C119.932 124.41 119.558 123.477 119.278 122.781C119.157 122.48 119.062 122.233 118.983 122.027C118.92 121.853 118.888 121.758 118.898 121.758C118.909 121.753 118.956 121.837 119.036 122.006C119.13 122.206 119.241 122.443 119.384 122.739C119.684 123.377 120.09 124.31 120.575 125.47C121.55 127.789 122.8 131.042 124.134 134.648C125.462 138.255 126.68 141.508 127.608 143.848C128.061 144.987 128.436 145.92 128.715 146.616C128.836 146.917 128.931 147.17 129.01 147.37C129.074 147.534 129.105 147.628 129.095 147.634Z" fill="#263238"/>
<path d="M156.021 138.948C156.021 138.959 155.931 138.996 155.752 139.059C155.541 139.127 155.282 139.217 154.971 139.323C154.249 139.555 153.274 139.871 152.088 140.256C149.652 141.047 146.304 142.175 142.603 143.43C138.902 144.684 135.538 145.781 133.087 146.524C131.858 146.893 130.867 147.183 130.176 147.368C129.855 147.452 129.591 147.521 129.38 147.579C129.196 147.621 129.101 147.642 129.096 147.631C129.096 147.621 129.185 147.584 129.365 147.521C129.575 147.452 129.834 147.363 130.145 147.257C130.867 147.025 131.842 146.709 133.029 146.324C135.464 145.533 138.812 144.405 142.513 143.15C146.214 141.895 149.578 140.799 152.03 140.061C153.258 139.692 154.249 139.402 154.94 139.217C155.261 139.133 155.525 139.064 155.736 139.006C155.92 138.959 156.015 138.943 156.021 138.948Z" fill="#263238"/>
<path d="M145.034 11.0609L142.319 12.031L141.159 8.48285C139.018 1.94012 132.181 -1.56059 125.922 0.674798C119.664 2.91546 116.317 10.0592 118.462 16.602L119.622 20.1501L116.897 21.1255C114.777 21.8847 113.628 24.3257 114.355 26.5452L121.916 49.632C122.654 51.8832 124.995 53.0853 127.114 52.3261L155.251 42.2615C157.402 41.4918 158.552 39.0402 157.814 36.789L150.253 13.7023C149.531 11.4827 147.19 10.2912 145.034 11.0609ZM123.587 14.7673C122.411 11.1822 124.246 7.26499 127.678 6.03658C131.105 4.80817 134.853 6.7325 136.024 10.3176L137.184 13.8657L124.747 18.3154L123.587 14.7673ZM139.409 35.2548L141.338 41.1491C141.417 41.3969 141.275 41.6552 141.038 41.7396L138.338 42.7044C138.133 42.7782 137.869 42.6675 137.785 42.4197L135.855 36.5254C133.762 36.4358 131.822 35.0492 131.094 32.8349C130.161 29.9827 131.622 26.8668 134.358 25.8862C137.094 24.9056 140.073 26.4345 141.006 29.2868C141.734 31.5063 141.011 33.8419 139.409 35.2548Z" fill="#11999E"/>
<path d="M142.198 11.9687C142.224 12.0425 137.163 13.9352 130.895 16.2023C124.626 18.4693 119.523 20.246 119.496 20.1775C119.47 20.1036 124.531 18.2109 130.8 15.9439C137.074 13.6769 142.172 11.9002 142.198 11.9687Z" fill="#263238"/>
<path d="M148.174 12.9375C148.179 12.9375 148.2 12.9849 148.237 13.0746C148.279 13.18 148.327 13.3171 148.39 13.4858C148.527 13.8707 148.712 14.4032 148.954 15.0833C149.439 16.4962 150.13 18.5049 150.979 20.9775C151.827 23.4765 152.829 26.4395 153.947 29.7293C154.495 31.3795 155.101 33.0982 155.676 34.9118C155.945 35.8239 156.166 36.794 156.072 37.8062C156.024 38.3071 155.887 38.8079 155.644 39.2666C155.397 39.72 155.049 40.1154 154.648 40.4423C153.836 41.0908 152.887 41.4704 151.97 41.8078C151.047 42.1399 150.14 42.4615 149.249 42.7831C147.467 43.4211 145.749 44.0379 144.109 44.6231C140.835 45.7883 137.888 46.8374 135.405 47.7232C132.937 48.5931 130.934 49.2943 129.526 49.7898C128.846 50.0218 128.308 50.2063 127.923 50.3381C127.75 50.3961 127.612 50.4383 127.507 50.4752C127.412 50.5068 127.365 50.5174 127.359 50.5121C127.359 50.5068 127.402 50.4858 127.496 50.4489C127.602 50.4067 127.739 50.354 127.908 50.2854C128.287 50.1431 128.82 49.9427 129.495 49.6897C130.897 49.173 132.89 48.4402 135.341 47.5386C137.819 46.6371 140.761 45.5721 144.03 44.3859C145.664 43.7954 147.383 43.1733 149.165 42.5301C150.056 42.2085 150.963 41.8816 151.88 41.5495C152.787 41.212 153.715 40.8377 154.479 40.2262C154.859 39.9204 155.181 39.5513 155.407 39.1348C155.634 38.713 155.76 38.2491 155.803 37.7799C155.892 36.8309 155.681 35.8872 155.423 34.9909C154.854 33.1984 154.253 31.4638 153.71 29.8137C152.613 26.5186 151.627 23.5451 150.799 21.0408C149.987 18.5576 149.323 16.5384 148.859 15.1202C148.643 14.4348 148.469 13.8918 148.343 13.5069C148.29 13.3329 148.248 13.1958 148.216 13.0851C148.179 12.9902 148.169 12.9428 148.174 12.9375Z" fill="#263238"/>
<path d="M133.33 5.67003C133.314 5.69112 133.051 5.52768 132.534 5.32206C132.012 5.12172 131.227 4.88975 130.23 4.85812C129.239 4.82121 128.037 4.9741 126.835 5.50132C125.638 6.01799 124.457 6.94062 123.614 8.19539C122.754 9.44489 122.375 10.8895 122.375 12.197C122.364 13.515 122.643 14.6854 122.912 15.6449C123.192 16.6097 123.477 17.3689 123.661 17.9014C123.851 18.4339 123.951 18.7239 123.935 18.7344C123.919 18.7397 123.782 18.4603 123.561 17.9383C123.345 17.4164 123.028 16.6625 122.728 15.6977C122.433 14.7329 122.127 13.5466 122.122 12.1917C122.106 10.842 122.496 9.3289 123.387 8.03722C124.262 6.74027 125.49 5.79129 126.735 5.26407C127.984 4.73158 129.228 4.59978 130.241 4.66305C131.263 4.72104 132.06 4.98992 132.576 5.22189C132.829 5.34842 133.024 5.4486 133.151 5.53295C133.272 5.6173 133.335 5.66475 133.33 5.67003Z" fill="#263238"/>
<path d="M133.572 26.2983C133.567 26.293 133.662 26.2455 133.841 26.1665C134.02 26.0821 134.289 25.9767 134.653 25.8712C135.012 25.7605 135.476 25.6761 136.024 25.6445C136.567 25.6182 137.21 25.6761 137.874 25.9187C139.219 26.3932 140.463 27.7692 141.075 29.5934C141.37 30.516 141.396 31.5862 141.101 32.6196C140.785 33.6476 140.21 34.6388 139.377 35.4718L139.414 35.3295C140.115 37.2485 140.874 39.3416 141.67 41.519L141.718 41.6508L141.586 41.6929C141.206 41.8195 140.795 41.9566 140.379 42.0989C139.493 42.3941 138.612 42.6894 137.753 42.9793L137.621 43.0215L137.579 42.8897C136.857 40.7018 136.066 38.6456 135.491 36.6739L135.607 36.7635C134.527 36.6897 133.556 36.2363 132.787 35.6458C132.012 35.05 131.416 34.3119 131.015 33.5317C130.62 32.7514 130.425 31.9236 130.456 31.1592C130.478 30.3947 130.652 29.7041 130.899 29.1241C131.39 27.9484 132.122 27.2103 132.665 26.8044C133.214 26.4037 133.572 26.2983 133.572 26.2983C133.583 26.3194 133.24 26.4564 132.708 26.8729C132.191 27.2894 131.49 28.0275 131.031 29.1821C130.572 30.3104 130.372 31.9289 131.195 33.442C131.59 34.1907 132.17 34.8971 132.919 35.4665C133.667 36.0307 134.595 36.4524 135.613 36.5157L135.702 36.521L135.729 36.6053C136.309 38.5613 137.105 40.6122 137.832 42.8106L137.658 42.7263C138.518 42.4363 139.393 42.1463 140.278 41.8458C140.69 41.7088 141.101 41.5717 141.486 41.4399L141.401 41.6139C140.611 39.4365 139.857 37.3434 139.161 35.4191L139.134 35.34L139.198 35.2767C139.988 34.4965 140.563 33.5317 140.864 32.551C141.154 31.5599 141.133 30.5423 140.864 29.6566C140.289 27.8852 139.103 26.5408 137.816 26.0663C137.184 25.8185 136.562 25.75 136.029 25.7658C135.497 25.7869 135.038 25.8501 134.679 25.9503C133.947 26.1454 133.578 26.3246 133.572 26.2983Z" fill="#263238"/>
<path d="M117.275 178.522L64.6168 178.279C58.285 178.253 53.171 173.092 53.1974 166.76L53.7562 34.7452C53.7826 28.408 58.944 23.2941 65.2811 23.3204L117.939 23.5629C124.271 23.5946 129.385 28.7507 129.359 35.0826L128.8 167.097C128.774 173.434 123.612 178.548 117.275 178.522Z" fill="#455A64"/>
<path d="M117.865 28.119L107.653 28.0715C106.282 28.0663 105.17 29.2209 105.164 30.6496L105.154 32.5001C105.148 33.9289 104.031 35.0888 102.665 35.0782L82.7629 34.9886C81.3921 34.9833 80.2902 33.8182 80.2955 32.3841L80.3061 30.5336C80.3113 29.1049 79.2094 27.9345 77.8387 27.9292L74.2483 27.9134L65.3121 27.8712C60.8729 27.8501 57.2615 31.4352 57.2404 35.869L56.6974 164.726C56.6763 169.16 60.2561 172.771 64.6952 172.792L117.248 173.035C121.687 173.056 125.299 169.476 125.32 165.037L125.863 36.1801C125.879 31.7515 122.299 28.1401 117.865 28.119Z" fill="white"/>
<path d="M113.017 155.734L69.6512 155.556C69.2007 155.556 68.838 155.119 68.8438 154.582L68.8906 144.483C68.8906 143.947 69.2592 143.514 69.7097 143.52L113.076 143.697C113.526 143.697 113.889 144.134 113.883 144.671L113.836 154.77C113.836 155.306 113.468 155.739 113.017 155.734Z" fill="#EC4B72"/>
<path d="M73.559 153.409L73.464 150.767C73.4645 150.639 73.4898 150.525 73.5398 150.422C73.5915 150.318 73.6583 150.23 73.74 150.157C73.8235 150.084 73.9167 150.027 74.0195 149.989C74.1241 149.95 74.2295 149.934 74.3357 149.94C74.3929 149.806 74.4608 149.674 74.5392 149.545C74.6194 149.416 74.7102 149.301 74.8115 149.199C74.9146 149.096 75.0282 149.015 75.1524 148.953C75.2766 148.89 75.4112 148.859 75.5564 148.859C75.7263 148.86 75.8802 148.898 76.0179 148.973C76.1575 149.046 76.2765 149.145 76.3751 149.27C76.4755 149.394 76.5537 149.537 76.6096 149.698C76.6656 149.858 76.6959 150.023 76.7005 150.195C76.7052 150.338 76.6913 150.486 76.6588 150.638C76.628 150.79 76.5805 150.93 76.5163 151.057C76.452 151.183 76.371 151.285 76.2733 151.364C76.1774 151.445 76.0657 151.485 75.9383 151.485C75.8232 151.484 75.6976 151.468 75.5614 151.435C75.4253 151.404 75.2891 151.365 75.153 151.316C75.0187 151.268 74.8897 151.215 74.766 151.158C74.6441 151.101 74.539 151.046 74.4507 150.995C74.4607 151.161 74.4723 151.337 74.4857 151.523C74.4991 151.711 74.5125 151.89 74.5259 152.062C74.5326 152.156 74.5392 152.254 74.5459 152.354C74.5543 152.455 74.5619 152.557 74.5685 152.66C74.5751 152.763 74.5809 152.864 74.5858 152.963C74.5925 153.064 74.5982 153.16 74.6032 153.252L73.559 153.409ZM75.5338 149.818C75.486 149.811 75.4399 149.818 75.3956 149.841C75.3512 149.864 75.3104 149.895 75.2731 149.934C75.2357 149.972 75.2019 150.016 75.1716 150.063C75.1431 150.109 75.1199 150.152 75.102 150.193C75.1497 150.218 75.2089 150.246 75.2796 150.276C75.352 150.307 75.4271 150.337 75.5049 150.367C75.5826 150.398 75.6578 150.426 75.7302 150.451C75.8027 150.476 75.8646 150.494 75.9159 150.505C75.9214 150.45 75.9199 150.386 75.9114 150.314C75.9028 150.239 75.8837 150.167 75.8539 150.098C75.8258 150.029 75.7854 149.969 75.7325 149.917C75.6814 149.864 75.6151 149.831 75.5338 149.818ZM78.4154 151.568C78.1747 151.567 77.9704 151.533 77.8025 151.467C77.6364 151.402 77.5004 151.313 77.3947 151.199C77.2908 151.084 77.2152 150.949 77.1681 150.795C77.1209 150.639 77.0978 150.469 77.0985 150.287C77.0995 150.048 77.1023 149.808 77.1069 149.568C77.1114 149.327 77.1125 149.085 77.1099 148.843C77.1074 148.598 77.0987 148.353 77.0839 148.107C77.0707 147.859 77.0452 147.609 77.0074 147.355L78.0044 147.057C78.0494 147.291 78.0802 147.534 78.0969 147.785C78.1135 148.035 78.1222 148.287 78.1229 148.542C78.1253 148.795 78.1225 149.047 78.1144 149.296C78.108 149.546 78.1043 149.786 78.1034 150.016C78.103 150.095 78.1027 150.168 78.1024 150.233C78.1039 150.297 78.1134 150.351 78.131 150.395C78.1503 150.438 78.182 150.47 78.2261 150.492C78.2703 150.513 78.3358 150.521 78.4225 150.516L78.4942 150.517L78.4898 151.568L78.4154 151.568ZM78.3891 150.516L78.7184 150.518C78.7821 150.518 78.8538 150.515 78.9335 150.508C79.0149 150.5 79.0902 150.486 79.1593 150.467C79.2302 150.446 79.2897 150.419 79.3376 150.388C79.3873 150.354 79.4122 150.313 79.4125 150.263C79.4126 150.226 79.3978 150.17 79.368 150.096C79.34 150.02 79.3032 149.933 79.2576 149.835C79.212 149.736 79.162 149.63 79.1076 149.518C79.0532 149.407 78.9997 149.297 78.947 149.188L79.8996 148.723C79.9522 148.845 80.003 148.973 80.052 149.106C80.1027 149.239 80.1473 149.372 80.1857 149.505C80.2241 149.638 80.2545 149.769 80.277 149.898C80.3012 150.028 80.3131 150.149 80.3126 150.262C80.3116 150.494 80.2727 150.693 80.1959 150.859C80.1191 151.023 80.0123 151.158 79.8755 151.264C79.7388 151.369 79.5747 151.447 79.3833 151.495C79.1937 151.546 78.9847 151.57 78.7564 151.569L78.3847 151.568L78.3891 150.516ZM79.2447 148.484L78.6578 147.891L79.2497 147.305L79.8367 147.897L79.2447 148.484ZM88.3556 151.614C88.0724 151.612 87.8292 151.564 87.626 151.47C87.4229 151.377 87.2526 151.233 87.1154 151.04C86.9893 151.145 86.8499 151.234 86.6974 151.306C86.5449 151.378 86.3791 151.436 86.2001 151.482C86.0229 151.527 85.8325 151.559 85.6288 151.577C85.4252 151.598 85.2083 151.607 84.9782 151.606C84.6666 151.605 84.3773 151.585 84.1102 151.546C83.8448 151.51 83.6069 151.454 83.3966 151.378C83.1863 151.303 83.0052 151.209 82.8535 151.097C82.7017 150.983 82.5837 150.85 82.4994 150.697C82.4203 150.553 82.3678 150.412 82.3418 150.272C82.3159 150.13 82.3112 149.986 82.3277 149.841C82.346 149.695 82.383 149.543 82.4385 149.388C82.494 149.232 82.5638 149.069 82.6477 148.898L83.4608 149.374C83.4305 149.436 83.4019 149.505 83.375 149.581C83.3481 149.655 83.3266 149.729 83.3103 149.803C83.2959 149.878 83.2885 149.948 83.2882 150.013C83.2897 150.077 83.3028 150.13 83.3274 150.173C83.373 150.26 83.4488 150.328 83.5548 150.378C83.6608 150.426 83.7873 150.463 83.9341 150.489C84.0809 150.512 84.2437 150.528 84.4224 150.536C84.603 150.542 84.7897 150.546 84.9827 150.547C85.1632 150.547 85.334 150.544 85.4952 150.536C85.6581 150.526 85.8077 150.509 85.9441 150.485C86.0823 150.461 86.2063 150.428 86.3163 150.388C86.428 150.346 86.522 150.294 86.5984 150.23C86.6588 150.181 86.7095 150.123 86.7505 150.056C86.7932 149.989 86.8298 149.915 86.8603 149.836C86.8907 149.756 86.9167 149.672 86.9383 149.584C86.96 149.495 86.9816 149.406 87.0032 149.316L87.9501 149.559L87.8332 150.204C87.8241 150.255 87.8301 150.303 87.8512 150.347C87.8722 150.39 87.9057 150.427 87.9516 150.459C87.9993 150.492 88.0576 150.517 88.1265 150.535C88.1973 150.553 88.2751 150.562 88.3601 150.562L88.4557 150.563L88.4512 151.614L88.3556 151.614ZM85.1048 148.662L84.6035 149.159L84.0906 148.644L84.6025 148.134L85.1049 148.641L85.6062 148.144L86.1191 148.659L85.6072 149.169L85.1048 148.662ZM90.3268 150.571L90.3224 151.623L90.264 151.623C90.0976 151.622 89.9481 151.593 89.8156 151.535C89.6831 151.48 89.5825 151.402 89.5139 151.3C89.4125 151.411 89.2679 151.491 89.0801 151.54C88.894 151.591 88.6815 151.615 88.4425 151.614L88.3416 151.614L88.3461 150.562L88.447 150.563C88.5602 150.563 88.6567 150.561 88.7364 150.556C88.8179 150.551 88.8834 150.538 88.9331 150.517C88.9845 150.496 89.0218 150.465 89.045 150.425C89.0699 150.384 89.0834 150.328 89.0855 150.258C89.0876 150.187 89.0791 150.099 89.0601 149.995C89.0428 149.888 89.0186 149.761 88.9873 149.612L89.9336 149.383C89.9492 149.45 89.9639 149.531 89.9777 149.624C89.9932 149.717 90.0061 149.812 90.0163 149.911C90.0265 150.009 90.0323 150.104 90.0337 150.198C90.0351 150.29 90.0303 150.368 90.0194 150.432C90.0352 150.467 90.0537 150.495 90.0748 150.514C90.096 150.532 90.1181 150.546 90.141 150.555C90.164 150.562 90.1861 150.566 90.2074 150.568C90.2286 150.57 90.249 150.571 90.2684 150.571L90.3268 150.571ZM89.2838 152.967L88.6969 152.375L89.2888 151.788L89.8758 152.38L89.2838 152.967ZM90.2214 150.571L90.7577 150.573C90.8002 150.574 90.8489 150.572 90.9038 150.569C90.9587 150.565 91.0144 150.56 91.0711 150.554C91.1296 150.545 91.1863 150.535 91.2412 150.522C91.2979 150.509 91.3475 150.492 91.3901 150.473C91.4344 150.453 91.4699 150.431 91.4966 150.407C91.5232 150.382 91.5366 150.353 91.5368 150.319C91.5369 150.282 91.5221 150.226 91.4923 150.152C91.4643 150.076 91.4275 149.989 91.3819 149.891C91.3363 149.792 91.2863 149.686 91.2319 149.574C91.1775 149.463 91.124 149.353 91.0713 149.244L92.0239 148.779C92.0765 148.901 92.1273 149.029 92.1763 149.162C92.227 149.295 92.2716 149.428 92.31 149.561C92.3484 149.694 92.3788 149.825 92.4013 149.954C92.4255 150.084 92.4374 150.205 92.4369 150.318C92.4359 150.55 92.3926 150.749 92.3069 150.915C92.2213 151.079 92.1048 151.214 91.9574 151.32C91.81 151.425 91.6362 151.502 91.436 151.551C91.2375 151.601 91.0241 151.626 90.7957 151.625L90.2169 151.622L90.2214 150.571ZM91.3955 147.929L90.8942 148.426L90.3813 147.911L90.8933 147.401L91.3956 147.908L91.8969 147.411L92.4099 147.926L91.8979 148.436L91.3955 147.929ZM91.8741 147.156L91.3995 147.626L90.9262 147.149L91.4008 146.678L91.8741 147.156ZM94.3995 152.486C94.6174 152.441 94.8194 152.388 95.0055 152.327C95.1917 152.266 95.3583 152.199 95.5056 152.127C95.6546 152.055 95.7815 151.979 95.8862 151.898C95.9928 151.817 96.0746 151.734 96.1316 151.65C96.105 151.649 96.0758 151.648 96.044 151.647C96.0121 151.646 95.9802 151.645 95.9484 151.643C95.9183 151.642 95.8891 151.64 95.8608 151.638C95.8342 151.638 95.8121 151.637 95.7944 151.635C95.6051 151.618 95.4335 151.581 95.2798 151.524C95.126 151.466 94.9945 151.388 94.8851 151.288C94.7758 151.187 94.6914 151.064 94.6318 150.92C94.5722 150.777 94.5428 150.611 94.5436 150.424C94.5441 150.308 94.5588 150.19 94.5876 150.068C94.6182 149.946 94.6603 149.827 94.7139 149.71C94.7675 149.593 94.8308 149.484 94.9038 149.382C94.9786 149.279 95.0604 149.189 95.1492 149.112C95.2381 149.034 95.3322 148.974 95.4315 148.93C95.5326 148.884 95.6362 148.862 95.7424 148.862C95.8911 148.863 96.0299 148.896 96.1589 148.96C96.2878 149.024 96.4043 149.111 96.5083 149.219C96.614 149.328 96.7073 149.454 96.7881 149.597C96.869 149.739 96.9365 149.889 96.9907 150.047C97.0467 150.205 97.0885 150.365 97.1161 150.528C97.1437 150.69 97.1572 150.845 97.1566 150.993C97.1556 151.229 97.1237 151.447 97.0609 151.649C96.9999 151.852 96.9132 152.038 96.801 152.208C96.6905 152.379 96.558 152.534 96.4034 152.673C96.2488 152.812 96.0783 152.935 95.892 153.043C95.7057 153.151 95.507 153.244 95.2961 153.321C95.0851 153.398 94.8671 153.46 94.6421 153.507L94.3995 152.486ZM95.7196 149.866C95.6683 149.866 95.6204 149.882 95.576 149.916C95.5316 149.949 95.4925 149.992 95.4586 150.043C95.4266 150.092 95.4007 150.146 95.3809 150.204C95.363 150.261 95.3539 150.314 95.3537 150.364C95.3536 150.397 95.3685 150.426 95.3985 150.451C95.4302 150.476 95.4717 150.498 95.523 150.516C95.5743 150.532 95.6326 150.545 95.6981 150.556C95.7635 150.567 95.8299 150.576 95.8971 150.581C95.9661 150.587 96.0325 150.591 96.0962 150.593C96.1617 150.595 96.2201 150.596 96.2714 150.596C96.2629 150.515 96.2429 150.43 96.2114 150.344C96.1817 150.257 96.1422 150.179 96.0929 150.109C96.0455 150.038 95.9899 149.981 95.9264 149.936C95.8629 149.89 95.7939 149.866 95.7196 149.866ZM99.633 150.213C99.8255 150.331 100.015 150.426 100.203 150.497C100.39 150.569 100.558 150.612 100.707 150.627C100.774 150.633 100.838 150.635 100.9 150.633C100.962 150.632 101.019 150.626 101.07 150.616C101.122 150.605 101.165 150.591 101.201 150.574C101.238 150.554 101.264 150.53 101.278 150.5C101.303 150.45 101.298 150.388 101.263 150.314C101.228 150.239 101.172 150.159 101.097 150.071C101.023 149.983 100.935 149.891 100.832 149.797C100.73 149.701 100.623 149.606 100.512 149.514C100.403 149.421 100.294 149.333 100.187 149.249C100.081 149.166 99.9874 149.092 99.9062 149.028L100.502 148.152C100.638 148.255 100.771 148.363 100.902 148.475C101.034 148.587 101.159 148.703 101.277 148.824C101.397 148.943 101.507 149.068 101.608 149.198C101.71 149.325 101.798 149.459 101.871 149.597C101.945 149.734 102.002 149.876 102.042 150.023C102.084 150.17 102.105 150.321 102.104 150.477C102.103 150.658 102.071 150.823 102.006 150.973C101.944 151.123 101.854 151.253 101.736 151.362C101.621 151.47 101.48 151.553 101.313 151.612C101.147 151.672 100.96 151.701 100.753 151.7L100.71 151.7C100.703 151.7 100.696 151.699 100.689 151.697C100.682 151.697 100.675 151.697 100.668 151.697C100.54 151.697 100.413 151.684 100.285 151.661C100.158 151.637 100.033 151.604 99.9088 151.561C99.7868 151.518 99.6658 151.467 99.5457 151.408C99.4255 151.349 99.3081 151.284 99.1933 151.212L99.633 150.213ZM102.224 152.522C102.442 152.477 102.644 152.424 102.83 152.363C103.016 152.302 103.183 152.235 103.33 152.163C103.479 152.092 103.606 152.015 103.711 151.934C103.817 151.853 103.899 151.77 103.956 151.686C103.93 151.686 103.9 151.685 103.869 151.683C103.837 151.683 103.805 151.682 103.773 151.68C103.743 151.678 103.714 151.676 103.685 151.674C103.659 151.674 103.637 151.673 103.619 151.671C103.43 151.654 103.258 151.617 103.104 151.56C102.951 151.502 102.819 151.424 102.71 151.324C102.6 151.223 102.516 151.1 102.456 150.957C102.397 150.813 102.367 150.647 102.368 150.46C102.369 150.345 102.383 150.226 102.412 150.104C102.443 149.982 102.485 149.863 102.538 149.746C102.592 149.63 102.655 149.52 102.728 149.418C102.803 149.315 102.885 149.226 102.974 149.148C103.063 149.071 103.157 149.01 103.256 148.966C103.357 148.921 103.461 148.898 103.567 148.899C103.716 148.899 103.854 148.932 103.983 148.996C104.112 149.06 104.229 149.147 104.333 149.255C104.439 149.364 104.532 149.49 104.613 149.634C104.694 149.776 104.761 149.926 104.815 150.083C104.871 150.241 104.913 150.402 104.941 150.564C104.968 150.726 104.982 150.881 104.981 151.029C104.98 151.265 104.948 151.483 104.885 151.685C104.824 151.888 104.738 152.074 104.626 152.244C104.515 152.415 104.383 152.57 104.228 152.709C104.073 152.848 103.903 152.972 103.717 153.079C103.53 153.188 103.332 153.28 103.121 153.357C102.91 153.434 102.692 153.496 102.467 153.543L102.224 152.522ZM103.544 149.902C103.493 149.902 103.445 149.919 103.401 149.952C103.356 149.985 103.317 150.028 103.283 150.079C103.251 150.128 103.225 150.182 103.205 150.24C103.188 150.297 103.178 150.35 103.178 150.4C103.178 150.433 103.193 150.463 103.223 150.488C103.255 150.512 103.296 150.534 103.348 150.552C103.399 150.568 103.457 150.582 103.523 150.592C103.588 150.603 103.654 150.612 103.722 150.617C103.791 150.623 103.857 150.627 103.921 150.629C103.986 150.631 104.045 150.632 104.096 150.632C104.087 150.551 104.067 150.467 104.036 150.38C104.006 150.293 103.967 150.215 103.917 150.146C103.87 150.075 103.814 150.017 103.751 149.972C103.687 149.926 103.618 149.903 103.544 149.902ZM106.663 149.595C106.705 149.718 106.747 149.847 106.789 149.984C106.831 150.12 106.868 150.257 106.901 150.396C106.936 150.534 106.964 150.671 106.984 150.808C107.005 150.942 107.015 151.071 107.015 151.195C107.014 151.445 106.968 151.684 106.879 151.912C106.789 152.141 106.665 152.357 106.504 152.558C106.346 152.761 106.158 152.947 105.942 153.118C105.725 153.291 105.489 153.444 105.234 153.577L104.592 152.746C104.782 152.645 104.965 152.534 105.143 152.411C105.32 152.29 105.479 152.162 105.617 152.028C105.758 151.894 105.871 151.757 105.959 151.615C106.046 151.474 106.095 151.335 106.107 151.197C106.077 151.095 106.045 150.994 106.01 150.891C105.976 150.788 105.941 150.687 105.905 150.588C105.87 150.488 105.834 150.392 105.797 150.298C105.76 150.204 105.725 150.116 105.692 150.034L106.663 149.595ZM107.144 152.545C107.362 152.5 107.564 152.447 107.75 152.386C107.936 152.325 108.103 152.258 108.25 152.186C108.399 152.114 108.526 152.038 108.631 151.957C108.737 151.876 108.819 151.793 108.876 151.709C108.85 151.708 108.821 151.707 108.789 151.705C108.757 151.705 108.725 151.704 108.693 151.702C108.663 151.7 108.634 151.699 108.605 151.697C108.579 151.697 108.557 151.696 108.539 151.694C108.35 151.677 108.178 151.64 108.024 151.582C107.871 151.525 107.739 151.447 107.63 151.347C107.521 151.246 107.436 151.123 107.376 150.979C107.317 150.836 107.288 150.67 107.288 150.482C107.289 150.367 107.303 150.249 107.332 150.127C107.363 150.005 107.405 149.886 107.459 149.769C107.512 149.652 107.576 149.543 107.649 149.441C107.723 149.338 107.805 149.248 107.894 149.171C107.983 149.093 108.077 149.033 108.176 148.989C108.277 148.943 108.381 148.921 108.487 148.921C108.636 148.922 108.775 148.955 108.904 149.019C109.033 149.083 109.149 149.17 109.253 149.278C109.359 149.386 109.452 149.513 109.533 149.656C109.614 149.798 109.681 149.948 109.735 150.106C109.791 150.264 109.833 150.424 109.861 150.587C109.888 150.748 109.902 150.903 109.901 151.052C109.9 151.288 109.868 151.506 109.806 151.707C109.745 151.911 109.658 152.097 109.546 152.267C109.435 152.438 109.303 152.593 109.148 152.732C108.994 152.871 108.823 152.994 108.637 153.101C108.45 153.21 108.252 153.303 108.041 153.38C107.83 153.457 107.612 153.519 107.387 153.566L107.144 152.545ZM108.464 149.925C108.413 149.925 108.365 149.941 108.321 149.975C108.276 150.008 108.237 150.05 108.203 150.102C108.171 150.151 108.145 150.205 108.126 150.263C108.108 150.32 108.099 150.373 108.098 150.422C108.098 150.456 108.113 150.485 108.143 150.51C108.175 150.535 108.216 150.557 108.268 150.575C108.319 150.591 108.377 150.604 108.443 150.615C108.508 150.626 108.575 150.634 108.642 150.64C108.711 150.646 108.777 150.649 108.841 150.652C108.906 150.654 108.965 150.655 109.016 150.655C109.008 150.574 108.988 150.489 108.956 150.402C108.926 150.316 108.887 150.238 108.838 150.168C108.79 150.097 108.735 150.039 108.671 149.995C108.608 149.949 108.539 149.925 108.464 149.925Z" fill="white"/>
<path d="M79.5014 65.9923L65.9414 65.9297L65.9299 68.4181L79.4899 68.4807L79.5014 65.9923Z" fill="#11999E"/>
<path opacity="0.1" d="M79.5014 65.9923L65.9414 65.9297L65.9299 68.4181L79.4899 68.4807L79.5014 65.9923Z" fill="black"/>
<path d="M119.26 81.2584C119.26 81.2479 119.37 81.2637 119.571 81.1846C119.755 81.1108 120.05 80.8894 120.082 80.4729C120.082 79.6346 120.077 78.4115 120.077 76.8404C120.077 76.0495 120.077 75.1744 120.077 74.2148C120.077 73.9723 120.077 73.7298 120.077 73.482C120.082 73.2237 120.082 72.9864 119.929 72.7913C119.792 72.5963 119.555 72.4697 119.307 72.4697C119.038 72.4697 118.759 72.4697 118.479 72.4697C116.239 72.4645 113.682 72.4592 110.866 72.4539C99.5734 72.4118 83.9836 72.3538 66.7701 72.2905C66.5434 72.2905 66.3219 72.4012 66.1901 72.5857C66.0425 72.7703 66.0478 72.9917 66.053 73.2764C66.053 73.8089 66.0478 74.3466 66.0478 74.8738C66.0425 75.9388 66.0372 76.9932 66.032 78.0424C66.032 78.5644 66.0267 79.0916 66.0267 79.6082C66.0372 79.856 66.0003 80.1565 66.0478 80.3516C66.1005 80.5625 66.2587 80.7417 66.459 80.8261C66.5645 80.8683 66.6593 80.8841 66.7859 80.8841H67.1708L67.9405 80.8894C68.4519 80.8894 68.9633 80.8946 69.4694 80.8946C73.529 80.9157 77.4462 80.9368 81.1789 80.9579C88.6389 81.0054 95.3557 81.0423 101.002 81.0792C106.638 81.1213 111.204 81.1583 114.367 81.1846C115.938 81.2004 117.161 81.2162 118 81.2268C118.406 81.2321 118.722 81.2426 118.943 81.2426C119.154 81.2479 119.26 81.2584 119.26 81.2584C119.26 81.2584 119.149 81.269 118.938 81.269C118.717 81.269 118.4 81.2742 117.994 81.2795C117.151 81.2795 115.928 81.2848 114.362 81.2901C111.198 81.2848 106.633 81.2795 100.997 81.2742C95.3504 81.2584 88.6337 81.2373 81.1736 81.211C77.4409 81.1952 73.5237 81.1793 69.4641 81.1635C68.958 81.1635 68.4466 81.1582 67.9352 81.1582L67.1655 81.153H66.7806C66.6488 81.1583 66.4854 81.1372 66.3483 81.0739C66.0741 80.9579 65.8527 80.7101 65.7789 80.4202C65.7367 80.2725 65.7473 80.1196 65.7473 79.9984V79.6082C65.7473 79.0863 65.7525 78.5644 65.7525 78.0424C65.7578 76.9932 65.7631 75.9388 65.7631 74.8738C65.7631 74.3414 65.7684 73.8089 65.7684 73.2764C65.7736 73.1393 65.7631 73.018 65.7842 72.8546C65.8053 72.7017 65.8685 72.5541 65.9582 72.4276C66.1374 72.1745 66.4485 72.0163 66.7595 72.0216C83.9731 72.1165 99.5628 72.2009 110.856 72.2641C113.676 72.2852 116.228 72.301 118.474 72.3221C118.753 72.3221 119.028 72.3274 119.302 72.3274C119.597 72.3327 119.876 72.4803 120.04 72.7123C120.219 72.939 120.219 73.25 120.209 73.4873C120.209 73.7351 120.203 73.9829 120.203 74.2254C120.193 75.1849 120.187 76.0601 120.182 76.8509C120.161 78.422 120.145 79.6451 120.14 80.4887C120.093 80.9263 119.776 81.153 119.586 81.2215C119.376 81.2848 119.26 81.2584 119.26 81.2584Z" fill="#E0E0E0"/>
<path d="M94.3803 75.6126L69.5801 75.498L69.5693 77.8231L94.3695 77.9376L94.3803 75.6126Z" fill="#11999E"/>
<path opacity="0.2" d="M94.3803 75.6126L69.5801 75.498L69.5693 77.8231L94.3695 77.9376L94.3803 75.6126Z" fill="white"/>
<path d="M79.4096 88.6934L65.8496 88.6309L65.8381 91.1193L79.3981 91.1819L79.4096 88.6934Z" fill="#11999E"/>
<path opacity="0.1" d="M79.4096 88.6934L65.8496 88.6309L65.8381 91.1193L79.3981 91.1819L79.4096 88.6934Z" fill="black"/>
<path d="M118.908 103.962C118.908 103.951 119.019 103.962 119.22 103.904C119.409 103.841 119.72 103.682 119.889 103.308C119.979 103.124 119.989 102.897 119.979 102.638C119.979 102.38 119.979 102.101 119.973 101.8C119.973 101.194 119.973 100.493 119.968 99.7124C119.968 98.9269 119.968 98.0517 119.968 97.0974C119.968 96.8602 119.968 96.6124 119.968 96.3646C119.979 96.1116 119.947 95.8796 119.815 95.6687C119.689 95.4631 119.483 95.2996 119.241 95.2258C119.003 95.152 118.724 95.1942 118.444 95.1784C116.209 95.1731 113.668 95.1678 110.853 95.1626C99.5966 95.1204 84.0648 95.0624 66.9092 94.9991C66.4347 94.9886 65.9919 95.3787 65.9444 95.8479C65.9286 96.3488 65.9339 96.9024 65.9286 97.4243C65.9233 98.484 65.9181 99.5384 65.9128 100.582C65.9128 101.104 65.9075 101.626 65.9075 102.143C65.9181 102.401 65.8812 102.67 65.9392 102.881C65.9971 103.097 66.1395 103.292 66.324 103.424C66.5191 103.556 66.7247 103.603 66.9778 103.593L67.7422 103.598C68.2536 103.598 68.7598 103.603 69.2659 103.603C73.3096 103.624 77.2163 103.645 80.9332 103.667C88.3669 103.714 95.0625 103.751 100.688 103.788C106.303 103.83 110.853 103.867 114.005 103.893C115.571 103.914 116.789 103.925 117.627 103.935C118.033 103.946 118.344 103.951 118.571 103.951C118.803 103.951 118.908 103.962 118.908 103.962C118.908 103.962 118.798 103.972 118.587 103.972C118.365 103.972 118.054 103.978 117.643 103.983C116.805 103.983 115.587 103.988 114.021 103.993C110.868 103.988 106.319 103.983 100.704 103.978C95.0783 103.962 88.3827 103.941 80.949 103.914C77.2321 103.899 73.3254 103.883 69.2817 103.867C68.7756 103.867 68.2694 103.862 67.758 103.862L66.9936 103.856C66.7352 103.872 66.4189 103.809 66.1869 103.64C65.9497 103.477 65.7704 103.229 65.6914 102.95C65.6123 102.654 65.6597 102.396 65.6492 102.143C65.6492 101.626 65.6544 101.104 65.6544 100.582C65.6597 99.5384 65.665 98.484 65.665 97.4243C65.6703 96.8866 65.6597 96.3804 65.6808 95.8163C65.7388 95.21 66.3029 94.7092 66.9198 94.725C84.0754 94.8199 99.6071 94.9042 110.863 94.9675C113.673 94.9886 116.214 95.0044 118.45 95.0255C118.724 95.0413 119.003 94.9939 119.288 95.0835C119.562 95.1678 119.794 95.3576 119.937 95.5949C120.089 95.8269 120.121 96.1221 120.105 96.3646C120.105 96.6124 120.1 96.8602 120.1 97.0974C120.089 98.0517 120.084 98.9269 120.079 99.7124C120.068 100.498 120.063 101.194 120.058 101.8C120.053 102.101 120.053 102.38 120.047 102.638C120.053 102.892 120.037 103.139 119.937 103.329C119.752 103.719 119.425 103.877 119.225 103.93C119.019 103.978 118.908 103.962 118.908 103.962Z" fill="#E0E0E0"/>
<path d="M79.308 112.375L65.748 112.312L65.7366 114.801L79.2966 114.863L79.308 112.375Z" fill="#11999E"/>
<path opacity="0.1" d="M79.308 112.375L65.748 112.312L65.7366 114.801L79.2966 114.863L79.308 112.375Z" fill="black"/>
<path d="M118.811 127.639C118.811 127.628 118.922 127.639 119.122 127.581C119.312 127.518 119.623 127.36 119.791 126.985C119.881 126.801 119.892 126.574 119.881 126.316C119.881 126.057 119.881 125.778 119.876 125.477C119.876 124.871 119.876 124.17 119.87 123.39C119.87 122.604 119.87 121.729 119.87 120.775C119.87 120.537 119.87 120.29 119.87 120.042C119.881 119.789 119.849 119.557 119.718 119.346C119.591 119.14 119.385 118.977 119.143 118.903C118.906 118.829 118.626 118.871 118.347 118.856C116.111 118.85 113.57 118.845 110.76 118.84C99.5042 118.798 83.9724 118.74 66.8168 118.676C66.3423 118.666 65.8995 119.051 65.852 119.525C65.8362 120.026 65.8415 120.58 65.8362 121.101C65.831 122.161 65.8257 123.216 65.8204 124.259C65.8204 124.781 65.8151 125.303 65.8151 125.82C65.8257 126.078 65.7888 126.347 65.8468 126.558C65.9048 126.774 66.0471 126.969 66.2316 127.101C66.4267 127.233 66.6323 127.28 66.8854 127.27L67.6498 127.275C68.1612 127.275 68.6674 127.28 69.1735 127.28C73.2172 127.302 77.1239 127.323 80.8408 127.344C88.2745 127.391 94.9701 127.428 100.596 127.465C106.21 127.507 110.76 127.544 113.913 127.57C115.479 127.591 116.697 127.602 117.535 127.613C117.941 127.618 118.257 127.628 118.479 127.628C118.705 127.628 118.811 127.639 118.811 127.639C118.811 127.639 118.7 127.649 118.489 127.649C118.268 127.649 117.957 127.655 117.545 127.66C116.707 127.66 115.489 127.665 113.924 127.671C110.771 127.665 106.221 127.66 100.606 127.655C94.9807 127.639 88.285 127.618 80.8513 127.591C77.1344 127.576 73.2278 127.56 69.184 127.544C68.6779 127.544 68.1718 127.539 67.6604 127.539L66.8959 127.533C66.6376 127.549 66.3213 127.486 66.0893 127.317C65.852 127.154 65.6728 126.906 65.5937 126.627C65.5146 126.331 65.5621 126.073 65.5515 125.815C65.5515 125.298 65.5568 124.776 65.5568 124.254C65.5621 123.21 65.5673 122.156 65.5673 121.096C65.5726 120.558 65.5621 120.052 65.5832 119.488C65.6411 118.882 66.2053 118.381 66.8221 118.397C83.9777 118.492 99.5095 118.576 110.765 118.639C113.576 118.66 116.117 118.676 118.352 118.697C118.626 118.713 118.906 118.666 119.19 118.755C119.465 118.84 119.697 119.03 119.839 119.267C119.992 119.499 120.023 119.794 120.008 120.036C120.008 120.284 120.002 120.532 120.002 120.769C119.992 121.724 119.986 122.599 119.981 123.384C119.971 124.17 119.965 124.866 119.96 125.472C119.955 125.773 119.955 126.052 119.95 126.31C119.955 126.563 119.939 126.811 119.839 127.001C119.654 127.391 119.327 127.549 119.127 127.602C118.927 127.66 118.811 127.639 118.811 127.639Z" fill="#E0E0E0"/>
<path d="M94.2865 98.3138L69.4863 98.1992L69.4756 100.524L94.2758 100.639L94.2865 98.3138Z" fill="#11999E"/>
<path opacity="0.2" d="M94.2865 98.3138L69.4863 98.1992L69.4756 100.524L94.2758 100.639L94.2865 98.3138Z" fill="white"/>
<path d="M71.7346 123.334C71.7294 123.972 71.2443 124.488 70.6433 124.483C70.0423 124.478 69.5625 123.961 69.5625 123.323C69.5678 122.685 70.0528 122.169 70.6538 122.174C71.2549 122.174 71.7399 122.696 71.7346 123.334Z" fill="#11999E"/>
<path d="M75.094 123.349C75.0887 123.987 74.6037 124.504 74.0027 124.499C73.4016 124.499 72.9219 123.977 72.9219 123.339C72.9219 122.701 73.4122 122.184 74.0132 122.189C74.6142 122.189 75.0993 122.706 75.094 123.349Z" fill="#11999E"/>
<path d="M78.4573 123.367C78.4573 124.005 77.967 124.522 77.3659 124.516C76.7649 124.516 76.2852 123.994 76.2852 123.356C76.2904 122.718 76.7755 122.202 77.3765 122.207C77.9775 122.207 78.4573 122.724 78.4573 123.367Z" fill="#11999E"/>
<path d="M81.8167 123.385C81.8167 124.022 81.3263 124.539 80.7253 124.534C80.1243 124.534 79.6445 124.012 79.6445 123.374C79.6445 122.736 80.1348 122.219 80.7359 122.225C81.3369 122.225 81.8219 122.741 81.8167 123.385Z" fill="#11999E"/>
<path d="M85.1741 123.392C85.1741 124.03 84.6838 124.547 84.0827 124.542C83.4817 124.542 83.002 124.02 83.002 123.382C83.0072 122.744 83.4923 122.227 84.0933 122.232C84.6943 122.238 85.1793 122.754 85.1741 123.392Z" fill="#11999E"/>
<path d="M88.5393 123.408C88.5393 124.046 88.049 124.563 87.448 124.557C86.8469 124.557 86.3672 124.035 86.3672 123.397C86.3672 122.759 86.8575 122.243 87.4585 122.248C88.0543 122.253 88.5393 122.77 88.5393 123.408Z" fill="#11999E"/>
<path d="M91.8967 123.424C91.8915 124.062 91.4064 124.578 90.8054 124.573C90.2044 124.568 89.7246 124.051 89.7246 123.413C89.7246 122.775 90.2149 122.258 90.8159 122.264C91.417 122.269 91.8967 122.786 91.8967 123.424Z" fill="#11999E"/>
<path d="M95.2542 123.441C95.2542 124.079 94.7638 124.596 94.1628 124.59C93.5618 124.585 93.082 124.069 93.082 123.431C93.082 122.793 93.5723 122.276 94.1734 122.281C94.7744 122.281 95.2594 122.803 95.2542 123.441Z" fill="#11999E"/>
<path d="M98.6135 123.455C98.6135 124.093 98.1232 124.609 97.5222 124.604C96.9212 124.604 96.4414 124.082 96.4414 123.444C96.4467 122.806 96.9317 122.29 97.5327 122.295C98.1338 122.295 98.6188 122.817 98.6135 123.455Z" fill="#11999E"/>
<g opacity="0.2">
<g opacity="0.2">
<path opacity="0.2" d="M71.7346 123.334C71.7294 123.972 71.2443 124.488 70.6433 124.483C70.0423 124.478 69.5625 123.961 69.5625 123.323C69.5678 122.685 70.0528 122.169 70.6538 122.174C71.2549 122.174 71.7399 122.696 71.7346 123.334Z" fill="white"/>
</g>
<g opacity="0.2">
<path opacity="0.2" d="M75.094 123.349C75.0887 123.987 74.6037 124.504 74.0027 124.499C73.4016 124.499 72.9219 123.977 72.9219 123.339C72.9219 122.701 73.4122 122.184 74.0132 122.189C74.6142 122.189 75.0993 122.706 75.094 123.349Z" fill="white"/>
</g>
<g opacity="0.2">
<path opacity="0.2" d="M78.4573 123.367C78.4573 124.005 77.967 124.522 77.3659 124.516C76.7649 124.516 76.2852 123.994 76.2852 123.356C76.2904 122.718 76.7755 122.202 77.3765 122.207C77.9775 122.207 78.4573 122.724 78.4573 123.367Z" fill="white"/>
</g>
<g opacity="0.2">
<path opacity="0.2" d="M81.8167 123.385C81.8167 124.022 81.3263 124.539 80.7253 124.534C80.1243 124.534 79.6445 124.012 79.6445 123.374C79.6445 122.736 80.1348 122.219 80.7359 122.225C81.3369 122.225 81.8219 122.741 81.8167 123.385Z" fill="white"/>
</g>
<g opacity="0.2">
<path opacity="0.2" d="M85.1741 123.392C85.1741 124.03 84.6838 124.547 84.0827 124.542C83.4817 124.542 83.002 124.02 83.002 123.382C83.0072 122.744 83.4923 122.227 84.0933 122.232C84.6943 122.238 85.1793 122.754 85.1741 123.392Z" fill="white"/>
</g>
<g opacity="0.2">
<path opacity="0.2" d="M88.5393 123.408C88.5393 124.046 88.049 124.563 87.448 124.557C86.8469 124.557 86.3672 124.035 86.3672 123.397C86.3672 122.759 86.8575 122.243 87.4585 122.248C88.0543 122.253 88.5393 122.77 88.5393 123.408Z" fill="white"/>
</g>
<g opacity="0.2">
<path opacity="0.2" d="M91.8967 123.424C91.8915 124.062 91.4064 124.578 90.8054 124.573C90.2044 124.568 89.7246 124.051 89.7246 123.413C89.7246 122.775 90.2149 122.258 90.8159 122.264C91.417 122.269 91.8967 122.786 91.8967 123.424Z" fill="white"/>
</g>
<g opacity="0.2">
<path opacity="0.2" d="M95.2542 123.441C95.2542 124.079 94.7638 124.596 94.1628 124.59C93.5618 124.585 93.082 124.069 93.082 123.431C93.082 122.793 93.5723 122.276 94.1734 122.281C94.7744 122.281 95.2594 122.803 95.2542 123.441Z" fill="white"/>
</g>
<g opacity="0.2">
<path opacity="0.2" d="M98.6135 123.455C98.6135 124.093 98.1232 124.609 97.5222 124.604C96.9212 124.604 96.4414 124.082 96.4414 123.444C96.4467 122.806 96.9317 122.29 97.5327 122.295C98.1338 122.295 98.6188 122.817 98.6135 123.455Z" fill="white"/>
</g>
</g>
<path d="M93.8429 47.3493C94.5547 47.054 95.0555 46.3212 95.0608 45.4566C95.0661 44.3283 94.212 43.4057 93.1523 43.4004C92.0926 43.3951 91.2332 44.3072 91.228 45.4355C91.2227 46.3054 91.7341 47.0435 92.4511 47.344C89.4987 47.7868 89.6358 50.9976 89.6358 50.9976L96.6108 51.0292C96.6108 51.0292 96.769 47.7868 93.8429 47.3493Z" fill="#11999E"/>
<path opacity="0.1" d="M93.8429 47.3493C94.5547 47.054 95.0555 46.3212 95.0608 45.4566C95.0661 44.3283 94.212 43.4057 93.1523 43.4004C92.0926 43.3951 91.2332 44.3072 91.228 45.4355C91.2227 46.3054 91.7341 47.0435 92.4511 47.344C89.4987 47.7868 89.6358 50.9976 89.6358 50.9976L96.6108 51.0292C96.6108 51.0292 96.769 47.7868 93.8429 47.3493Z" fill="black"/>
<path d="M105.182 53.1324L80.3027 53.0176L80.289 55.9911L105.168 56.1059L105.182 53.1324Z" fill="#11999E"/>
<path opacity="0.2" d="M105.182 53.1324L80.3027 53.0176L80.289 55.9911L105.168 56.1059L105.182 53.1324Z" fill="white"/>
<path d="M13.7183 68.5248C13.7183 68.5301 13.6339 68.5406 13.4757 68.5512C13.3018 68.5617 13.0645 68.5828 12.7587 68.6039C12.4424 68.6092 12.0575 68.6777 11.6041 68.7568C11.3774 68.8042 11.1296 68.82 10.8713 68.8939C10.613 68.9677 10.3441 69.0415 10.0541 69.1206C8.91533 69.4791 7.54458 70.0485 6.16855 71.0502C4.79251 72.0413 3.41648 73.4595 2.34096 75.3101C1.77684 76.2169 1.36561 77.2713 1.00184 78.3732C0.701323 79.4962 0.437716 80.6877 0.416627 81.9477C0.358633 82.5751 0.421902 83.213 0.448263 83.8562C0.464079 84.1778 0.532616 84.4994 0.574793 84.8263C0.61697 85.1532 0.664419 85.48 0.759318 85.8016C1.0282 87.1144 1.56069 88.3955 2.23552 89.6292C3.58519 92.1019 5.85222 94.2318 8.657 95.4655C10.0594 96.0823 11.6094 96.4198 13.1858 96.483C14.7622 96.5832 16.3807 96.3301 17.9149 95.8029L18.3788 95.6342L18.4421 95.6131L18.5001 95.6395C20.7671 96.7888 22.992 97.9223 25.1483 99.0137L24.948 99.1824C24.2362 96.9786 23.5508 94.8434 22.8918 92.7925L22.8655 92.7134L22.9234 92.6554C24.6 90.9789 25.7651 88.9386 26.4136 86.8508C27.0621 84.7578 27.1728 82.6278 26.9197 80.6718C26.6667 78.7159 26.0287 76.9339 25.1746 75.4366C24.3206 73.934 23.2609 72.7109 22.1748 71.7619C21.0729 70.8182 19.9289 70.175 18.9061 69.6847C17.8569 69.2471 16.9237 68.9677 16.1487 68.8148C15.7586 68.7462 15.4159 68.6882 15.1154 68.6408C14.8149 68.6197 14.5618 68.6039 14.3509 68.5881C14.1559 68.5723 13.9977 68.5617 13.8817 68.5512C13.771 68.5353 13.7183 68.5301 13.7183 68.5248C13.7183 68.5195 13.771 68.5195 13.8764 68.5195C13.9924 68.5248 14.1506 68.5248 14.3457 68.5353C14.5565 68.5459 14.8149 68.5564 15.1154 68.567C15.4212 68.6144 15.7691 68.6619 16.1593 68.7199C16.9448 68.857 17.8885 69.1258 18.9535 69.5581C19.9921 70.0432 21.152 70.6811 22.275 71.6301C23.3874 72.5844 24.4682 73.8128 25.3434 75.3364C26.2185 76.8495 26.8776 78.6579 27.1412 80.6455C27.4048 82.6278 27.3046 84.7947 26.6509 86.9299C25.9971 89.0546 24.8161 91.1371 23.108 92.8505L23.1396 92.7134C23.8039 94.7643 24.4945 96.8995 25.2063 99.098L25.3117 99.4196L25.0112 99.2667C22.8549 98.1754 20.6301 97.0471 18.3578 95.8925L18.4737 95.8978L17.9993 96.0718C16.4334 96.6096 14.778 96.8679 13.1647 96.7677C11.5514 96.6992 9.96977 96.3565 8.53574 95.7238C5.67296 94.4585 3.36376 92.2811 1.993 89.761C1.30762 88.5063 0.769863 87.1935 0.500983 85.8596C0.406085 85.5328 0.358636 85.2006 0.316459 84.8685C0.274282 84.5363 0.205741 84.2095 0.189924 83.8826C0.163564 83.2236 0.105572 82.5751 0.163566 81.9424C0.189927 80.6666 0.464076 79.454 0.775133 78.3152C1.15473 77.1975 1.5765 76.1325 2.15117 75.2152C3.25304 73.3435 4.65544 71.9201 6.05783 70.9289C7.46022 69.9325 8.85207 69.3684 10.0067 69.0257C10.2966 68.9519 10.5761 68.878 10.8344 68.8095C11.0927 68.7357 11.3458 68.7251 11.5725 68.683C12.0312 68.6092 12.4213 68.5512 12.7376 68.5564C13.0434 68.5459 13.286 68.5406 13.4599 68.5301C13.6339 68.5195 13.7183 68.5195 13.7183 68.5248Z" fill="#11999E"/>
<path d="M16.7249 80.8366H15.7496L13.6249 77.8736V75.9282C13.6249 75.9282 12.117 75.8333 12.2963 78.3797C12.4755 80.9262 12.2805 80.2777 12.2805 80.2777C12.2805 80.2777 9.08028 80.2883 8.81667 80.5677C8.6216 80.768 8.53725 83.9471 8.50034 85.6711C8.48453 86.541 9.01701 87.3424 9.82365 87.548C9.93964 87.5796 10.0556 87.5955 10.1663 87.5955C10.9624 87.5955 15.0378 86.947 15.0378 86.947H16.7196V80.8366H16.7249Z" fill="#11999E"/>
<path d="M19.5131 80.2988L18.9121 86.9628H17.2461V80.4359L19.5131 80.2988Z" fill="#11999E"/>
</svg>
