<svg width="50" height="49" viewBox="0 0 50 49" fill="none" xmlns="http://www.w3.org/2000/svg">
<path d="M42.6642 9.73236L27.5529 1.58627C25.9623 0.718639 24.0342 0.718639 22.4436 1.58627L7.33229 9.73236C6.22365 10.3349 5.54883 11.4917 5.54883 12.8173C5.54883 14.1187 6.22365 15.2997 7.33229 15.9022L22.4436 24.0482C23.2389 24.482 24.1306 24.6989 24.9982 24.6989C25.8659 24.6989 26.7576 24.482 27.5529 24.0482L42.6642 15.9022C43.7728 15.2997 44.4477 14.1428 44.4477 12.8173C44.4477 11.4917 43.7728 10.3349 42.6642 9.73236Z" fill="#11999E"/>
<path d="M19.9622 26.8707L5.88732 19.8333C4.80278 19.3031 3.54953 19.3513 2.5373 19.9779C1.50096 20.6286 0.898438 21.7131 0.898438 22.9182V36.1978C0.898438 38.4873 2.17578 40.56 4.22436 41.5964L18.2752 48.6338C18.7572 48.8748 19.2874 48.9953 19.8176 48.9953C20.4442 48.9953 21.0709 48.8266 21.6252 48.4892C22.6615 47.8626 23.264 46.7539 23.264 45.5489V32.2693C23.2881 29.9556 22.0108 27.883 19.9622 26.8707Z" fill="#11999E"/>
<path d="M47.4631 19.9779C46.4267 19.3512 45.1735 19.2789 44.1131 19.8333L30.0622 26.8707C28.0137 27.9071 26.7363 29.9556 26.7363 32.2693V45.5489C26.7363 46.7539 27.3388 47.8626 28.3752 48.4892C28.9295 48.8266 29.5561 48.9953 30.1827 48.9953C30.713 48.9953 31.2432 48.8748 31.7252 48.6338L45.776 41.5963C47.8246 40.56 49.1019 38.5114 49.1019 36.1978V22.9182C49.1019 21.7131 48.4994 20.6286 47.4631 19.9779Z" fill="#11999E"/>
</svg>
