<svg width="22" height="23" viewBox="0 0 22 23" fill="none" xmlns="http://www.w3.org/2000/svg">
<path d="M11.3368 2.70044C14.1405 2.70044 14.4654 2.71009 15.5701 2.76803C16.5914 2.81632 17.1484 2.99014 17.5197 3.14465C18.0118 3.33778 18.3553 3.5792 18.7266 3.95581C19.098 4.34208 19.3208 4.69938 19.5064 5.21118C19.6457 5.59745 19.8221 6.17685 19.8685 7.23909C19.9149 8.38824 19.9335 8.73588 19.9335 11.6425C19.9335 14.5589 19.9242 14.8969 19.8685 16.046C19.8221 17.1082 19.655 17.6876 19.5064 18.0739C19.3208 18.5857 19.0887 18.943 18.7266 19.3293C18.3553 19.7156 18.0118 19.9473 17.5197 20.1405C17.1484 20.2853 16.5914 20.4688 15.5701 20.5171C14.4654 20.5653 14.1312 20.5847 11.3368 20.5847C8.5331 20.5847 8.20817 20.575 7.10341 20.5171C6.0822 20.4688 5.52518 20.295 5.15383 20.1405C4.66179 19.9473 4.31829 19.7059 3.94694 19.3293C3.5756 18.943 3.35279 18.5857 3.16711 18.0739C3.02786 17.6876 2.85147 17.1082 2.80505 16.046C2.75863 14.8969 2.74006 14.5492 2.74006 11.6425C2.74006 8.72622 2.74935 8.38824 2.80505 7.23909C2.85147 6.17685 3.01857 5.59745 3.16711 5.21118C3.35279 4.69938 3.58488 4.34208 3.94694 3.95581C4.31829 3.56954 4.66179 3.33778 5.15383 3.14465C5.52518 2.99979 6.0822 2.81632 7.10341 2.76803C8.20817 2.71009 8.54238 2.70044 11.3368 2.70044ZM11.3368 0.730469C8.49596 0.730469 8.1339 0.740125 7.01985 0.798066C5.90581 0.846349 5.13526 1.02983 4.47612 1.30021C3.78912 1.58026 3.20425 1.94721 2.61937 2.55559C2.0345 3.16396 1.68172 3.77233 1.41249 4.48693C1.14326 5.18221 0.966873 5.98372 0.920455 7.14252C0.864752 8.30133 0.855469 8.67794 0.855469 11.6329C0.855469 14.5878 0.864752 14.9645 0.920455 16.1329C0.966873 17.2917 1.15255 18.0836 1.40321 18.7789C1.67244 19.4935 2.02522 20.1018 2.61009 20.7102C3.19496 21.3186 3.77984 21.6855 4.46683 21.9656C5.13526 22.236 5.89652 22.4194 7.01057 22.4677C8.12461 22.516 8.48668 22.5353 11.3368 22.5353C14.1869 22.5353 14.5397 22.5257 15.663 22.4677C16.777 22.4194 17.5383 22.2263 18.2067 21.9656C18.8937 21.6855 19.4786 21.3186 20.0635 20.7102C20.6483 20.1018 21.0011 19.4935 21.2703 18.7789C21.5303 18.0836 21.7067 17.2917 21.7531 16.1329C21.7995 14.9741 21.8181 14.5975 21.8181 11.6329C21.8181 8.66828 21.8088 8.30133 21.7531 7.13287C21.716 5.98372 21.5303 5.18221 21.2796 4.49658C21.0104 3.78199 20.6576 3.17362 20.0727 2.56524C19.4879 1.95687 18.903 1.58992 18.216 1.30987C17.5476 1.03948 16.7863 0.856006 15.6723 0.807722C14.5489 0.740125 14.1869 0.730469 11.3368 0.730469Z" fill="white"/>
<path d="M11.3377 6.03223C8.36689 6.03223 5.95312 8.54297 5.95312 11.6331C5.95312 14.7233 8.36689 17.234 11.3377 17.234C14.3085 17.234 16.7222 14.7233 16.7222 11.6331C16.7222 8.54297 14.3177 6.03223 11.3377 6.03223ZM11.3377 15.2737C9.40667 15.2737 7.847 13.6417 7.847 11.6428C7.847 9.63418 9.41595 8.01185 11.3377 8.01185C13.2687 8.01185 14.8284 9.64383 14.8284 11.6428C14.8376 13.6417 13.2687 15.2737 11.3377 15.2737Z" fill="white"/>
<path d="M18.199 5.81917C18.199 6.54342 17.6327 7.13248 16.9364 7.13248C16.2401 7.13248 15.6738 6.54342 15.6738 5.81917C15.6738 5.09492 16.2401 4.50586 16.9364 4.50586C17.6327 4.50586 18.199 5.09492 18.199 5.81917Z" fill="white"/>
</svg>
