<?xml version="1.0" encoding="utf-8"?>
<!-- Generator: Adobe Illustrator 26.0.1, SVG Export Plug-In . SVG Version: 6.00 Build 0)  -->
<svg version="1.1" id="Layer_1" xmlns="http://www.w3.org/2000/svg" xmlns:xlink="http://www.w3.org/1999/xlink" x="0px" y="0px"
	 viewBox="0 0 2000 2000" style="enable-background:new 0 0 2000 2000;" xml:space="preserve">
<style type="text/css">
	.st0{fill:#11999E;}
	.st1{fill:#EB4B71;}
	.st2{font-family:'Lalezar-Regular';}
	.st3{font-size:168.2136px;}
</style>
<g>
	<g>
		<path className="st0" d="M1288.62,844.96c1.33-1.04,2.21-1.93,3.26-2.51c11.34-6.28,23.26-10.9,36.24-12.39
			c3.01-0.34,6.02-0.77,9.04-0.9c9.3-0.41,18.05,1.96,26.46,5.69c4.22,1.87,7.29,5.08,9.59,9.04c2.27,3.91,3.58,8.18,4.45,12.58
			c1.74,8.75,3.52,17.5,5,26.3c1.65,9.86,3.05,19.76,2.99,29.8c-0.01,1.6,0.04,3.23,0.29,4.81c0.45,2.86,0.31,5.67-0.02,8.53
			c-0.3,2.65-0.18,5.35-0.37,8.02c-0.19,2.67-0.53,5.32-0.81,7.98c-0.41,3.92,0.33,5.25,4.14,6.21c7.27,1.84,14.57,3.57,21.9,5.16
			c13.09,2.85,26.39,4.49,39.65,6.3c5.65,0.77,11.4,0.74,17.06,1.49c10.33,1.36,20.68,0.83,31.03,0.96
			c6.84,0.09,13.48-1.38,20.11-2.79c14.23-3.03,27.69-8.33,40.84-14.41c13.79-6.37,27.22-13.43,40.23-21.27
			c1.22-0.74,2.43-1.51,3.52-2.42c0.46-0.38,0.58-1.17,0.95-1.96c-3.03-1.54-6.04-1.83-9.05-1.73c-6.46,0.21-12.84-0.68-19.2-1.43
			c-8.67-1.02-17.3-2.45-25.87-4.14c-17.71-3.49-35.16-8.09-52.31-13.71c-9.23-3.03-17.65-7.78-25.55-13.36
			c-2.89-2.04-5.39-4.69-7.78-7.33c-1.39-1.54-2.51-3.51-3.22-5.47c-1.92-5.39-3.17-10.96-3.17-16.74c0-4.29-0.21-8.59,0.06-12.86
			c0.74-11.58,1.79-23.12,6.12-34.08c1.93-4.89,4.67-9.17,8.24-13.04c4.07-4.42,10.46-4.66,14.54-1.51c4.24,3.27,8.54,6.46,12.8,9.7
			c3.12,2.38,6.11,4.94,9.35,7.15c14.48,9.87,29.48,18.86,45.17,26.71c8.48,4.24,17.24,7.81,26.11,11.1
			c15.41,5.71,30.98,11.01,46.92,15.02c8.81,2.22,17.81,3.81,26.8,5.15c9.34,1.39,18.77,2.19,28.18,3.15
			c2.66,0.27,5.36,0.1,8.03,0.27c5.57,0.36,10.94,1.53,15.92,4.21c3.57,1.92,6.31,4.61,8.27,8.14c2.56,4.6,4.04,9.46,4.25,14.77
			c0.42,10.42-0.28,20.69-3.31,30.72c-1.67,5.52-3.91,10.71-7.97,14.99c-3.76,3.97-8.14,6.32-13.74,6.03
			c-1.6-0.08-3.22,0.05-4.82-0.08c-5.82-0.45-11.37,0.72-16.82,2.59c-8.83,3.03-17.14,7.17-25.02,12.11
			c-7.72,4.83-15.33,9.85-22.88,14.94c-17.19,11.59-34.82,22.47-53.11,32.23c-13.8,7.37-28.56,12.04-43.87,15.16
			c-8.25,1.68-16.62,2.19-24.96,2.98c-4.43,0.42-8.89,0.21-13.36-0.44c-5.11-0.74-10.3-0.88-15.44-1.45
			c-7.97-0.89-15.94-1.85-23.89-2.92c-8.13-1.1-16.26-2.2-24.33-3.62c-9.83-1.74-19.66-3.55-29.37-5.83
			c-9.3-2.19-17.73-6.5-25.49-12.1c-5.49-3.96-5.59-4-9.92,1.1c-8.1,9.52-17.64,17.17-28.95,22.54c-9.81,4.65-20.17,7.01-31.03,7.37
			c-15.85,0.52-30.8-2.95-45.17-9.48c-12.22-5.55-24-11.88-35.17-19.31c-2.66-1.77-5.24-3.64-8.08-5.63
			c-1.3,0.99-2.46,1.76-3.48,2.68c-2.92,2.63-5.69,5.42-8.68,7.97c-11.42,9.76-24.61,15.98-39.45,17.95
			c-10.79,1.44-21.68,1.13-32.47-1.3c-13.4-3.01-25.64-8.75-37.69-15.03c-4.59-2.39-9.13-4.9-13.53-7.63
			c-4.85-3.01-9.51-6.32-14.24-9.52c-0.89-0.6-1.67-1.35-2.54-1.97c-2.05-1.47-3.06-1.38-4.56,0.45c-0.9,1.1-1.71,2.29-2.54,3.45
			c-5.88,8.18-12.76,15.4-20.81,21.46c-10.01,7.54-21.16,12.51-33.53,14.7c-17.75,3.15-34.92,0.71-51.43-6.07
			c-16.39-6.74-32.03-14.96-46.21-25.74c-0.71-0.54-1.46-1.02-2.21-1.51c-1.5-0.98-3.08-1.03-4.53-0.05
			c-1.91,1.3-3.91,2.55-5.5,4.19c-3.14,2.61-4.32,3.69-6.82,5.1c-11.61,6.56-24.09,10.75-37.14,13.19
			c-8.76,1.64-17.58,2.96-26.41,4.18c-5.12,0.7-10.3,0.9-15.45,1.35c-7.28,0.63-14.56,1.28-21.85,1.93
			c-0.36,0.03-0.71,0.08-1.07,0.09c-9.45,0.42-18.9,0.87-28.35,1.25c-8.74,0.36-17.48,0.67-26.22,0.96c-2.86,0.1-5.72,0.03-8.57,0.1
			c-13.21,0.33-26.41,0.78-39.62,0.98c-10.18,0.15-20.37,0.1-30.55-0.09c-8.74-0.17-17.51-0.32-26.21-1.11
			c-12.26-1.11-24.4-3.09-36.44-5.76c-9.8-2.17-19.35-5.02-28.5-9.13c-10.01-4.5-19.21-10.31-27.23-17.8
			c-10.01-9.34-16.62-20.9-21.1-33.74c-3.37-9.67-5.26-19.63-5.41-29.88c-0.09-6.07-0.07-12.15,0.14-18.22
			c0.12-3.37,0.65-6.74,1.15-10.09c0.58-3.88,1.15-7.77,2.05-11.58c4.26-18.09,13.8-32.75,28.81-43.78
			c4.81-3.53,10.18-6.07,16.01-7.2c3.45-0.67,7.1-0.59,10.65-0.43c3.18,0.14,3.93,1.73,2.74,4.71c-2.63,6.64-5.34,13.25-7.87,19.92
			c-2.66,7.03-4.46,14.32-5.7,21.72c-1.43,8.5-1.78,16.96,0.49,25.46c2.86,10.72,8.83,18.93,18.25,24.79
			c7.05,4.38,14.58,7.58,22.53,9.77c12.24,3.37,24.7,5.68,37.33,7.03c10.11,1.08,20.23,1.99,30.35,2.97
			c0.36,0.03,0.71,0.06,1.07,0.07c17.86,0.08,35.7,1.97,53.54,0.92c9.46-0.56,18.94-0.25,28.35-1.05c7.85-0.66,15.7-0.53,23.54-0.97
			c8.73-0.48,17.44-1.18,26.16-1.77c6.94-0.46,13.89-0.83,20.83-1.36c6.58-0.49,13.15-1.13,19.72-1.71c1.6-0.14,3.21-0.24,4.8-0.44
			c1.95-0.24,3.91-0.46,5.81-0.89c2.53-0.57,3.15-1.48,3.18-4.16c0.01-0.89-0.1-1.78-0.17-2.67c-0.64-8.18-1.19-16.36-1.95-24.53
			c-0.72-7.64-1.61-15.26-2.54-22.87c-0.43-3.54-1.09-7.05-1.7-10.57c-1.53-8.85-3.94-17.41-8.35-25.31
			c-0.34-0.61-0.51-1.31-0.88-2.28c0.74-0.67,1.41-1.49,2.26-2.02c10.88-6.76,22.46-11.79,35.24-13.51
			c8.67-1.16,17.03,0.52,25.2,3.54c10.61,3.93,18.08,11.09,23.07,21.17c4.43,8.94,6.62,18.41,7.67,28.25
			c0.63,5.87,1.15,11.74,0.82,17.64c-0.46,8.37-1.12,16.73-1.69,25.09c-0.46,6.76-0.89,13.53-1.36,20.29
			c-0.23,3.3,1.29,5.31,4.24,6.67c8.14,3.78,16.49,7.18,25.44,7.92c14.63,1.21,26.13-4.29,32.41-16.1
			c3.49-6.57,5.65-13.53,6.91-20.74c1.59-9.14,2.57-18.37,2.24-27.7c-0.54-15.03-2.32-29.88-6.6-44.35
			c-2.24-7.57-5.19-14.83-9.77-21.33c-0.4-0.57-0.7-1.2-1.21-2.1c0.88-0.69,1.62-1.42,2.5-1.92c12.68-7.35,26.3-12.03,40.86-13.64
			c11.64-1.29,22.75,1,33.22,6.25c3.45,1.73,6.02,4.4,7.91,7.76c1.85,3.29,3.28,6.74,4.1,10.43c3.71,16.75,7.11,33.57,8.49,50.69
			c0.93,11.57,1.13,23.19-0.33,34.77c-0.34,2.66-0.47,5.34-0.89,7.99c-0.44,2.79,0.54,4.81,2.66,6.55
			c5.55,4.55,11.6,8.34,18.01,11.53c7.59,3.78,15.85,5.42,24.04,7.2c3.39,0.74,6.73-0.25,10.08-0.79
			c10.71-1.73,18.31-7.56,22.91-17.33c3.45-7.32,5.62-15.04,6.82-23.03c0.82-5.48,1.42-10.98,1.3-16.54
			c-0.19-9.1,0.29-18.22-1.16-27.27c-1.98-12.38-4.64-24.57-9.78-36.07c-1.45-3.24-3.4-6.27-5.12-9.39
			c-0.41-0.74-0.83-1.48-1.33-2.37c0.76-0.57,1.28-1.05,1.87-1.39c13.2-7.46,27.09-12.63,42.39-13.89
			c9.66-0.79,18.76,0.69,27.78,3.95c8.92,3.22,14.15,9.65,16.18,18.51c2.74,11.99,5.11,24.06,6.93,36.25
			c2.2,14.74,2.59,29.51,2.01,44.33c-0.21,5.51-0.92,11.02-1.65,16.49c-0.78,5.83-1.78,11.64-2.81,17.43
			c-0.43,2.43,0.16,4.08,2.4,5.32c9.62,5.32,19.74,9.57,30.71,10.46c14.3,1.15,25.8-4.33,32.11-16.63
			c3.96-7.73,6.04-15.99,7.43-24.49c1.89-11.55,1.62-23.22,0.83-34.75c-1.15-16.79-4.36-33.28-12.3-48.45
			C1291.8,850.4,1290.32,847.96,1288.62,844.96z"/>
		<path className="st0" d="M1066.27,1051.27c3.66,4.08,6.51,10.28,7.07,15.13c1.99,17.14-4.94,30.2-18.51,40.16
			c-6.68,4.9-14.16,8.28-21.86,11.21c-9.55,3.62-19.44,5.9-29.48,7.68c-19.27,3.42-38.71,3.84-58.16,3.07
			c-9.07-0.36-18.1-1.68-27.13-2.74c-5.67-0.66-11.29-1.65-16.94-2.49c-13.69-2.04-24.3-8.82-31.73-20.55
			c-5.47-8.64-8.62-17.96-8.62-28.27c0-4.77,1.48-9.13,3.65-13.28c1.24-2.37,2.19-2.77,4.8-2.09c3.8,0.99,7.57,2.08,11.34,3.17
			c16.29,4.72,32.8,8.5,49.56,11.08c7.74,1.19,15.61,1.5,23.37,2.57c11.04,1.53,22.13,1.3,33.16,0.83
			c22.1-0.93,43.54-5.09,63.54-15.09c4.97-2.49,9.68-5.36,13.88-9.03C1064.73,1052.17,1065.38,1051.85,1066.27,1051.27z"/>
		<path className="st0" d="M1613.95,1041.5c5.78,7.95,8.13,16.22,6.89,25.54c-1.89,14.14-9.64,24.27-21.34,31.8
			c-9.87,6.35-20.72,10.44-31.95,13.48c-10.86,2.94-21.96,4.53-33.16,5.71c-14.99,1.57-29.96,0.91-44.95,0.78
			c-4.62-0.04-9.26-0.6-13.85-1.22c-9.36-1.25-18.72-2.56-28.04-4.1c-12.6-2.09-22.62-8.36-29.75-19.07
			c-4.31-6.47-7.54-13.4-8.7-21.12c-1.1-7.33-1.05-14.61,2.62-21.41c1.6-2.96,2.23-3.23,5.56-2.34c11.72,3.14,23.39,6.49,35.18,9.36
			c11.96,2.91,24.13,4.66,36.34,6.32c16.18,2.2,32.4,2.39,48.62,1.82c14.85-0.52,29.36-3.53,43.54-8.03
			c8.38-2.66,16.36-6.22,23.77-10.95C1607.72,1046.16,1610.53,1043.95,1613.95,1041.5z"/>
		<path className="st0" d="M1236.81,732.85c8.2,11.67,9.19,23.53,4.3,36.07c-3.22,8.27-8.76,14.63-15.95,19.68
			c-4.84,3.4-9.96,6.3-15.4,8.6c-13.41,5.66-27.4,8.98-41.78,11.12c-15.81,2.35-31.67,2.14-47.56,2.11
			c-11.46-0.03-22.78-1.43-34.09-3.02c-5.48-0.77-10.95-1.55-16.39-2.53c-12.79-2.31-22.74-8.87-29.77-19.93
			c-5.01-7.86-7.97-16.38-8.7-25.6c-0.53-6.74,1.33-12.99,4.9-18.61c2.47-0.28,4.32,0.45,6.16,1.01
			c16.23,4.9,32.67,9.03,49.35,12.01c9.46,1.69,19.04,2.74,28.59,3.89c8.55,1.03,17.14,0.2,25.64,1.42c1.38,0.2,2.84-0.1,4.27-0.19
			c1.6-0.1,3.2-0.33,4.8-0.33c14.19,0.01,28.02-2.36,41.71-5.93c10.28-2.68,19.93-6.77,29.11-11.99c2.77-1.58,5.25-3.67,7.86-5.55
			C1234.71,734.49,1235.52,733.83,1236.81,732.85z"/>
		<path className="st0" d="M1379.99,1051.47c0.74,0.8,1.45,1.36,1.89,2.08c3.1,5.14,4.99,10.62,4.9,16.73
			c-0.08,5.18-0.12,10.3-1.98,15.3c-2.81,7.59-7.32,13.82-13.62,18.84c-9.08,7.24-19.52,11.84-30.43,15.37
			c-10.37,3.35-21.05,5.36-31.87,6.86c-16.17,2.25-32.39,2.32-48.63,1.92c-6.76-0.17-13.51-1.04-20.23-1.85
			c-8.5-1.03-16.97-2.24-25.43-3.52c-10.2-1.54-19.19-5.66-26.11-13.48c-9.77-11.05-14.81-23.84-13.54-38.8
			c0.31-3.64,1.68-6.92,3.39-10.08c1.13-2.09,2.12-2.51,4.41-1.88c5.16,1.42,10.29,2.93,15.44,4.42c15.1,4.37,30.47,7.56,45.97,9.97
			c7.73,1.2,15.56,1.88,23.36,2.67c10.18,1.03,20.33,0.95,30.49,0.79c18.69-0.29,36.95-3.53,54.45-10.09
			c8.83-3.31,17.48-7.32,24.7-13.71C1377.88,1052.35,1378.93,1052.03,1379.99,1051.47z"/>
		<path className="st0" d="M596.29,821.08c1.58,0.37,3.5,0.7,5.34,1.27c15.71,4.81,31.62,8.81,47.78,11.77
			c9.11,1.67,18.29,2.88,27.52,3.84c8.17,0.85,16.35,1.27,24.53,1.72c9.81,0.54,19.57-0.67,29.34-1.66
			c8.2-0.83,16.19-2.55,24.14-4.57c9.92-2.52,19.35-6.27,28.24-11.34c2.78-1.59,5.35-3.54,8-5.35c1.44-0.99,2.83-2.05,4.39-3.19
			c2.18,2.16,3.12,4.69,4.21,7.08c2.95,6.48,4.07,13.09,2.56,20.29c-2.31,11-7.71,19.83-16.56,26.66
			c-7.87,6.08-16.79,10.09-26.05,13.48c-9.93,3.64-20.22,5.77-30.63,7.35c-9,1.36-18.03,2.35-27.15,2.37
			c-1.78,0-3.55,0.43-5.33,0.45c-4.45,0.06-8.91,0.05-13.36-0.04c-2.31-0.05-4.62-0.44-6.94-0.47c-11.08-0.12-22.05-1.48-32.98-3.13
			c-4.93-0.74-9.87-1.45-14.78-2.37c-12.19-2.28-21.72-8.62-28.65-18.94c-4.24-6.31-7.36-13.1-8.64-20.58
			c-1.15-6.75-1.11-13.52,1.72-19.97C593.7,824.12,594.26,822.39,596.29,821.08z"/>
		<path className="st0" d="M1533.47,1133.86c2.75,1.25,4.44,3.32,5.54,5.78c1.09,2.43,2.04,4.95,2.66,7.53
			c1.7,7.13,2.48,14.37,2.24,21.73c-0.26,7.91-3.66,14.08-10.19,18.4c-4.21,2.78-8.83,4.62-14.05,4.52
			c-4.64-0.09-9.29,0.16-13.91-0.17c-7.18-0.52-13.92-2.91-20.5-5.71c-1.73-0.74-2.71-2.24-3.58-3.83
			c-2.87-5.23-4.34-10.9-5.45-16.71c-1.78-9.37-1.6-18.81-1.11-28.26c0.13-2.45,0.27-5,2-6.97c1.98-0.79,3.63,0.19,5.26,0.74
			c6.78,2.29,13.71,3.96,20.77,5.05c4.4,0.68,8.84,1.38,13.27,1.48c4.44,0.1,8.89-0.56,13.13-2.11
			C1530.88,1134.83,1532.2,1134.33,1533.47,1133.86z"/>
	</g>
	<text transform="matrix(1 0 0 1 281.1287 1168.2385)" className="st1 st2 st3">مادختسا</text>
	<path className="st0" d="M1041.5,1212.69l104.44-63.15c4.59-2.77,6.05-8.74,3.28-13.32l0,0c-2.77-4.59-8.74-6.05-13.32-3.28
		l-104.44,63.15c-4.59,2.77-6.05,8.74-3.28,13.32v0C1030.95,1214,1036.91,1215.47,1041.5,1212.69z"/>
</g>
</svg>
