<svg width="65" height="64" viewBox="0 0 65 64" fill="none" xmlns="http://www.w3.org/2000/svg">
<g filter="url(#filter0_d_3181_16606)">
<rect x="8.80273" y="8" width="48" height="48" rx="24" fill="white"/>
</g>
<path d="M34.9494 26.1934H28.2748C28.0036 26.1934 27.7429 26.2038 27.4926 26.2353C24.6872 26.4764 23.2793 28.1433 23.2793 31.2149V35.4083C23.2793 39.6017 24.9479 40.4299 28.2748 40.4299H28.692C28.9214 40.4299 29.2238 40.5871 29.3594 40.7653L30.6109 42.4427C31.1636 43.187 32.0605 43.187 32.6133 42.4427L33.8648 40.7653C34.0212 40.5557 34.2715 40.4299 34.5322 40.4299H34.9494C38.0051 40.4299 39.6633 39.0251 39.9032 36.1946C39.9345 35.943 39.9449 35.6809 39.9449 35.4083V31.2149C39.9449 27.8707 38.2762 26.1934 34.9494 26.1934ZM27.9724 34.5801C27.3883 34.5801 26.9295 34.1084 26.9295 33.5318C26.9295 32.9552 27.3988 32.4834 27.9724 32.4834C28.546 32.4834 29.0153 32.9552 29.0153 33.5318C29.0153 34.1084 28.546 34.5801 27.9724 34.5801ZM31.6121 34.5801C31.0281 34.5801 30.5692 34.1084 30.5692 33.5318C30.5692 32.9552 31.0385 32.4834 31.6121 32.4834C32.1857 32.4834 32.655 32.9552 32.655 33.5318C32.655 34.1084 32.1961 34.5801 31.6121 34.5801ZM35.2623 34.5801C34.6782 34.5801 34.2193 34.1084 34.2193 33.5318C34.2193 32.9552 34.6887 32.4834 35.2623 32.4834C35.8358 32.4834 36.3052 32.9552 36.3052 33.5318C36.3052 34.1084 35.8358 34.5801 35.2623 34.5801Z" fill="#EC4B72"/>
<path d="M44.1173 27.0216V31.2149C44.1173 33.3116 43.4707 34.7374 42.1775 35.5236C41.8647 35.7123 41.4996 35.4607 41.4996 35.0938L41.5101 31.2149C41.5101 27.0216 39.1218 24.6209 34.9502 24.6209L28.599 24.6313C28.234 24.6313 27.9837 24.2644 28.1714 23.9499C28.9536 22.65 30.3719 22 32.4472 22H39.1218C42.4487 22 44.1173 23.6774 44.1173 27.0216Z" fill="#EC4B72"/>
<defs>
<filter id="filter0_d_3181_16606" x="0.802734" y="0" width="64" height="64" filterUnits="userSpaceOnUse" color-interpolation-filters="sRGB">
<feFlood flood-opacity="0" result="BackgroundImageFix"/>
<feColorMatrix in="SourceAlpha" type="matrix" values="0 0 0 0 0 0 0 0 0 0 0 0 0 0 0 0 0 0 127 0" result="hardAlpha"/>
<feOffset/>
<feGaussianBlur stdDeviation="4"/>
<feComposite in2="hardAlpha" operator="out"/>
<feColorMatrix type="matrix" values="0 0 0 0 0.92549 0 0 0 0 0.294118 0 0 0 0 0.447059 0 0 0 0.7 0"/>
<feBlend mode="normal" in2="BackgroundImageFix" result="effect1_dropShadow_3181_16606"/>
<feBlend mode="normal" in="SourceGraphic" in2="effect1_dropShadow_3181_16606" result="shape"/>
</filter>
</defs>
</svg>
