<svg width="32" height="33" viewBox="0 0 32 33" fill="none" xmlns="http://www.w3.org/2000/svg">
<path d="M14.5117 20.8982L11.5656 23.8444C10.9445 24.4654 9.95717 24.4654 9.32017 23.8603C9.145 23.6851 8.96982 23.5259 8.79465 23.3507C7.15438 21.6945 5.67335 19.9587 4.35158 18.1432C3.04573 16.3278 1.99468 14.5123 1.23028 12.7128C0.481809 10.8974 0.0996094 9.16153 0.0996094 7.50533C0.0996094 6.42243 0.290709 5.38731 0.672909 4.43181C1.05511 3.46039 1.66026 2.56859 2.50428 1.77234C3.52348 0.769065 4.63823 0.275391 5.81668 0.275391C6.26258 0.275391 6.70848 0.370941 7.1066 0.56204C7.52065 0.75314 7.88693 1.03979 8.17358 1.45384L11.8682 6.66131C12.1548 7.05943 12.3618 7.42571 12.5052 7.77606C12.6485 8.11048 12.7281 8.44491 12.7281 8.74748C12.7281 9.12968 12.6166 9.51188 12.3937 9.87816C12.1867 10.2444 11.8841 10.6266 11.5019 11.0088L10.2916 12.2669C10.1164 12.4421 10.0368 12.6491 10.0368 12.9039C10.0368 13.0313 10.0527 13.1428 10.0846 13.2702C10.1323 13.3976 10.1801 13.4931 10.212 13.5887C10.4986 14.1142 10.9923 14.799 11.693 15.6271C12.4096 16.4552 13.174 17.2992 14.0021 18.1432C14.1614 18.3025 14.3365 18.4617 14.4958 18.621C15.1328 19.242 15.1487 20.2612 14.5117 20.8982Z" fill="white"/>
<path d="M31.9004 26.281C31.9004 26.7269 31.8207 27.1888 31.6615 27.6347C31.6137 27.7621 31.5659 27.8895 31.5022 28.0169C31.2315 28.5902 30.8812 29.1316 30.4193 29.6412C29.639 30.5012 28.7791 31.1222 27.8076 31.5204C27.7917 31.5204 27.7758 31.5363 27.7599 31.5363C26.8203 31.9185 25.8011 32.1255 24.7023 32.1255C23.0779 32.1255 21.3421 31.7433 19.5107 30.963C17.6793 30.1827 15.848 29.1316 14.0325 27.8098C13.4115 27.348 12.7904 26.8862 12.2012 26.3925L17.4086 21.185C17.8545 21.5195 18.2526 21.7743 18.5871 21.9494C18.6667 21.9813 18.7622 22.0291 18.8737 22.0768C19.0011 22.1246 19.1285 22.1405 19.2718 22.1405C19.5426 22.1405 19.7496 22.045 19.9248 21.8698L21.1351 20.6754C21.5332 20.2773 21.9154 19.9747 22.2817 19.7836C22.6479 19.5607 23.0142 19.4492 23.4123 19.4492C23.7149 19.4492 24.0334 19.5129 24.3838 19.6562C24.7341 19.7996 25.1004 20.0066 25.4985 20.2773L30.7697 24.0197C31.1837 24.3063 31.4704 24.6408 31.6456 25.0389C31.8048 25.437 31.9004 25.8351 31.9004 26.281Z" fill="white"/>
</svg>
