<svg width="52" height="52" viewBox="0 0 52 52" fill="none" xmlns="http://www.w3.org/2000/svg">
<g filter="url(#filter0_d_3181_16593)">
<rect x="1.80273" y="2" width="48" height="48" rx="24" fill="white"/>
</g>
<rect x="24.0176" y="35.8379" width="4.38379" height="1.16305" rx="0.581523" fill="black"/>
<path d="M37.5588 29.3903H36.2008C35.0628 29.3903 36.3224 28.1288 36.3224 26.9899L35.825 23.2557C35.825 22.1177 34.4812 21.291 35.6201 21.291H37.5588C38.6968 21.291 39.6201 22.2134 39.6201 23.3523V27.329C39.6201 28.4679 38.6968 29.3903 37.5588 29.3903Z" fill="black"/>
<path d="M15.6687 29.902H17.0268C18.1648 29.902 16.9051 28.6405 16.9051 27.5017L17.4025 23.7674C17.4025 22.6294 18.7463 21.8027 17.6074 21.8027H15.6687C14.5307 21.8027 13.6074 22.7251 13.6074 23.864V27.8407C13.6074 28.9796 14.5298 29.902 15.6687 29.902Z" fill="black"/>
<path d="M28.0036 36.7192C32.9868 35.6644 36.7291 31.1858 36.7291 26.3108C36.7291 20.6164 32.1127 16 26.4183 16C20.7238 16 16.1074 20.6164 16.1074 26.3108C16.1074 27.5714 16.3338 28.7783 16.7471 29.8948L17.6095 29.6899C17.2436 28.6888 17.1551 27.7378 17.1551 26.6106C17.1551 21.4448 21.3429 17.257 26.5086 17.257C31.6743 17.257 35.8622 21.4448 35.8622 26.6106C35.8622 31.0722 32.2568 35.1303 28.077 36.0652L28.0036 36.7192Z" fill="black"/>
<path d="M31.6397 29.5618C31.6397 29.7473 31.5985 29.9379 31.5108 30.1233C31.4231 30.3087 31.3096 30.4839 31.16 30.6487C30.9072 30.9268 30.6286 31.1277 30.314 31.2565C30.0044 31.3853 29.6691 31.4522 29.308 31.4522C28.7818 31.4522 28.2195 31.3286 27.6263 31.0762C27.0331 30.8238 26.4398 30.4839 25.8517 30.0563C25.2585 29.6237 24.6962 29.1446 24.1597 28.6141C23.6283 28.0784 23.1486 27.5169 22.7204 26.9297C22.2974 26.3425 21.9569 25.7553 21.7093 25.1733C21.4617 24.5861 21.3379 24.0246 21.3379 23.4889C21.3379 23.1386 21.3998 22.8038 21.5236 22.4948C21.6474 22.1806 21.8434 21.8921 22.1168 21.6346C22.447 21.3101 22.8081 21.1504 23.1898 21.1504C23.3343 21.1504 23.4787 21.1813 23.6077 21.2431C23.7418 21.3049 23.8605 21.3976 23.9533 21.5316L25.1501 23.2159C25.243 23.3447 25.3101 23.4632 25.3565 23.5765C25.4029 23.6846 25.4287 23.7928 25.4287 23.8907C25.4287 24.0143 25.3926 24.1379 25.3204 24.2564C25.2533 24.3749 25.1553 24.4985 25.0315 24.6221L24.6394 25.029C24.5827 25.0857 24.5569 25.1527 24.5569 25.2351C24.5569 25.2763 24.5621 25.3123 24.5724 25.3535C24.5878 25.3948 24.6033 25.4257 24.6136 25.4566C24.7065 25.6265 24.8664 25.848 25.0934 26.1159C25.3255 26.3837 25.5732 26.6567 25.8414 26.9297C26.12 27.2027 26.3882 27.4551 26.6616 27.6869C26.9299 27.9136 27.1517 28.0681 27.3271 28.1608C27.3529 28.1711 27.3838 28.1866 27.42 28.202C27.4612 28.2175 27.5025 28.2226 27.5489 28.2226C27.6366 28.2226 27.7037 28.1917 27.7604 28.135L28.1525 27.7487C28.2814 27.6199 28.4053 27.5221 28.5239 27.4603C28.6426 27.3882 28.7612 27.3521 28.8902 27.3521C28.9882 27.3521 29.0914 27.3727 29.2048 27.4191C29.3183 27.4654 29.437 27.5324 29.566 27.6199L31.2735 28.8304C31.4076 28.9231 31.5005 29.0313 31.5572 29.1601C31.6088 29.2888 31.6397 29.4176 31.6397 29.5618Z" fill="black"/>
<defs>
<filter id="filter0_d_3181_16593" x="0.14219" y="0.339456" width="51.3211" height="51.3211" filterUnits="userSpaceOnUse" color-interpolation-filters="sRGB">
<feFlood flood-opacity="0" result="BackgroundImageFix"/>
<feColorMatrix in="SourceAlpha" type="matrix" values="0 0 0 0 0 0 0 0 0 0 0 0 0 0 0 0 0 0 127 0" result="hardAlpha"/>
<feOffset/>
<feGaussianBlur stdDeviation="0.830272"/>
<feComposite in2="hardAlpha" operator="out"/>
<feColorMatrix type="matrix" values="0 0 0 0 0 0 0 0 0 0 0 0 0 0 0 0 0 0 1 0"/>
<feBlend mode="normal" in2="BackgroundImageFix" result="effect1_dropShadow_3181_16593"/>
<feBlend mode="normal" in="SourceGraphic" in2="effect1_dropShadow_3181_16593" result="shape"/>
</filter>
</defs>
</svg>
