<svg width="21" height="21" viewBox="0 0 21 21" fill="none" xmlns="http://www.w3.org/2000/svg">
<path opacity="0.4" d="M8.3103 2.37305C6.18115 2.37305 4.4502 4.104 4.4502 6.23315C4.4502 8.32168 6.08363 10.012 8.21278 10.0851C8.2778 10.077 8.34281 10.077 8.39157 10.0851C8.40782 10.0851 8.41595 10.0851 8.4322 10.0851C8.44033 10.0851 8.44033 10.0851 8.44845 10.0851C10.5288 10.012 12.1623 8.32168 12.1704 6.23315C12.1704 4.104 10.4395 2.37305 8.3103 2.37305Z" fill="#11999E"/>
<path d="M12.4392 12.2489C10.1719 10.7374 6.47433 10.7374 4.19077 12.2489C3.1587 12.9396 2.58984 13.8742 2.58984 14.8738C2.58984 15.8733 3.1587 16.7997 4.18265 17.4824C5.32036 18.2463 6.81565 18.6282 8.31093 18.6282C9.80618 18.6282 11.3015 18.2463 12.4392 17.4824C13.4631 16.7916 14.032 15.8652 14.032 14.8575C14.0239 13.8579 13.4631 12.9315 12.4392 12.2489Z" fill="#11999E"/>
<path opacity="0.4" d="M17.2413 6.71324C17.3713 8.28979 16.2499 9.6713 14.6977 9.85821C14.6896 9.85821 14.6896 9.85821 14.6814 9.85821H14.6571C14.6083 9.85821 14.5595 9.85821 14.5189 9.87446C13.7306 9.9151 13.0074 9.66317 12.4629 9.19996C13.2999 8.45232 13.7794 7.33086 13.6819 6.11187C13.625 5.45362 13.3974 4.85226 13.0561 4.34029C13.3649 4.18588 13.7225 4.08837 14.0882 4.05586C15.681 3.91771 17.1031 5.10418 17.2413 6.71324Z" fill="#11999E"/>
<path d="M18.8674 14.2303C18.8024 15.0186 18.2986 15.7012 17.4534 16.1644C16.6408 16.6114 15.6168 16.8227 14.601 16.7983C15.1861 16.2701 15.5274 15.6118 15.5924 14.913C15.6737 13.9053 15.1942 12.9382 14.2353 12.1662C13.6908 11.7355 13.057 11.3942 12.3662 11.1422C14.1622 10.6221 16.4214 10.9716 17.811 12.093C18.5586 12.6944 18.9406 13.4502 18.8674 14.2303Z" fill="#11999E"/>
</svg>
