<svg width="470" height="321" viewBox="0 0 470 321" fill="none" xmlns="http://www.w3.org/2000/svg">
<g filter="url(#filter0_d_265_6748)">
<path d="M21.595 73.2602C21.595 46.178 21.595 32.6368 30.0084 24.2234C38.4217 15.8101 51.9629 15.8101 79.0451 15.8101H107.259C119.948 15.8101 126.292 15.8101 131.872 18.2951C132.434 18.5456 132.988 18.814 133.533 19.1001C138.942 21.9385 142.874 26.9173 150.738 36.8751V36.8751C158.602 46.8329 162.535 51.8118 167.943 54.6501C168.488 54.9362 169.042 55.2047 169.605 55.4551C175.184 57.9402 181.528 57.9402 194.217 57.9402H235.118H276.019C288.708 57.9402 295.052 57.9402 300.632 55.4551C301.194 55.2047 301.748 54.9362 302.293 54.6501C307.701 51.8118 311.634 46.8329 319.498 36.8751V36.8751C327.362 26.9173 331.294 21.9385 336.703 19.1001C337.248 18.814 337.802 18.5456 338.364 18.2951C343.944 15.8101 350.288 15.8101 362.977 15.8101H391.191C418.273 15.8101 431.814 15.8101 440.228 24.2234C448.641 32.6368 448.641 46.1779 448.641 73.2602V236.993C448.641 264.075 448.641 277.617 440.228 286.03C431.814 294.443 418.273 294.443 391.191 294.443H79.0451C51.9629 294.443 38.4217 294.443 30.0084 286.03C21.595 277.617 21.595 264.075 21.595 236.993V73.2602Z" fill="#C7E4E5"/>
</g>
<defs>
<filter id="filter0_d_265_6748" x="0.807484" y="0.565902" width="468.621" height="320.208" filterUnits="userSpaceOnUse" color-interpolation-filters="sRGB">
<feFlood flood-opacity="0" result="BackgroundImageFix"/>
<feColorMatrix in="SourceAlpha" type="matrix" values="0 0 0 0 0 0 0 0 0 0 0 0 0 0 0 0 0 0 127 0" result="hardAlpha"/>
<feOffset dy="5.54333"/>
<feGaussianBlur stdDeviation="10.3937"/>
<feComposite in2="hardAlpha" operator="out"/>
<feColorMatrix type="matrix" values="0 0 0 0 0 0 0 0 0 0 0 0 0 0 0 0 0 0 0.14 0"/>
<feBlend mode="normal" in2="BackgroundImageFix" result="effect1_dropShadow_265_6748"/>
<feBlend mode="normal" in="SourceGraphic" in2="effect1_dropShadow_265_6748" result="shape"/>
</filter>
</defs>
</svg>
