<svg width="470" height="321" viewBox="0 0 470 321" fill="none" xmlns="http://www.w3.org/2000/svg">
<g filter="url(#filter0_d_273_2181)">
<path d="M21.3726 73.2602C21.3726 46.178 21.3726 32.6368 29.7859 24.2234C38.1993 15.8101 51.7404 15.8101 78.8227 15.8101H107.037C119.726 15.8101 126.07 15.8101 131.649 18.2951C132.212 18.5456 132.766 18.814 133.311 19.1001C138.719 21.9385 142.651 26.9173 150.516 36.8751V36.8751C158.38 46.8329 162.312 51.8118 167.72 54.6501C168.266 54.9362 168.82 55.2047 169.382 55.4551C174.961 57.9402 181.306 57.9402 193.995 57.9402H234.896H275.797C288.485 57.9402 294.83 57.9402 300.409 55.4551C300.971 55.2047 301.526 54.9362 302.071 54.6501C307.479 51.8118 311.411 46.8329 319.276 36.8751V36.8751C327.14 26.9173 331.072 21.9385 336.48 19.1001C337.025 18.814 337.58 18.5456 338.142 18.2951C343.721 15.8101 350.066 15.8101 362.754 15.8101H390.969C418.051 15.8101 431.592 15.8101 440.005 24.2234C448.419 32.6368 448.419 46.1779 448.419 73.2602V236.993C448.419 264.075 448.419 277.617 440.005 286.03C431.592 294.443 418.051 294.443 390.969 294.443H78.8227C51.7405 294.443 38.1993 294.443 29.7859 286.03C21.3726 277.617 21.3726 264.075 21.3726 236.993V73.2602Z" fill="white"/>
</g>
<defs>
<filter id="filter0_d_273_2181" x="0.585072" y="0.565902" width="468.621" height="320.208" filterUnits="userSpaceOnUse" color-interpolation-filters="sRGB">
<feFlood flood-opacity="0" result="BackgroundImageFix"/>
<feColorMatrix in="SourceAlpha" type="matrix" values="0 0 0 0 0 0 0 0 0 0 0 0 0 0 0 0 0 0 127 0" result="hardAlpha"/>
<feOffset dy="5.54333"/>
<feGaussianBlur stdDeviation="10.3937"/>
<feComposite in2="hardAlpha" operator="out"/>
<feColorMatrix type="matrix" values="0 0 0 0 0 0 0 0 0 0 0 0 0 0 0 0 0 0 0.14 0"/>
<feBlend mode="normal" in2="BackgroundImageFix" result="effect1_dropShadow_273_2181"/>
<feBlend mode="normal" in="SourceGraphic" in2="effect1_dropShadow_273_2181" result="shape"/>
</filter>
</defs>
</svg>
