<svg width="18" height="19" viewBox="0 0 18 19" fill="none" xmlns="http://www.w3.org/2000/svg">
<path d="M8.958 0.277368C6.57834 0.288473 4.29993 1.24159 2.62117 2.92821C0.942418 4.61484 -2.59118e-05 6.89768 5.34326e-10 9.27737C5.3433e-10 11.6643 0.948211 13.9535 2.63604 15.6413C4.32387 17.3292 6.61305 18.2774 9 18.2774C11.3869 18.2774 13.6761 17.3292 15.364 15.6413C17.0518 13.9535 18 11.6643 18 9.27737C18 6.89042 17.0518 4.60123 15.364 2.91341C13.6761 1.22558 11.3869 0.277368 9 0.277368C8.986 0.277336 8.972 0.277336 8.958 0.277368ZM12.6795 5.69537C12.7545 5.69387 12.9202 5.71262 13.0282 5.80037C13.1 5.86269 13.1458 5.94967 13.1565 6.04412C13.1685 6.11387 13.1835 6.27362 13.1715 6.39812C13.0365 7.82162 12.45 11.2746 12.1515 12.8684C12.0255 13.5434 11.7773 13.7691 11.5365 13.7909C11.0145 13.8396 10.6178 13.4459 10.1115 13.1144C9.3195 12.5946 8.87175 12.2714 8.103 11.7644C7.21425 11.1794 7.79025 10.8569 8.2965 10.3319C8.42925 10.1939 10.7318 8.09912 10.7768 7.90937C10.782 7.88537 10.7872 7.79687 10.7347 7.75037C10.6823 7.70387 10.6042 7.71962 10.548 7.73237C10.4685 7.75037 9.20325 8.58737 6.75225 10.2411C6.39225 10.4886 6.0675 10.6086 5.77575 10.6011C5.45475 10.5951 4.83675 10.4204 4.377 10.2711C3.813 10.0874 3.36525 9.99062 3.40425 9.67937C3.4245 9.51737 3.648 9.35162 4.074 9.18212C6.6975 8.03912 8.4465 7.28537 9.3225 6.92162C11.8215 5.88212 12.3413 5.70137 12.6795 5.69537Z" fill="black"/>
</svg>
