<svg width="18" height="19" viewBox="0 0 18 19" fill="none" xmlns="http://www.w3.org/2000/svg">
<path d="M13.1236 11.0724C12.8997 10.9601 11.7988 10.419 11.5938 10.3437C11.3881 10.269 11.2389 10.2321 11.0889 10.4567C10.9404 10.6805 10.5109 11.1846 10.3805 11.3339C10.2502 11.4838 10.119 11.5019 9.89523 11.3904C9.67142 11.2773 8.94949 11.0415 8.09418 10.2788C7.42877 9.68502 6.97888 8.95179 6.84851 8.72723C6.71815 8.50341 6.83495 8.38209 6.94648 8.27056C7.04746 8.17033 7.17105 8.00907 7.28257 7.8787C7.39486 7.74758 7.43178 7.65413 7.50714 7.50417C7.58175 7.35496 7.54482 7.22459 7.4883 7.11231C7.43178 7.00003 6.98416 5.89754 6.79802 5.44916C6.61566 5.01284 6.43103 5.07237 6.29388 5.06484C6.16351 5.05881 6.0143 5.0573 5.86434 5.0573C5.71513 5.0573 5.47248 5.11307 5.26751 5.33763C5.06253 5.56145 4.48379 6.10327 4.48379 7.20575C4.48379 8.30748 5.28635 9.37229 5.39788 9.52225C5.51016 9.67146 6.97738 11.9337 9.22379 12.9036C9.75808 13.1341 10.1748 13.2721 10.5004 13.3745C11.0369 13.5456 11.5252 13.5215 11.9103 13.4635C12.3406 13.3994 13.2351 12.9216 13.422 12.3987C13.6089 11.8757 13.6089 11.4273 13.5523 11.3339C13.4966 11.2404 13.3474 11.1846 13.1228 11.0724H13.1236ZM9.03766 16.6511H9.03464C7.70064 16.6512 6.39115 16.2925 5.24339 15.6127L4.97135 15.4514L2.15222 16.1914L2.90429 13.4424L2.7272 13.1605C1.98149 11.9731 1.58699 10.5989 1.5893 9.1967C1.59005 5.08971 4.93217 1.74834 9.04067 1.74834C11.0301 1.74834 12.9005 2.52453 14.3067 3.93221C15.0005 4.62295 15.5504 5.44444 15.9246 6.34912C16.2988 7.2538 16.4899 8.22372 16.4868 9.20273C16.4845 13.3097 13.1431 16.6511 9.03766 16.6511ZM15.3775 2.86288C14.5472 2.02711 13.5593 1.36442 12.471 0.913229C11.3827 0.462034 10.2158 0.231303 9.03766 0.234406C4.09796 0.234406 0.0776185 4.25474 0.0753578 9.19595C0.0753578 10.7755 0.487565 12.3173 1.27204 13.676L0 18.3203L4.75131 17.0739C6.06524 17.7897 7.53761 18.1648 9.03389 18.165H9.03766C13.9766 18.165 17.9977 14.1447 18 9.20273C18.0036 8.0251 17.7737 6.85843 17.3236 5.77021C16.8734 4.682 16.212 3.69383 15.3775 2.86288Z" fill="black"/>
</svg>
