<svg width="18" height="19" viewBox="0 0 18 19" fill="none" xmlns="http://www.w3.org/2000/svg">
<path d="M15.3353 15.6163H12.6698V11.4396C12.6698 10.4436 12.6495 9.16184 11.2808 9.16184C9.891 9.16184 9.67875 10.2456 9.67875 11.3661V15.6163H7.01325V7.02734H9.57375V8.19809H9.60825C9.966 7.52309 10.836 6.81059 12.1357 6.81059C14.8365 6.81059 15.336 8.58809 15.336 10.9018V15.6163H15.3353ZM4.00275 5.85209C3.14475 5.85209 2.4555 5.15759 2.4555 4.30334C2.4555 3.44984 3.1455 2.75609 4.00275 2.75609C4.85775 2.75609 5.55075 3.44984 5.55075 4.30334C5.55075 5.15759 4.857 5.85209 4.00275 5.85209ZM5.33925 15.6163H2.66625V7.02734H5.33925V15.6163ZM16.6688 0.277344H1.32825C0.594 0.277344 0 0.857844 0 1.57409V16.9806C0 17.6976 0.594 18.2773 1.32825 18.2773H16.6665C17.4 18.2773 18 17.6976 18 16.9806V1.57409C18 0.857844 17.4 0.277344 16.6665 0.277344H16.6688Z" fill="black"/>
</svg>
