<svg width="28" height="29" viewBox="0 0 28 29" fill="none" xmlns="http://www.w3.org/2000/svg">
<path d="M7.07617 20.5898C8.75259 23.0836 11.418 24.8043 14.4934 25.1534" stroke="white" stroke-width="3" stroke-linecap="round" stroke-linejoin="round"/>
<path d="M14.556 3.79297C11.4925 4.11716 8.82715 5.81292 7.13867 8.28176" stroke="white" stroke-width="3" stroke-linecap="round" stroke-linejoin="round"/>
<path d="M24.8906 9.65234C25.6022 11.0987 26.0002 12.7447 26.0002 14.4778C26.0002 16.1487 25.6384 17.7197 24.975 19.1287" stroke="white" stroke-width="3" stroke-linecap="round" stroke-linejoin="round"/>
<path d="M5.56964 11.0078C7.41491 11.0078 8.92249 12.554 8.92249 14.4742C8.92249 16.3944 7.42697 17.9405 5.56964 17.9405C3.71231 17.9405 2.2168 16.3944 2.2168 14.4742" stroke="white" stroke-width="3" stroke-linecap="round" stroke-linejoin="round"/>
<path d="M23.6588 5.46633C23.6588 7.38073 22.1577 8.93267 20.306 8.93267C18.4543 8.93267 16.9531 7.38073 16.9531 5.46633C16.9531 3.55193 18.4543 2 20.306 2C22.1577 2 23.6588 3.55193 23.6588 5.46633Z" stroke="white" stroke-width="3" stroke-linecap="round" stroke-linejoin="round"/>
<path d="M20.306 26.7998C18.4607 26.7998 16.9531 25.2537 16.9531 23.3335C16.9531 21.4133 18.4486 19.8672 20.306 19.8672C22.1633 19.8672 23.6588 21.4133 23.6588 23.3335" stroke="white" stroke-width="3" stroke-linecap="round" stroke-linejoin="round"/>
</svg>
