<svg width="18" height="16" viewBox="0 0 18 16" fill="none" xmlns="http://www.w3.org/2000/svg">
<path d="M17.9647 2.70552C17.2909 3.00222 16.577 3.19807 15.846 3.28677C16.6156 2.82421 17.1918 2.0988 17.4683 1.24452C16.755 1.66077 15.9645 1.96377 15.123 2.13252C14.5678 1.53884 13.8322 1.14509 13.0302 1.0124C12.2283 0.879706 11.405 1.01551 10.6882 1.39871C9.97138 1.78192 9.40114 2.39108 9.06604 3.13161C8.73094 3.87214 8.64972 4.7026 8.835 5.49402C5.7675 5.34927 3.05025 3.87552 1.23 1.64952C0.899095 2.21188 0.726498 2.85329 0.7305 3.50577C0.7305 4.78827 1.383 5.91552 2.3715 6.57777C1.78564 6.55912 1.21273 6.40072 0.7005 6.11577V6.16077C0.700168 7.01306 0.994701 7.83922 1.53413 8.49909C2.07356 9.15895 2.82466 9.61188 3.66 9.78102C3.11872 9.92605 2.55181 9.94784 2.001 9.84477C2.23809 10.5783 2.69825 11.2195 3.31726 11.6789C3.93627 12.1383 4.68326 12.393 5.454 12.4075C4.14865 13.432 2.53686 13.988 0.8775 13.9863C0.585 13.9863 0.29325 13.969 0 13.936C1.69178 15.0193 3.65888 15.5943 5.66775 15.5928C12.4575 15.5928 16.1663 9.97077 16.1663 5.10402C16.1663 4.94652 16.1663 4.78902 16.155 4.63152C16.8795 4.11017 17.5044 3.46288 18 2.72052L17.9647 2.70552Z" fill="black"/>
</svg>
