<svg width="24" height="24" viewBox="0 0 24 24" fill="none" xmlns="http://www.w3.org/2000/svg">
<path opacity="0.4" d="M10.9608 2.06057L5.46078 4.12057C4.41078 4.52057 3.55078 5.76057 3.55078 6.89057V14.9906C3.55078 15.8006 4.08078 16.8706 4.73078 17.3506L10.2308 21.4606C11.2008 22.1906 12.7908 22.1906 13.7608 21.4606L19.2608 17.3506C19.9108 16.8606 20.4408 15.8006 20.4408 14.9906V6.89057C20.4408 5.77057 19.5808 4.52057 18.5308 4.13057L13.0308 2.07057C12.4708 1.85057 11.5308 1.85057 10.9608 2.06057Z" fill="#11999E"/>
<path d="M10.6602 14.2311C10.4702 14.2311 10.2802 14.1611 10.1302 14.0111L8.52023 12.4011C8.23023 12.1111 8.23023 11.6311 8.52023 11.3411C8.81023 11.0511 9.29023 11.0511 9.58023 11.3411L10.6602 12.4211L14.4302 8.65109C14.7202 8.36109 15.2002 8.36109 15.4902 8.65109C15.7802 8.94109 15.7802 9.42109 15.4902 9.71109L11.1902 14.0111C11.0402 14.1611 10.8502 14.2311 10.6602 14.2311Z" fill="#11999E"/>
</svg>
