<svg width="27" height="21" viewBox="0 0 27 21" fill="none" xmlns="http://www.w3.org/2000/svg">
<rect x="11.0176" y="19.8379" width="4.38379" height="1.16305" rx="0.581523" fill="black"/>
<path d="M24.5588 13.3903H23.2008C22.0628 13.3903 23.3224 12.1288 23.3224 10.9899L22.825 7.25567C22.825 6.11767 21.4812 5.29102 22.6201 5.29102H24.5588C25.6968 5.29102 26.6201 6.2134 26.6201 7.35229V11.329C26.6201 12.4679 25.6968 13.3903 24.5588 13.3903Z" fill="black"/>
<path d="M2.66869 13.902H4.02677C5.16477 13.902 3.9051 12.6405 3.9051 11.5017L4.40253 7.76739C4.40253 6.62939 5.7463 5.80273 4.60741 5.80273H2.66869C1.5307 5.80273 0.607422 6.72512 0.607422 7.86401V11.8407C0.607422 12.9796 1.5298 13.902 2.66869 13.902Z" fill="black"/>
<path d="M15.0036 20.7192C19.9868 19.6644 23.7291 15.1858 23.7291 10.3108C23.7291 4.6164 19.1127 0 13.4183 0C7.72382 0 3.10742 4.6164 3.10742 10.3108C3.10742 11.5714 3.33377 12.7783 3.7471 13.8948L4.60954 13.6899C4.24363 12.6888 4.15506 11.7378 4.15506 10.6106C4.15506 5.44484 8.34292 1.25698 13.5086 1.25698C18.6743 1.25698 22.8622 5.44484 22.8622 10.6106C22.8622 15.0722 19.2568 19.1303 15.077 20.0652L15.0036 20.7192Z" fill="black"/>
<path d="M18.6397 13.5618C18.6397 13.7473 18.5985 13.9379 18.5108 14.1233C18.4231 14.3087 18.3096 14.4839 18.16 14.6487C17.9072 14.9268 17.6286 15.1277 17.314 15.2565C17.0044 15.3853 16.6691 15.4522 16.308 15.4522C15.7818 15.4522 15.2195 15.3286 14.6263 15.0762C14.0331 14.8238 13.4398 14.4839 12.8517 14.0563C12.2585 13.6237 11.6962 13.1446 11.1597 12.6141C10.6283 12.0784 10.1486 11.5169 9.72041 10.9297C9.2974 10.3425 8.95693 9.75532 8.70931 9.17326C8.4617 8.58606 8.33789 8.02461 8.33789 7.48891C8.33789 7.13865 8.39979 6.80384 8.5236 6.49478C8.64741 6.18058 8.84344 5.89212 9.11685 5.63458C9.447 5.31007 9.80811 5.15039 10.1898 5.15039C10.3343 5.15039 10.4787 5.1813 10.6077 5.24311C10.7418 5.30492 10.8605 5.39763 10.9533 5.53156L12.1501 7.21591C12.243 7.34468 12.3101 7.46315 12.3565 7.57648C12.4029 7.68464 12.4287 7.79281 12.4287 7.89068C12.4287 8.0143 12.3926 8.13793 12.3204 8.2564C12.2533 8.37487 12.1553 8.49849 12.0315 8.62211L11.6394 9.02904C11.5827 9.0857 11.5569 9.15266 11.5569 9.23507C11.5569 9.27628 11.5621 9.31234 11.5724 9.35354C11.5878 9.39475 11.6033 9.42566 11.6136 9.45656C11.7065 9.62654 11.8664 9.84803 12.0934 10.1159C12.3255 10.3837 12.5732 10.6567 12.8414 10.9297C13.12 11.2027 13.3882 11.4551 13.6616 11.6869C13.9299 11.9136 14.1517 12.0681 14.3271 12.1608C14.3529 12.1711 14.3838 12.1866 14.42 12.202C14.4612 12.2175 14.5025 12.2226 14.5489 12.2226C14.6366 12.2226 14.7037 12.1917 14.7604 12.135L15.1525 11.7487C15.2814 11.6199 15.4053 11.5221 15.5239 11.4603C15.6426 11.3882 15.7612 11.3521 15.8902 11.3521C15.9882 11.3521 16.0914 11.3727 16.2048 11.4191C16.3183 11.4654 16.437 11.5324 16.566 11.6199L18.2735 12.8304C18.4076 12.9231 18.5005 13.0313 18.5572 13.1601C18.6088 13.2888 18.6397 13.4176 18.6397 13.5618Z" fill="black"/>
</svg>
