<svg width="27" height="22" viewBox="0 0 27 22" fill="none" xmlns="http://www.w3.org/2000/svg">
<rect x="11.3535" y="19.8379" width="4.3613" height="1.16312" rx="0.581558" fill="#11999E"/>
<path d="M13.9687 2.67383C12.0524 2.67383 10.2989 3.35828 8.92291 4.5035C7.16237 5.96098 6.04534 8.17 6.04534 10.6385C6.04534 10.787 6.05246 10.9364 6.05246 11.0769C6.14859 12.7652 6.76273 14.3122 7.73913 15.554C7.53175 17.101 6.62211 18.4171 5.3422 19.1758C5.19712 19.2957 5.10633 19.2975 4.87402 19.4433C4.85177 19.488 4.85355 19.5176 4.85355 19.5694C4.85355 19.6884 4.90517 19.8003 4.99418 19.8674C5.26476 19.9425 5.43031 19.9569 5.57806 19.9712C5.8522 20.0007 5.98482 19.9712 6.26608 19.9712C8.18238 19.9712 9.94293 19.2867 11.3118 18.1415C12.1405 18.4385 13.0359 18.6023 13.9678 18.6023C18.3478 18.6023 21.8982 15.0404 21.8982 10.6376C21.8991 6.24281 18.3487 2.67383 13.9687 2.67383ZM11.2807 11.3292C10.8081 11.3292 10.4244 10.9436 10.4244 10.4685C10.4244 9.99341 10.8081 9.60779 11.2807 9.60779C11.7533 9.60779 12.1369 9.99341 12.1369 10.4685C12.1369 10.9436 11.7533 11.3292 11.2807 11.3292ZM14.1752 11.3292C13.7025 11.3292 13.3189 10.9436 13.3189 10.4685C13.3189 9.99341 13.7025 9.60779 14.1752 9.60779C14.6478 9.60779 15.0314 9.99341 15.0314 10.4685C15.0314 10.9436 14.6478 11.3292 14.1752 11.3292ZM17.0705 11.3292C16.5979 11.3292 16.2143 10.9436 16.2143 10.4685C16.2143 9.99341 16.5979 9.60779 17.0705 9.60779C17.5432 9.60779 17.9268 9.99341 17.9268 10.4685C17.9268 10.9436 17.5432 11.3292 17.0705 11.3292Z" fill="#11999E"/>
<path d="M24.8278 13.3908H23.4767C22.3445 13.3908 23.5977 12.1292 23.5977 10.9903L23.1029 7.25579C23.1029 6.11772 21.766 5.29102 22.899 5.29102H24.8278C25.96 5.29102 26.8785 6.21346 26.8785 7.35242V11.3294C26.8785 12.4683 25.96 13.3908 24.8278 13.3908Z" fill="#11999E"/>
<path d="M3.04875 13.9045H4.39986C5.53202 13.9045 4.27881 12.6429 4.27881 11.504L4.77369 7.76946C4.77369 6.6314 6.11056 5.80469 4.97751 5.80469H3.04875C1.91659 5.80469 0.998047 6.72713 0.998047 7.86609V11.8431C0.998047 12.982 1.9157 13.9045 3.04875 13.9045Z" fill="#11999E"/>
<path d="M15.3137 20.7205C20.2713 19.6656 23.9944 15.1867 23.9944 10.3115C23.9944 4.61668 19.4017 0 13.7365 0C8.07123 0 3.47852 4.61668 3.47852 10.3115C3.47852 11.5721 3.7037 12.7791 4.11491 13.8957L4.97293 13.6908C4.6089 12.6896 4.52078 11.7385 4.52078 10.6112C4.52078 5.44518 8.68716 1.25706 13.8264 1.25706C18.9656 1.25706 23.132 5.44518 23.132 10.6112C23.132 15.0731 19.545 19.1315 15.3867 20.0664L15.3137 20.7205Z" fill="#11999E"/>
</svg>
