<svg width="22" height="21" viewBox="0 0 22 21" fill="none" xmlns="http://www.w3.org/2000/svg">
<path d="M11.9494 4.19336H5.2748C5.00365 4.19336 4.74292 4.20384 4.49263 4.23529C1.68722 4.47641 0.279297 6.14328 0.279297 9.21493V13.4083C0.279297 17.6017 1.94794 18.4299 5.2748 18.4299H5.69196C5.9214 18.4299 6.22384 18.5871 6.35942 18.7653L7.61091 20.4427C8.16364 21.187 9.06054 21.187 9.61328 20.4427L10.8648 18.7653C11.0212 18.5557 11.2715 18.4299 11.5322 18.4299H11.9494C15.0051 18.4299 16.6633 17.0251 16.9032 14.1946C16.9345 13.943 16.9449 13.6809 16.9449 13.4083V9.21493C16.9449 5.87071 15.2762 4.19336 11.9494 4.19336ZM4.97236 12.5801C4.38833 12.5801 3.92946 12.1084 3.92946 11.5318C3.92946 10.9552 4.39876 10.4834 4.97236 10.4834C5.54596 10.4834 6.01526 10.9552 6.01526 11.5318C6.01526 12.1084 5.54596 12.5801 4.97236 12.5801ZM8.61209 12.5801C8.02807 12.5801 7.56919 12.1084 7.56919 11.5318C7.56919 10.9552 8.0385 10.4834 8.61209 10.4834C9.18569 10.4834 9.655 10.9552 9.655 11.5318C9.655 12.1084 9.19612 12.5801 8.61209 12.5801ZM12.2623 12.5801C11.6782 12.5801 11.2193 12.1084 11.2193 11.5318C11.2193 10.9552 11.6887 10.4834 12.2623 10.4834C12.8358 10.4834 13.3052 10.9552 13.3052 11.5318C13.3052 12.1084 12.8358 12.5801 12.2623 12.5801Z" fill="#EC4B72"/>
<path d="M21.1173 5.02157V9.21495C21.1173 11.3116 20.4707 12.7374 19.1775 13.5236C18.8647 13.7123 18.4996 13.4607 18.4996 13.0938L18.5101 9.21495C18.5101 5.02157 16.1218 2.62086 11.9502 2.62086L5.59898 2.63134C5.23397 2.63134 4.98367 2.26442 5.17139 1.94992C5.95357 0.649973 7.37192 0 9.44724 0H16.1218C19.4487 0 21.1173 1.67735 21.1173 5.02157Z" fill="#EC4B72"/>
</svg>
