<svg width="22" height="22" viewBox="0 0 22 22" fill="none" xmlns="http://www.w3.org/2000/svg">
<g clip-path="url(#clip0_3795_440779)">
<path d="M11.0222 0.520536C8.25091 0.533469 5.5975 1.64345 3.64243 3.60768C1.68737 5.57191 0.589814 8.23048 0.589844 11.0018C0.589844 13.7817 1.69412 16.4476 3.65975 18.4132C5.62537 20.3789 8.29134 21.4832 11.0712 21.4832C13.851 21.4832 16.5169 20.3789 18.4826 18.4132C20.4482 16.4476 21.5525 13.7817 21.5525 11.0018C21.5525 8.22203 20.4482 5.55607 18.4826 3.59044C16.5169 1.62481 13.851 0.520536 11.0712 0.520536C11.0548 0.520498 11.0385 0.520498 11.0222 0.520536V0.520536ZM15.3563 6.83028C15.4436 6.82854 15.6366 6.85037 15.7624 6.95257C15.846 7.02515 15.8993 7.12645 15.9118 7.23644C15.9257 7.31767 15.9432 7.50371 15.9292 7.6487C15.772 9.30649 15.089 13.3278 14.7414 15.1839C14.5946 15.97 14.3055 16.2329 14.0251 16.2582C13.4172 16.315 12.9552 15.8564 12.3656 15.4704C11.4432 14.8651 10.9218 14.4886 10.0265 13.8982C8.99149 13.2169 9.66229 12.8413 10.2519 12.2299C10.4065 12.0692 13.0879 9.62967 13.1403 9.40869C13.1465 9.38074 13.1526 9.27767 13.0914 9.22352C13.0303 9.16936 12.9394 9.1877 12.8739 9.20255C12.7814 9.22352 11.3079 10.1983 8.45345 12.1242C8.03419 12.4125 7.65599 12.5522 7.31622 12.5435C6.94239 12.5365 6.22267 12.333 5.68725 12.1592C5.03042 11.9452 4.50898 11.8325 4.5544 11.47C4.57798 11.2813 4.83827 11.0883 5.33438 10.8909C8.38968 9.55979 10.4266 8.68198 11.4467 8.25836C14.357 7.04777 14.9623 6.83727 15.3563 6.83028V6.83028Z" fill="white"/>
</g>
<defs>
<clipPath id="clip0_3795_440779">
<rect width="20.9626" height="20.9626" fill="white" transform="translate(0.589844 0.520508)"/>
</clipPath>
</defs>
</svg>
