<svg width="32" height="32" viewBox="0 0 32 32" fill="none" xmlns="http://www.w3.org/2000/svg">
<path d="M15.9254 0.101606C11.7213 0.121225 7.69615 1.80506 4.73035 4.78476C1.76455 7.76447 0.0995636 11.7975 0.0996094 16.0016C0.0996094 20.2185 1.77478 24.2628 4.75661 27.2446C7.73844 30.2264 11.7827 31.9016 15.9996 31.9016C20.2166 31.9016 24.2608 30.2264 27.2426 27.2446C30.2244 24.2628 31.8996 20.2185 31.8996 16.0016C31.8996 11.7847 30.2244 7.74044 27.2426 4.75861C24.2608 1.77678 20.2166 0.101606 15.9996 0.101606C15.9749 0.101548 15.9501 0.101548 15.9254 0.101606ZM22.5001 9.67341C22.6326 9.67076 22.9254 9.70388 23.1162 9.85891C23.243 9.96901 23.3238 10.1227 23.3428 10.2895C23.364 10.4128 23.3905 10.695 23.3693 10.9149C23.1308 13.4298 22.0946 19.5301 21.5673 22.3457C21.3447 23.5382 20.9061 23.937 20.4808 23.9755C19.5586 24.0616 18.8576 23.366 17.9633 22.7803C16.5641 21.8621 15.773 21.291 14.4149 20.3953C12.8448 19.3618 13.8624 18.7921 14.7568 17.8646C14.9913 17.6208 19.059 13.92 19.1385 13.5848C19.1478 13.5424 19.1571 13.3861 19.0643 13.3039C18.9716 13.2218 18.8338 13.2496 18.7344 13.2721C18.594 13.3039 16.3587 14.7826 12.0286 17.7042C11.3926 18.1415 10.8189 18.3535 10.3034 18.3402C9.73633 18.3296 8.64453 18.0209 7.83231 17.7572C6.83591 17.4326 6.04488 17.2617 6.11378 16.7118C6.14956 16.4256 6.54441 16.1328 7.29701 15.8333C11.9319 13.814 15.0218 12.4824 16.5694 11.8398C20.9843 10.0033 21.9025 9.68401 22.5001 9.67341Z" fill="white"/>
</svg>
