<svg width="33" height="30" viewBox="0 0 33 30" fill="none" xmlns="http://www.w3.org/2000/svg">
<path d="M17.1228 7.43442C14.8877 3.56311 11.3435 3.63471 9.25484 7.57737L6.83404 12.1448C6.56084 12.6317 6.16267 13.0521 5.68201 13.3296L3.8243 14.4021C1.2261 15.9022 0.677042 17.9513 2.17711 20.5495L5.17725 25.7459C6.67732 28.3441 8.72646 28.8932 11.3246 27.3931L13.1824 26.3206C13.663 26.0431 14.2262 25.9084 14.7844 25.9153L19.9503 26.1025C24.4091 26.265 26.2357 23.2185 24.0081 19.3601L20.1679 12.7088M21.4633 5.94987C25.5533 7.69367 27.9984 11.9287 27.4636 16.3426M31.7144 18.2198C32.1505 14.625 31.3758 11.1231 29.6582 8.14812M21.9642 1.33203C23.3157 1.90281 24.5433 2.64903 25.658 3.52973" stroke="black" stroke-width="2" stroke-linecap="round" stroke-linejoin="round"/>
</svg>
