<svg width="32" height="34" viewBox="0 0 32 34" fill="none" xmlns="http://www.w3.org/2000/svg">
<path d="M23.2846 19.8771C22.8892 19.6722 20.9441 18.6844 20.582 18.5468C20.2185 18.4106 19.9549 18.3432 19.69 18.7532C19.4277 19.1618 18.6689 20.0821 18.4386 20.3545C18.2082 20.6283 17.9766 20.6613 17.5812 20.4577C17.1858 20.2513 15.9104 19.8207 14.3993 18.4285C13.2238 17.3445 12.429 16.0059 12.1987 15.596C11.9683 15.1874 12.1747 14.9659 12.3717 14.7623C12.5501 14.5793 12.7685 14.2849 12.9655 14.0469C13.1639 13.8076 13.2291 13.637 13.3622 13.3632C13.494 13.0908 13.4288 12.8528 13.3289 12.6478C13.2291 12.4429 12.4383 10.4302 12.1095 9.61168C11.7873 8.81515 11.4611 8.92383 11.2188 8.91007C10.9885 8.89907 10.7249 8.89632 10.4599 8.89632C10.1963 8.89632 9.76766 8.99812 9.40554 9.40808C9.04342 9.81666 8.02097 10.8058 8.02097 12.8184C8.02097 14.8297 9.43882 16.7736 9.63586 17.0473C9.83423 17.3197 12.4263 21.4496 16.395 23.2201C17.3389 23.641 18.0751 23.8928 18.6502 24.0799C19.5981 24.3922 20.4608 24.3482 21.1411 24.2422C21.9013 24.1253 23.4816 23.2531 23.8118 22.2984C24.1419 21.3436 24.1419 20.5251 24.0421 20.3545C23.9436 20.1839 23.68 20.0821 23.2832 19.8771H23.2846ZM16.0661 30.0614H16.0608C13.7041 30.0616 11.3906 29.4068 9.36294 28.1657L8.88233 27.8713L3.90186 29.2222L5.23052 24.2037L4.91766 23.6892C3.60024 21.5215 2.90329 19.0128 2.90736 16.453C2.9087 8.95547 8.8131 2.85563 16.0715 2.85563C19.5861 2.85563 22.8905 4.2726 25.3747 6.8424C26.6005 8.10339 27.572 9.60305 28.2331 11.2546C28.8942 12.9061 29.2318 14.6768 29.2262 16.464C29.2222 23.9616 23.3192 30.0614 16.0661 30.0614ZM27.2665 4.89029C25.7997 3.36453 24.0544 2.15476 22.1318 1.33108C20.2091 0.507402 18.1474 0.0861892 16.0661 0.0918532C7.33933 0.0918532 0.236735 7.4312 0.232741 16.4516C0.232741 19.3351 0.960974 22.1498 2.34688 24.6302L0.0996094 33.1086L8.49359 30.8332C10.8149 32.14 13.4161 32.8249 16.0595 32.8252H16.0661C24.7916 32.8252 31.8955 25.4859 31.8995 16.464C31.906 14.3142 31.4998 12.1844 30.7046 10.1978C29.9093 8.21117 28.7408 6.40723 27.2665 4.89029Z" fill="white"/>
</svg>
