<svg width="22" height="22" viewBox="0 0 22 22" fill="none" xmlns="http://www.w3.org/2000/svg">
<g clip-path="url(#clip0_3795_440781)">
<path d="M20.5866 5.92395C20.4682 5.47786 20.2347 5.07071 19.9094 4.74328C19.5841 4.41585 19.1785 4.17963 18.7332 4.05828C17.099 3.61719 10.5438 3.61719 10.5438 3.61719C10.5438 3.61719 3.98862 3.61719 2.35354 4.05828C1.90844 4.17985 1.50306 4.41615 1.17795 4.74356C0.852844 5.07097 0.619399 5.478 0.500968 5.92395C0.0625 7.56951 0.0625 11.0021 0.0625 11.0021C0.0625 11.0021 0.0625 14.4348 0.500968 16.0803C0.619395 16.5264 0.852944 16.9336 1.17823 17.261C1.50351 17.5884 1.90911 17.8247 2.35441 17.946C3.98862 18.3871 10.5438 18.3871 10.5438 18.3871C10.5438 18.3871 17.099 18.3871 18.7341 17.946C19.1794 17.8247 19.5851 17.5885 19.9104 17.2611C20.2357 16.9337 20.4692 16.5265 20.5875 16.0803C21.0251 14.4348 21.0251 11.0021 21.0251 11.0021C21.0251 11.0021 21.0251 7.56951 20.5866 5.92395ZM8.39951 14.1186V7.8857L13.8786 11.0021L8.39951 14.1186Z" fill="white"/>
</g>
<defs>
<clipPath id="clip0_3795_440781">
<rect width="20.9626" height="20.9626" fill="white" transform="translate(0.0625 0.520508)"/>
</clipPath>
</defs>
</svg>
